<?xml version="1.0" encoding="UTF-8" standalone="no"?>
<!DOCTYPE svg PUBLIC "-//W3C//DTD SVG 1.1//EN" "http://www.w3.org/Graphics/SVG/1.1/DTD/svg11.dtd">
<svg version="1.1" xmlns="http://www.w3.org/2000/svg" xmlns:xlink="http://www.w3.org/1999/xlink" preserveAspectRatio="xMidYMid meet" viewBox="0 0 26 140" width="26" height="140"><defs><path d="M0 78.41L0 16.87L13 16.87L26 16.87L26 78.41L26 139.94L13 139.94L0 139.94L0 78.41Z" id="e6bUvLgzlA"></path><path d="M10.73 97.73L15.87 97.74L14.05 103.48L12.45 103.5L10.73 97.73Z" id="a2mleIz8Cs"></path><linearGradient id="gradientcWiOo6xLR" gradientUnits="userSpaceOnUse" x1="11.3" y1="100.75" x2="21.57" y2="105.6"><stop style="stop-color: #916f6f;stop-opacity: 1" offset="0%"></stop><stop style="stop-color: #916f6f;stop-opacity: 0" offset="100%"></stop></linearGradient><path d="M25.98 137.4C25.98 137.4 25.98 137.4 25.98 137.4C25.98 138.92 25.98 139.77 25.98 139.94C25.98 139.94 25.98 139.94 25.98 139.94C10.41 139.94 1.76 139.94 0.03 139.94C0.03 139.94 0.03 139.94 0.03 139.94C0.03 138.41 0.03 137.57 0.03 137.4C0.03 137.4 0.03 137.4 0.03 137.4C15.6 137.4 24.25 137.4 25.98 137.4Z" id="aF43KXzA0"></path><path d="M0.54 48.29C0.45 37.82 0.37 27.39 0.35 16.92C0.95 25.3 0.56 34.24 0.76 42.88C0.79 65.73 1.21 88.63 0.72 111.43C0.6 120.25 0.52 129.1 0.52 137.95C0.39 140.11 0.26 138.42 0.35 137.4C0.43 107.7 1 77.98 0.54 48.29ZM2.13 131.35C1.97 101.13 1.67 70.86 2.15 40.67C2.15 32.74 2.08 24.79 2.21 16.87C2.23 44.73 2.38 69.43 2.07 95.85C2.4 111.71 2.08 120.33 2.49 133.25C2.55 138.59 1.86 137.94 2.13 133.11C2.13 133.05 2.13 132.76 2.13 132.23C2.13 131.76 2.13 131.47 2.13 131.35ZM2.65 19.89C3.4 18.94 2.71 27.83 2.92 30.5C2.28 68.09 3.21 103.28 3.01 138.16C2.96 138.79 2.82 139.49 2.66 139.16C2.42 96.56 2.46 59.09 2.65 19.89ZM3.17 109.11C2.85 87.61 2.83 66.04 3.07 44.52C3.15 36.3 3.07 27.8 3.35 19.77C3.62 24.28 3.3 29.83 3.31 34.76C3.23 40.72 3.17 46.71 3.23 52.68C3.5 41.35 3.32 29.85 3.72 18.57C3.64 34.73 3.28 50.84 3.29 67.02C3.22 84.74 3.5 102.44 3.93 120.03C3.99 125.29 3.95 134.5 3.8 137.3C3.7 128.85 3.98 120.34 3.62 111.97C2.95 24.24 3.01 72.11 3.64 127.05C3.62 129.67 3.78 137.88 3.27 137.54C3.51 128.07 3.39 118.54 3.17 109.11ZM2.98 78.95C2.82 79.39 3.14 79.46 2.98 78.95C2.98 78.95 2.98 78.95 2.98 78.95ZM5.02 83.2C3.86 68.76 4.31 53.06 4.48 38.04C4.92 32.55 4.06 20.12 5.1 19.02C5.33 28.64 4.73 38.64 5.48 47.99C6.08 54.11 6.17 60.83 6.12 67.5C5.88 81.07 6.31 98.15 6.7 113.36C6.86 120.1 6.83 126.88 6.96 133.62C7.02 136.93 6.36 139.67 6.5 134.6C6.4 127.5 6.65 120.22 6.34 113.24C5.3 112.7 5.79 122.03 5.51 125.71C5.32 130.24 5.48 136.38 4.9 139.81C4.89 139.8 4.85 139.75 4.78 139.64L4.7 139.33C4.79 114.38 4.9 95.66 5.02 83.2ZM6.21 121.75C6.38 126.22 6.44 134.68 6.17 136.81C6.1 133.98 6.62 124.87 5.81 126.25C5.7 129.67 5.84 134.09 5.35 137.66C5.69 133.34 5.38 121.58 6.21 121.75ZM6.36 83.33C6.18 72.97 6.19 62.55 6.31 52.18C6.24 48.17 4.59 42.3 6.14 42.21C6.62 36.66 6.06 30.48 6.2 24.66C6.59 15.38 5.77 32.78 6.71 30.21C6.76 27.37 7.03 16.79 6.89 24.83C6.29 50.83 6.01 77.33 7.02 103.2C7.21 112.57 7.21 122 7.33 131.4C6.94 133.19 7.41 136.88 6.99 138.32C7.34 119.93 6.76 101.58 6.36 83.33ZM7.78 120.26C7.94 116.9 7.34 107.11 7.7 107.26C8.01 117.5 7.91 128.01 7.47 138.09C7.44 138.56 7.35 138.52 7.27 138.62C7.68 132.58 7.28 126.09 7.78 120.26ZM8.36 120.15C8.12 98.92 7.1 77.68 7.18 57.81C7.34 50.73 6.74 43.34 7.4 36.51C7.55 31.12 7.17 24.33 7.67 20.05C8.44 14.03 7.87 25.6 7.83 27.8C7.41 44.82 7.74 56.13 7.66 79.14C8.58 94.99 8.78 111.21 8.61 126.36C8.48 129.38 8.37 140.28 7.79 139.28C8.18 133.01 8.01 126.34 8.36 120.15ZM9.66 78.05C9.51 83.18 8.7 82.68 8.83 77.69C8.39 66.95 7.94 55.75 8.6 44.98C8.93 37.83 9.44 30.82 9.52 23.46C9.31 25.44 8.78 34.58 9.1 27.8C8.93 25.02 9.91 15.23 9.83 22.56C9.72 24.79 9.35 33.59 9.73 32.11C9.86 27.35 9.69 15.34 11.35 18.84C11.51 27.42 11.59 36.03 12.06 44.37C12.04 50.23 12.16 58.23 11.41 62.64C10.99 58.39 11.47 51.68 10.75 48.61C9.8 56.4 10.53 60.44 10.39 74.16C9.65 97.06 11.61 116.93 10.69 138.29C10.49 133.52 10.6 140.81 10.37 136.21C10.21 129.53 10.6 122.75 10.13 116.18C10.03 123.34 10.51 130.93 9.97 137.89C9.68 139.75 9.72 139.56 9.73 137.72C10.03 117.87 10.15 97.86 9.66 78.05ZM9.83 138.33C9.67 138.76 10 138.83 9.83 138.33C9.83 138.33 9.83 138.33 9.83 138.33ZM9.8 61.05C9.48 63.07 9.42 72.98 8.95 66.03C8.28 58.26 9.04 50.08 9.54 42.64C9.79 39.61 9.17 36.89 9.23 41.4C8.82 49.43 8.38 57.76 8.68 66.06C8.38 71.25 9.75 74.18 9.76 68.94C10.1 74.1 9.9 79.82 10.07 85.21C10.14 91.36 10.17 97.52 10.12 103.68C10.2 100.55 10.16 97.39 10.19 94.25C10.2 84.53 9.96 72.13 9.8 61.05ZM9.21 72.51C9.07 70.68 9.4 73.5 9.21 72.51C9.21 72.51 9.21 72.51 9.21 72.51ZM11.43 134.95C11.52 136.77 11.16 142.7 10.91 137.66C10.53 134.81 11.58 128.57 11.43 134.95ZM11.58 139.64C11.75 130.97 11.18 122.55 10.86 114.14C10.55 96.29 10.32 78.22 10.87 60.41C11.21 61.64 11.12 72.22 11.61 67.39C11.55 62.64 12.75 62.06 12.36 67.48C12.65 88.46 12.52 109.51 12.72 130.51C12.39 109.48 12.6 88.33 12.18 67.32C11.46 65.71 11.7 77.94 11.06 71.41C10.42 80.75 10.72 90.74 10.73 100.37C10.9 113.2 11.78 125.79 11.61 138.71C11.6 138.9 11.58 139.46 11.58 139.64ZM12.62 60.28C12.98 45.96 13.17 31.47 12.91 17.06C13.53 19.03 13.02 30.53 13.18 22.11C13.11 17.98 13.38 17.68 13.31 21.92C13.25 36.73 13.42 51.56 13.11 66.33C13.01 72.74 13.28 79.04 13.05 85.43C12.99 103.11 13.31 120.77 13.28 138.45C12.67 141.34 12.97 134.45 12.88 133.27C12.66 117.51 12.58 84.67 12.62 60.28ZM13.01 120.48C13.06 124.1 12.92 127.85 13.18 131.35C13.09 127.87 13.18 123.26 13.01 120.48ZM13.83 78.1C14.1 61.41 14.42 44.6 13.96 27.91C13.81 25.16 14.02 13.89 14.16 21.57C14.28 31.04 14.36 40.52 14.41 50.01C14.41 55.94 14.4 61.87 14.38 67.8C15.01 61.33 14.56 53.88 14.69 47.01C14.54 38.62 14.51 30.2 14.31 21.85C14.79 15.08 14.88 25.99 14.88 28.36C15.35 68.55 14.2 102.99 14.66 139.28C13.54 116.23 14.68 90.7 14.57 68.94C13.89 77.35 14.37 84.82 13.98 98.44C13.93 108.07 13.97 117.72 14.14 127.32C13.56 131.62 14.85 135.26 13.86 139.29C13.63 120.51 13.76 101.24 13.83 78.1ZM15.45 109C15.32 79.61 15.92 50.28 15.94 20.9C16.44 17.67 16.03 28.23 16.07 30.24C15.95 55.49 15.45 86.49 15.67 114.77C15.5 121.76 16.38 126.35 16.21 133.23C16.17 135.25 16.59 138.62 15.95 139.4C15.85 129.24 15.32 119.22 15.45 109ZM16.48 138.8C16.75 128.17 16.23 117.64 15.86 107.24C15.57 93.23 15.8 79.16 15.87 65.13C16.18 72.99 15.87 81.05 15.98 89C15.97 98.34 16.33 107.55 16.64 116.72C16.77 124.15 16.76 131.64 16.57 139.05C16.57 139.05 16.55 139.06 16.51 139.07C16.49 138.93 16.48 138.84 16.48 138.8ZM16.31 94.28C16.05 72.44 16.12 50.48 16.7 28.77C16.67 26.05 16.57 16.98 17.43 19.65C17.37 30.25 16.88 40.65 16.64 51.17C16.44 87.43 16.53 86.18 17.12 97.19C17.24 105.87 17.41 114.64 17.42 123.29C17.34 128.8 17.81 136.13 16.92 139.37C16.92 139.38 16.92 139.45 16.91 139.57L16.88 139.58C16.94 119.29 16.75 104.19 16.31 94.28ZM17.69 34.64C17.69 30.69 17.63 20.2 17.9 20.44C17.66 47.2 17.36 74.03 17.77 100.79C17.86 113.74 17.94 126.71 17.9 139.67C17.34 134.42 17.89 128.52 17.69 123C17.77 93.55 16.87 64 17.69 34.64ZM19.9 112.52C21.38 115.38 20.1 124.32 20.39 129.89C20.36 132.49 20.64 140.73 19.58 138.8C19.58 130.02 19.7 121.25 19.9 112.52ZM20.99 133.68C20.99 135.44 20.93 137.27 20.74 138.8C20.85 135.74 20.99 125.56 20.99 133.68ZM22.34 138.08C22.24 107.19 23.4 76.28 22.55 45.45C22.22 36.21 22.27 26.86 22.35 17.54C22.9 28.72 22.41 40.81 22.81 44.05C23.22 68.81 22.94 93.65 22.87 118.44C22.59 124.96 22.75 133.69 22.37 138.98C22.37 138.8 22.35 138.26 22.34 138.08ZM23.13 112.77C23.03 93.26 23.13 73.75 23.14 54.23C23.22 80.86 23.21 107.56 23.27 134.14C23.27 135.86 22.59 142.07 22.72 136.88C22.93 128.85 23.47 120.91 23.13 112.77ZM23.14 106.6C22.98 107.03 23.3 107.1 23.14 106.6C23.14 106.6 23.14 106.6 23.14 106.6ZM23.78 132.77C23.98 116.45 24.35 99.97 23.76 83.74C23.6 69.51 23.89 55.28 23.83 41.03C23.94 33.4 23.62 25.14 24.08 17.88C25.31 13.62 26.49 21.02 25.79 26.3C26.06 60.51 25.98 94.74 25.92 128.96C26.12 133.8 25.57 140.44 24.45 139.67C24.02 138.82 23.84 136.34 23.98 134.36C24.25 132.46 23.71 128.23 23.78 132.77ZM24.98 26.14C24.35 32.05 24.86 39.16 24.63 45.54C24.64 55.04 24.83 64.52 25.12 73.91C25.17 73.35 25.2 72.77 25.21 72.16C25.36 56.82 25.25 41.44 24.98 26.14ZM24.99 69.89C24.92 68.48 25.1 70.34 24.99 69.89C24.99 69.89 24.99 69.89 24.99 69.89ZM25.88 46.74C25.72 47.18 26.04 47.25 25.88 46.74C25.88 46.74 25.88 46.74 25.88 46.74ZM25.88 45.78C25.72 46.22 26.04 46.29 25.88 45.78C25.88 45.78 25.88 45.78 25.88 45.78ZM16.25 138.4C16.19 136.99 16.37 138.85 16.25 138.4C16.25 138.4 16.25 138.4 16.25 138.4ZM10.85 134.47C10.59 131.83 11.11 134.39 10.85 134.47C10.85 134.47 10.85 134.47 10.85 134.47ZM18.31 127.82C18.2 104.2 17.92 80.58 17.98 56.96C18.04 50.8 18.2 44.57 18.17 38.46C18.96 33.89 18.68 44.06 18.87 46.66C18.94 52.74 19.14 58.71 19.43 64.62C20.14 78.35 20.4 50.62 20.59 45.94C20.84 41.16 20.52 34.25 21.26 30.83C21.67 36.02 21.59 41.92 21.83 47.37C22.32 65.68 22.49 84.56 21.72 102.69C20.99 95.84 20.98 87.45 20.53 80.01C20.85 84.85 20 75.82 19.99 81.92C19.7 91.65 19.43 101.41 19.15 111.15C18.97 117.65 18.92 124.31 18.82 130.78C18.82 130.78 18.8 130.78 18.77 130.76C18.96 127.4 18.81 126.42 18.31 127.82ZM18.51 109.96C18.36 110.4 18.68 110.47 18.51 109.96C18.51 109.96 18.51 109.96 18.51 109.96ZM18.47 53.93C17.96 61.76 18.24 70.16 18.24 78.23C18.32 85.19 18.26 92.2 18.49 99.1C19.55 102.31 19.2 79.08 19.17 77.06C18.93 69.36 18.78 61.59 18.47 53.93ZM21.32 41.02C20.3 47.74 20.87 56.38 20.6 63.98C20.7 72.55 20.91 81.35 21.74 89.11C22.26 73.13 21.94 56.83 21.32 41.02ZM7.72 130.58C7.64 128.74 7.9 131.3 7.72 130.58C7.72 130.58 7.72 130.58 7.72 130.58ZM17.5 127.27C17.56 124.04 17.59 128.92 17.5 127.27C17.5 127.27 17.5 127.27 17.5 127.27ZM22.11 121.38C22.13 124.4 21.92 126.51 22 121.55C21.88 118.1 22.22 117.01 22.11 121.38ZM21.03 122.86C21.03 123.74 21.03 124.64 20.97 125.48C20.73 122.54 21.08 115.97 21.03 122.86ZM5.99 123.73C5.93 122.27 6.15 124.42 5.99 123.73C5.99 123.73 5.99 123.73 5.99 123.73ZM14.18 122.52C14.17 120.67 14.25 123.52 14.18 122.52C14.18 122.52 14.18 122.52 14.18 122.52ZM14.18 120.71C14.22 118.76 14.22 122.67 14.18 120.71C14.18 120.71 14.18 120.71 14.18 120.71ZM6.81 120.37C6.74 118.96 6.92 120.82 6.81 120.37C6.81 120.37 6.81 120.37 6.81 120.37ZM14.18 118.79C14.21 117.14 14.21 120.45 14.18 118.79C14.18 118.79 14.18 118.79 14.18 118.79ZM0.4 109.6C0.38 111.72 0.29 114.78 0.32 110.5C0.79 81.83 0.26 85.85 0.4 109.6ZM11.78 95.8C12.06 101.19 12.29 106.61 11.76 112.39C11.77 107.86 11.14 96.14 11.78 95.8ZM2.22 108.28C2.08 102.46 2.41 105.67 2.26 109.58C2.26 109.58 2.22 108.28 2.22 108.28ZM2.42 102.53C2.07 101.54 2.53 100.93 2.42 102.53C2.42 102.53 2.42 102.53 2.42 102.53ZM6.75 61.61C6.71 48.54 6.5 45.54 7.24 20.13C7.55 23.17 6.87 32.49 6.95 37.81C6.82 50.91 6.88 64.04 6.92 77.13C7.63 83.6 5.91 94.84 7.21 98.87C6.8 86.56 6.82 74.04 6.75 61.61ZM2.08 82.82C0.69 120.87 1.39 101.84 2.08 82.82C2.08 82.82 2.08 82.82 2.08 82.82ZM9.62 79.27C9.26 77.94 9.76 77.53 9.62 79.27C9.62 79.27 9.62 79.27 9.62 79.27ZM14.32 72.06C14.26 70.65 14.44 72.5 14.32 72.06C14.32 72.06 14.32 72.06 14.32 72.06ZM14.37 68.45C14.31 67.04 14.49 68.9 14.37 68.45C14.37 68.45 14.37 68.45 14.37 68.45ZM11.99 67.25C11.92 65.84 12.1 67.7 11.99 67.25C11.99 67.25 11.99 67.25 11.99 67.25ZM22.19 63.85C22.38 62.99 22.15 65.52 22.19 63.85C22.19 63.85 22.19 63.85 22.19 63.85ZM16.46 18.93C16.87 25.61 16.11 32.24 16.18 38.99C16.08 45.9 16.13 52.85 15.92 59.72C15.9 58.5 15.93 57.28 15.92 56.06C15.98 43.65 16.09 31.22 16.46 18.93ZM25.95 54.03C25.88 52.62 26.07 54.48 25.95 54.03C25.95 54.03 25.95 54.03 25.95 54.03ZM22.7 19.35C23.38 20.26 22.84 28.9 23.04 32.71C23.08 39.7 23.26 46.72 23.09 53.71C23 44.39 22.6 39.32 22.7 19.35ZM22.98 31.12C22.82 31.56 23.15 31.63 22.98 31.12C22.98 31.12 22.98 31.12 22.98 31.12ZM25.96 51.97C26 50.02 26 53.92 25.96 51.97C25.96 51.97 25.96 51.97 25.96 51.97ZM10.89 49.78C10.72 46.64 11.09 50.96 10.89 49.78C10.89 49.78 10.89 49.78 10.89 49.78ZM11.63 20.15C12.2 24.81 11.91 31.24 12.12 36.58C12.07 39.81 12.8 43.53 12.82 38.04C12.99 33.35 12.63 23.73 12.82 22C12.9 31.03 13.04 40.25 12.56 49.1C12.68 46.76 12.5 49.34 12.39 49.35C12.11 39.63 11.86 29.89 11.63 20.15ZM17.61 31.71C17.58 37.55 17.46 43.37 17.3 49.17C17.33 44.06 17.49 32.88 17.61 31.71ZM8.4 45.04C8.37 46.05 8.3 47.1 8.14 47.81C8.17 44.85 8.65 38.15 8.4 45.04ZM25.9 44.4C25.96 42.36 25.97 46.74 25.9 44.4C25.9 44.4 25.9 44.4 25.9 44.4ZM12.45 41.9C12.3 40.76 12.73 42.36 12.45 41.9C12.45 41.9 12.45 41.9 12.45 41.9ZM25.91 39.35C25.92 37.1 25.96 40.82 25.91 39.35C25.91 39.35 25.91 39.35 25.91 39.35ZM5.95 29.98C5.89 32.59 5.87 35.47 5.58 37.8C5.26 27.9 5.75 12.16 5.95 29.98ZM20.17 19.22C20.48 24.47 19.81 29.46 19.73 34.61C19.78 30.08 18.99 18.72 20.17 19.22ZM21.43 34.56C21.37 33.15 21.55 35.01 21.43 34.56C21.43 34.56 21.43 34.56 21.43 34.56ZM11.61 33.34C11.71 32.29 11.65 35.08 11.61 33.34C11.61 33.34 11.61 33.34 11.61 33.34ZM5.94 30C5.88 28.58 6.06 30.44 5.94 30C5.94 30 5.94 30 5.94 30ZM16.66 23.75C16.59 22.33 16.77 24.19 16.66 23.75C16.66 23.75 16.66 23.75 16.66 23.75Z" id="c4BiLDipE"></path><path d="M26 4.95C26 4.95 26 4.95 26 4.95C26 12.1 26 16.08 26 16.87C26 16.87 26 16.87 26 16.87C10.41 16.87 1.75 16.87 0.01 16.87C0.01 16.87 0.01 16.87 0.01 16.87C0.01 9.72 0.01 5.75 0.01 4.95C0.01 4.95 0.01 4.95 0.01 4.95C15.61 4.95 24.27 4.95 26 4.95Z" id="a1Y3wF3nEJ"></path><path d="M26 0.06C26 0.06 26 0.06 26 0.06C26 2.99 26 4.63 26 4.95C26 4.95 26 4.95 26 4.95C10.42 4.95 1.77 4.95 0.04 4.95C0.04 4.95 0.04 4.95 0.04 4.95C0.04 2.01 0.04 0.38 0.04 0.06C0.04 0.06 0.04 0.06 0.04 0.06C15.61 0.06 24.27 0.06 26 0.06Z" id="b7hcRweWR6"></path><path d="M15.36 83.07C16.01 79.16 20.18 76.91 20.18 72.08C20.18 66.24 20.06 61.27 20.06 55.24C20.06 49.21 20.21 41.83 20.22 34.7C20.27 30.91 20.79 27.16 18.77 25.04C16.57 22.89 13.8 22.93 11.28 23.09C9.42 23.38 7.32 24.13 6.14 26.47C5.18 30.61 5.33 30.94 5.38 35.03C5.59 41.08 5.88 51.21 5.74 57.17C5.6 63.14 5.71 66.47 5.71 72.14C5.71 77.38 10.38 79.57 10.63 82.94C10.88 86.7 10.78 91.82 10.78 95.72C10.9 96.18 10.73 95.7 10.81 96.19C12.23 97.3 13.61 97.26 15.22 96.2C15.33 96.15 15.36 95.9 15.19 95.87C15.19 95.87 15.19 95.87 15.19 95.87C15.13 90.17 15.19 85.9 15.36 83.07Z" id="cuy1unJP7"></path><path d="M6.2 26.66C5.8 26.78 6.74 25.45 6.84 25.29C9.36 22.52 13.57 22.49 16.49 23.75C17.45 24.24 18.88 24.56 19.42 26.04C15.46 23.2 9.86 23.25 6.2 26.66Z" id="a2NuwVR86B"></path><path d="M14.29 80.75C15.04 78.37 15.31 80.68 15.01 82.53C14.59 86.38 14.67 90.3 14.75 94.17C14.72 94.5 14.59 94.87 14.35 94.94C14.28 90.21 14.29 85.48 14.29 80.75Z" id="c19NdcOaYp"></path><linearGradient id="gradienta7VldeqIr" gradientUnits="userSpaceOnUse" x1="17.11" y1="80.19" x2="13.48" y2="95.65"><stop style="stop-color: #cccccc;stop-opacity: 0.5545" offset="0%"></stop><stop style="stop-color: #cccccc;stop-opacity: 0" offset="100%"></stop></linearGradient><path d="M12.09 81.67C11.93 81.81 11.45 81.13 11.29 80.39C10.64 79.45 9.68 78.02 11.05 82.67C11.43 86.52 11.36 91.04 11.25 94.9C11.27 95.24 11.4 95.61 11.64 95.69C11.76 90.96 12.05 86.4 12.09 81.67Z" id="c3515CP3Zy"></path><linearGradient id="gradientb4d5dtWjhc" gradientUnits="userSpaceOnUse" x1="14.99" y1="94.18" x2="11.67" y2="83.99"><stop style="stop-color: #cccccc;stop-opacity: 0.5545" offset="0%"></stop><stop style="stop-color: #cccccc;stop-opacity: 0" offset="100%"></stop></linearGradient><path d="M15.16 47.49C14.83 55.88 14.02 79.31 14.32 75.28C15.4 68.7 16.1 62.07 16.2 55.42C15.45 51.21 15.92 35.66 15.16 47.49Z" id="a9gEQYCqu"></path><path d="M18.85 33.47C20.52 25.47 17.53 30.01 16.75 36.32C15.49 46.58 17.94 50.62 16.34 64.53C15.57 71.21 15.08 73.06 15.99 75.51C17.31 79.09 18.85 74.61 18.52 59.16C18.33 50.67 17.17 41.48 18.85 33.47Z" id="c2mjrw2xJS"></path><path d="M5.87 45.67C9.66 46.23 16.15 45.9 20.04 45.64C20.04 45.51 20.06 44.45 20.06 44.32C14.8 44.57 9.64 44.46 5.82 44.23C5.82 44.23 5.86 45.53 5.87 45.67Z" id="b2aJ77boBH"></path><path d="M5.83 62.6C10.1 63.16 15.64 63.03 20.02 62.77C20.01 62.61 19.95 61.4 19.94 61.25C14.01 61.5 10.12 61.58 5.82 61.35C5.82 61.35 5.83 62.47 5.83 62.6Z" id="c5iJa3NmZm"></path><path d="M12.68 79.45C11.83 79.76 11.28 79.18 10.7 78.49C10.16 77.84 10 76.96 10.04 76.18C10.09 75 10.69 74.88 11.13 74.26C11.51 73.71 12.46 74.22 12.76 74.45C13.29 74.87 13.58 74.99 14.11 75.41C14.57 75.77 15.16 75.84 15.6 76.18C16.32 76.75 16.3 77.34 15.77 78.1C15.4 78.63 15.29 78.77 14.7 79.45C14.38 79.2 13.33 79.2 12.68 79.45Z" id="a10ksxCXHD"></path><linearGradient id="gradientg429OpAWod" gradientUnits="userSpaceOnUse" x1="13.7" y1="81.29" x2="14.09" y2="74.02"><stop style="stop-color: #ffffff;stop-opacity: 1" offset="0%"></stop><stop style="stop-color: #ffffff;stop-opacity: 0" offset="100%"></stop></linearGradient><path d="M5.83 45.42C9.94 45.74 15.49 45.87 19.95 45.47C19.94 47.05 19.91 59.64 19.9 61.21C13.91 61.65 10.14 61.61 5.81 61.36C5.81 61.36 5.83 47.02 5.83 45.42Z" id="a1B3z6UHku"></path><linearGradient id="gradienta1P585kRSv" gradientUnits="userSpaceOnUse" x1="7.35" y1="53.56" x2="12.97" y2="53.56"><stop style="stop-color: #e6e6e6;stop-opacity: 1" offset="0%"></stop><stop style="stop-color: #fffdf8;stop-opacity: 1" offset="100%"></stop></linearGradient><path d="M10.58 95.75C10.33 96.04 10.36 96.09 10.55 96.52C12.14 97.69 13.78 97.61 15.46 96.33C15.58 95.94 15.49 95.8 15.36 95.6C14.18 96.4 13.16 97.2 10.58 95.75Z" id="dXicOhePE"></path><path d="M16.38 90.67C16.38 90.67 16.38 90.67 16.38 90.67C16.38 94.92 16.38 97.28 16.38 97.76C16.38 97.76 16.38 97.76 16.38 97.76C11.78 97.76 9.22 97.76 8.71 97.76C8.71 97.76 8.71 97.76 8.71 97.76C8.71 93.5 8.71 91.14 8.71 90.67C8.71 90.67 8.71 90.67 8.71 90.67C13.31 90.67 15.87 90.67 16.38 90.67Z" id="j1M0vs9RWo"></path><path d="M14.8 88.56C14.8 88.56 14.8 88.56 14.8 88.56C14.8 90.36 14.8 91.36 14.8 91.56C14.8 91.56 14.8 91.56 14.8 91.56C12.72 91.56 11.56 91.56 11.33 91.56C11.33 91.56 11.33 91.56 11.33 91.56C11.33 89.76 11.33 88.76 11.33 88.56C11.33 88.56 11.33 88.56 11.33 88.56C13.41 88.56 14.57 88.56 14.8 88.56Z" id="aVkvIKeSN"></path><path d="M12.66 76.77C12.66 76.77 12.66 76.77 12.66 76.77C12.66 83.82 12.66 87.73 12.66 88.52C12.66 88.52 12.66 88.52 12.66 88.52C11.55 88.52 10.94 88.52 10.81 88.52C10.81 88.52 10.81 88.52 10.81 88.52C10.81 81.47 10.81 77.55 10.81 76.77C10.81 76.77 10.81 76.77 10.81 76.77C11.92 76.77 12.54 76.77 12.66 76.77Z" id="dEJUIEfRS"></path><path d="M15.23 76.77C15.23 76.77 15.23 76.77 15.23 76.77C15.23 83.82 15.23 87.73 15.23 88.52C15.23 88.52 15.23 88.52 15.23 88.52C13.13 88.52 11.97 88.52 11.74 88.52C11.74 88.52 11.74 88.52 11.74 88.52C11.74 81.47 11.74 77.55 11.74 76.77C11.74 76.77 11.74 76.77 11.74 76.77C13.83 76.77 15 76.77 15.23 76.77Z" id="f3pXeUZ1d"></path><path d="M17.41 90.66C17.41 90.66 17.41 90.66 17.41 90.66C17.41 94.92 17.41 97.28 17.41 97.75C17.41 97.75 17.41 97.75 17.41 97.75C12.81 97.75 10.26 97.75 9.75 97.75C9.75 97.75 9.75 97.75 9.75 97.75C9.75 93.5 9.75 91.14 9.75 90.66C9.75 90.66 9.75 90.66 9.75 90.66C14.35 90.66 16.9 90.66 17.41 90.66Z" id="aazz6Jcn4f"></path><path d="M25.99 135.27C25.99 135.27 25.99 135.27 25.99 135.27C25.99 136.8 25.99 137.65 25.99 137.82C25.99 137.82 25.99 137.82 25.99 137.82C10.4 137.82 1.74 137.82 0.01 137.82C0.01 137.82 0.01 137.82 0.01 137.82C0.01 136.29 0.01 135.44 0.01 135.27C0.01 135.27 0.01 135.27 0.01 135.27C15.6 135.27 24.26 135.27 25.99 135.27Z" id="a4a8Q9Pb8d"></path><path d="M98.93 58.89L97.93 58.89L97.93 48.21L98.93 48.21L98.93 58.89Z" id="i49VIVDrFa"></path><path d="M99.5 66.09L98.93 66.09L98.93 61.62L99.5 61.62L99.5 66.09Z" id="a5CNuM3EUA"></path></defs><g><g><g><use xlink:href="#e6bUvLgzlA" opacity="1" fill="#96642c" fill-opacity="1"></use><g><use xlink:href="#e6bUvLgzlA" opacity="1" fill-opacity="0" stroke="#000000" stroke-width="1" stroke-opacity="0"></use></g></g><g><use xlink:href="#a2mleIz8Cs" opacity="1" fill="url(#gradientcWiOo6xLR)"></use><g><use xlink:href="#a2mleIz8Cs" opacity="1" fill-opacity="0" stroke="#000000" stroke-width="1.13" stroke-opacity="0"></use></g></g><g><use xlink:href="#aF43KXzA0" opacity="1" fill="#aa4400" fill-opacity="1"></use><g><use xlink:href="#aF43KXzA0" opacity="1" fill-opacity="0" stroke="#000000" stroke-width="0.17" stroke-opacity="0"></use></g></g><g><use xlink:href="#c4BiLDipE" opacity="1" fill="#8c5829" fill-opacity="1"></use><g><use xlink:href="#c4BiLDipE" opacity="1" fill-opacity="0" stroke="#000000" stroke-width="1" stroke-opacity="0"></use></g></g><g><use xlink:href="#a1Y3wF3nEJ" opacity="1" fill="#803300" fill-opacity="1"></use><g><use xlink:href="#a1Y3wF3nEJ" opacity="1" fill-opacity="0" stroke="#000000" stroke-width="1" stroke-opacity="0"></use></g></g><g><use xlink:href="#b7hcRweWR6" opacity="1" fill="#c87137" fill-opacity="1"></use><g><use xlink:href="#b7hcRweWR6" opacity="1" fill-opacity="0" stroke="#000000" stroke-width="1" stroke-opacity="0"></use></g></g><g><use xlink:href="#cuy1unJP7" opacity="1" fill="#154f29" fill-opacity="1"></use><g><use xlink:href="#cuy1unJP7" opacity="1" fill-opacity="0" stroke="#1d2f21" stroke-width="4.97" stroke-opacity="1"></use></g></g><g><use xlink:href="#a2NuwVR86B" opacity="1" fill="#6a8a75" fill-opacity="1"></use><g><use xlink:href="#a2NuwVR86B" opacity="1" fill-opacity="0" stroke="#000000" stroke-width="1" stroke-opacity="0"></use></g></g><g><use xlink:href="#c19NdcOaYp" opacity="1" fill="url(#gradienta7VldeqIr)"></use><g><use xlink:href="#c19NdcOaYp" opacity="1" fill-opacity="0" stroke="#000000" stroke-width="1" stroke-opacity="0"></use></g></g><g><use xlink:href="#c3515CP3Zy" opacity="1" fill="url(#gradientb4d5dtWjhc)"></use><g><use xlink:href="#c3515CP3Zy" opacity="1" fill-opacity="0" stroke="#000000" stroke-width="1" stroke-opacity="0"></use></g></g><g><use xlink:href="#a9gEQYCqu" opacity="1" fill="#ffffff" fill-opacity="1"></use><g><use xlink:href="#a9gEQYCqu" opacity="1" fill-opacity="0" stroke="#000000" stroke-width="1" stroke-opacity="0"></use></g></g><g><use xlink:href="#c2mjrw2xJS" opacity="1" fill="#ffffff" fill-opacity="1"></use><g><use xlink:href="#c2mjrw2xJS" opacity="1" fill-opacity="0" stroke="#000000" stroke-width="1" stroke-opacity="0"></use></g></g><g><use xlink:href="#b2aJ77boBH" opacity="1" fill="#000000" fill-opacity="1"></use><g><use xlink:href="#b2aJ77boBH" opacity="1" fill-opacity="0" stroke="#000000" stroke-width="1" stroke-opacity="0"></use></g></g><g><use xlink:href="#c5iJa3NmZm" opacity="1" fill="#000000" fill-opacity="1"></use><g><use xlink:href="#c5iJa3NmZm" opacity="1" fill-opacity="0" stroke="#000000" stroke-width="1" stroke-opacity="0"></use></g></g><g><use xlink:href="#a10ksxCXHD" opacity="1" fill="url(#gradientg429OpAWod)"></use><g><use xlink:href="#a10ksxCXHD" opacity="1" fill-opacity="0" stroke="#000000" stroke-width="1" stroke-opacity="0"></use></g></g><g><use xlink:href="#a1B3z6UHku" opacity="1" fill="url(#gradienta1P585kRSv)"></use><g><use xlink:href="#a1B3z6UHku" opacity="1" fill-opacity="0" stroke="#000000" stroke-width="1" stroke-opacity="0"></use></g></g><g><use xlink:href="#dXicOhePE" opacity="1" fill="#154f29" fill-opacity="1"></use><g><use xlink:href="#dXicOhePE" opacity="1" fill-opacity="0" stroke="#1d2f21" stroke-width="5.47" stroke-opacity="1"></use></g></g><g><use xlink:href="#j1M0vs9RWo" opacity="1" fill="#916f6f" fill-opacity="1"></use><g><use xlink:href="#j1M0vs9RWo" opacity="1" fill-opacity="0" stroke="#000000" stroke-width="1" stroke-opacity="0"></use></g></g><g><use xlink:href="#aVkvIKeSN" opacity="1" fill="#916f6f" fill-opacity="1"></use><g><use xlink:href="#aVkvIKeSN" opacity="1" fill-opacity="0" stroke="#000000" stroke-width="0.44" stroke-opacity="0"></use></g></g><g><use xlink:href="#dEJUIEfRS" opacity="1" fill="#916f6f" fill-opacity="1"></use><g><use xlink:href="#dEJUIEfRS" opacity="1" fill-opacity="0" stroke="#000000" stroke-width="0.63" stroke-opacity="0"></use></g></g><g><use xlink:href="#f3pXeUZ1d" opacity="1" fill="#ac9393" fill-opacity="1"></use><g><use xlink:href="#f3pXeUZ1d" opacity="1" fill-opacity="0" stroke="#000000" stroke-width="0.87" stroke-opacity="0"></use></g></g><g><use xlink:href="#aazz6Jcn4f" opacity="1" fill="#ac9393" fill-opacity="1"></use><g><use xlink:href="#aazz6Jcn4f" opacity="1" fill-opacity="0" stroke="#000000" stroke-width="1" stroke-opacity="0"></use></g></g><g><use xlink:href="#a4a8Q9Pb8d" opacity="1" fill="#c87137" fill-opacity="1"></use><g><use xlink:href="#a4a8Q9Pb8d" opacity="1" fill-opacity="0" stroke="#000000" stroke-width="0.17" stroke-opacity="0"></use></g></g><g><use xlink:href="#i49VIVDrFa" opacity="1" fill="#ffffff" fill-opacity="1"></use><g><use xlink:href="#i49VIVDrFa" opacity="1" fill-opacity="0" stroke="#000000" stroke-width="1" stroke-opacity="0"></use></g></g><g><use xlink:href="#a5CNuM3EUA" opacity="1" fill="#ffffff" fill-opacity="1"></use><g><use xlink:href="#a5CNuM3EUA" opacity="1" fill-opacity="0" stroke="#000000" stroke-width="1" stroke-opacity="0"></use></g></g></g></g></svg>