<?xml version="1.0" encoding="UTF-8" standalone="no"?>
<!DOCTYPE svg PUBLIC "-//W3C//DTD SVG 1.1//EN" "http://www.w3.org/Graphics/SVG/1.1/DTD/svg11.dtd">
<svg version="1.1" xmlns="http://www.w3.org/2000/svg" xmlns:xlink="http://www.w3.org/1999/xlink" preserveAspectRatio="xMidYMid meet" viewBox="0 0 270 605" width="120" height="268.89"><defs><path d="M70.52 50.13L91.81 50.04L78.12 606.41L70.52 606.1L70.52 50.13Z" id="b2bXF3zpHv"></path><path d="M189.74 174.1C189.74 174.1 189.74 174.1 189.74 174.1C189.74 179.27 189.74 182.14 189.74 182.71C189.74 182.71 189.74 182.71 189.74 182.71C126.65 182.71 91.61 182.71 84.6 182.71C84.6 182.71 84.6 182.71 84.6 182.71C84.6 177.54 84.6 174.68 84.6 174.1C84.6 174.1 84.6 174.1 84.6 174.1C147.68 174.1 182.73 174.1 189.74 174.1Z" id="cadogYOo2"></path><path d="M204.07 49.51L204.07 606.14L196.47 606.46L182.77 49.42L204.07 49.51Z" id="jztKINhVp"></path><path d="M227.26 6.49C235.32 6.49 239.35 9.91 239.35 16.74C239.35 27.02 239.35 32.73 239.35 33.87C239.35 40.71 235.32 44.13 227.26 44.13C119.76 44.13 60.04 44.13 48.09 44.13C40.03 44.13 36 40.71 36 33.87C36 23.59 36 17.88 36 16.74C36 9.91 40.03 6.49 48.09 6.49C155.59 6.49 215.31 6.49 227.26 6.49Z" id="a378pWPd6R"></path><path d="M222.64 36.19C228.51 36.19 231.44 39.12 231.44 44.98C231.44 44.98 231.44 44.98 231.44 44.98C231.44 50.84 228.51 53.77 222.64 53.77C120.69 53.77 64.05 53.77 52.72 53.77C46.86 53.77 43.93 50.84 43.93 44.98C43.93 44.98 43.93 44.98 43.93 44.98C43.93 39.12 46.86 36.19 52.72 36.19C154.67 36.19 211.32 36.19 222.64 36.19Z" id="ae6oHw7Hr"></path></defs><g><g><g><use xlink:href="#b2bXF3zpHv" opacity="1" fill="#ac9d93" fill-opacity="1"></use><g><use xlink:href="#b2bXF3zpHv" opacity="1" fill-opacity="0" stroke="#000000" stroke-width="0.5" stroke-opacity="0"></use></g></g><g><use xlink:href="#cadogYOo2" opacity="1" fill="#ac9393" fill-opacity="1"></use><g><use xlink:href="#cadogYOo2" opacity="1" fill-opacity="0" stroke="#000000" stroke-width="0.57" stroke-opacity="0"></use></g></g><g><use xlink:href="#jztKINhVp" opacity="1" fill="#ac9d93" fill-opacity="1"></use><g><use xlink:href="#jztKINhVp" opacity="1" fill-opacity="0" stroke="#000000" stroke-width="0.5" stroke-opacity="0"></use></g></g><g><use xlink:href="#a378pWPd6R" opacity="1" fill="#a02c2c" fill-opacity="1"></use><g><use xlink:href="#a378pWPd6R" opacity="1" fill-opacity="0" stroke="#000000" stroke-width="0.86" stroke-opacity="0"></use></g></g><g><use xlink:href="#ae6oHw7Hr" opacity="1" fill="#6c5353" fill-opacity="1"></use><g><use xlink:href="#ae6oHw7Hr" opacity="1" fill-opacity="0" stroke="#000000" stroke-width="0.57" stroke-opacity="0"></use></g></g></g></g></svg>