<?xml version="1.0" encoding="iso-8859-1"?>
<!-- Generator: Adobe Illustrator 19.0.0, SVG Export Plug-In . SVG Version: 6.00 Build 0)  -->
<svg version="1.1" id="Capa_1" xmlns="http://www.w3.org/2000/svg" xmlns:xlink="http://www.w3.org/1999/xlink" x="0px" y="0px"
	 viewBox="0 0 512 512" style="enable-background:new 0 0 512 512;" xml:space="preserve">
<rect x="96" y="416.001" style="fill:#2276BB;" width="320" height="88.5"/>
<rect x="97.83" y="405.101" style="fill:#FDBE40;" width="316.33" height="33.13"/>
<g>
	<rect x="390.1" y="405.101" style="fill:#FFA912;" width="24.07" height="33.13"/>
	<rect x="97.83" y="405.101" style="fill:#FFA912;" width="24.07" height="33.13"/>
</g>
<path style="fill:#394D5C;" d="M100.902,504.501h-87.4c-3.314,0-6-2.686-6-6V311.698c0-3.314,2.686-6,6-6h87.401
	c3.314,0,6,2.686,6,6v186.803C106.902,501.814,104.216,504.501,100.902,504.501z"/>
<path style="fill:#133441;" d="M100.902,305.698h-20c3.314,0,6,2.686,6,6v186.803c0,3.314-2.686,6-6,6h20c3.314,0,6-2.686,6-6
	V311.698C106.902,308.384,104.216,305.698,100.902,305.698z"/>
<circle style="fill:#5A6571;" cx="57.2" cy="359.541" r="28.992"/>
<circle style="fill:#7D8F9E;" cx="57.2" cy="359.541" r="7.766"/>
<circle style="fill:#5A6571;" cx="57.2" cy="450.661" r="28.992"/>
<circle style="fill:#7D8F9E;" cx="57.2" cy="450.661" r="7.766"/>
<path style="fill:#AABFCF;" d="M316.268,504.501H195.734c-3.314,0-6-2.686-6-6v-21.134c0-3.314,2.686-6,6-6h120.534
	c3.314,0,6,2.686,6,6v21.134C322.268,501.815,319.582,504.501,316.268,504.501z"/>
<path style="fill:#394D5C;" d="M498.5,504.501h-87.4c-3.314,0-6-2.686-6-6V311.698c0-3.314,2.686-6,6-6h87.4c3.314,0,6,2.686,6,6
	v186.803C504.5,501.814,501.814,504.501,498.5,504.501z"/>
<path style="fill:#133441;" d="M498.5,305.698h-20c3.314,0,6,2.686,6,6v186.803c0,3.314-2.686,6-6,6h20c3.314,0,6-2.686,6-6V311.698
	C504.5,308.384,501.814,305.698,498.5,305.698z"/>
<circle style="fill:#5A6571;" cx="454.8" cy="359.541" r="28.992"/>
<circle style="fill:#7D8F9E;" cx="454.8" cy="359.541" r="7.766"/>
<circle style="fill:#5A6571;" cx="454.8" cy="450.661" r="28.992"/>
<circle style="fill:#7D8F9E;" cx="454.8" cy="450.661" r="7.766"/>
<path style="fill:#394D5C;" d="M388.534,129.466l-0.001,14.944c0,1.591-0.632,3.117-1.757,4.242l-29.143,29.143
	c-2.343,2.343-6.142,2.343-8.485,0l-14.945-14.945c-2.343-2.343-2.343-6.142,0-8.485l29.143-29.143
	c1.125-1.125,2.651-1.757,4.243-1.757h14.945C385.848,123.466,388.534,126.153,388.534,129.466z"/>
<path style="fill:#FDBE40;" d="M359.247,195.395c-1.919,0-3.839-0.732-5.304-2.197L318.8,158.055c-2.929-2.929-2.929-7.678,0-10.606
	c2.93-2.929,7.678-2.929,10.607,0l35.144,35.143c2.929,2.929,2.929,7.678,0,10.607C363.086,194.663,361.166,195.395,359.247,195.395
	z"/>
<path style="fill:#394D5C;" d="M123.466,129.466l0.001,14.944c0,1.591,0.632,3.117,1.757,4.242l29.143,29.143
	c2.343,2.343,6.142,2.343,8.485,0l14.945-14.945c2.343-2.343,2.343-6.142,0-8.485l-29.143-29.143
	c-1.125-1.125-2.651-1.757-4.243-1.757h-14.945C126.153,123.466,123.466,126.153,123.466,129.466z"/>
<path style="fill:#FDBE40;" d="M152.753,195.395c1.919,0,3.839-0.732,5.304-2.197l35.144-35.144c2.929-2.929,2.929-7.678,0-10.606
	c-2.93-2.929-7.678-2.929-10.607,0l-35.144,35.143c-2.929,2.929-2.929,7.678,0,10.607
	C148.914,194.663,150.834,195.395,152.753,195.395z"/>
<path style="fill:#87D0ED;" d="M322.267,24.067H498.5c3.314,0,6,2.686,6,6v54.266c0,3.314-2.686,6-6,6h-485c-3.314,0-6-2.686-6-6
	V30.068c0-3.314,2.686-6,6-6h176.234L322.267,24.067z"/>
<path style="fill:#75B1D9;" d="M498.5,24.067h-20c3.314,0,6,2.686,6,6v54.266c0,3.314-2.686,6-6,6h20c3.314,0,6-2.686,6-6V30.067
	C504.5,26.754,501.814,24.068,498.5,24.067z"/>
<path style="fill:#FDBE40;" d="M316.267,40.633H195.735c-3.314,0-6-2.686-6-6V13.501c0-3.314,2.686-6,6-6h120.533
	c3.314,0,6,2.686,6,6v21.132C322.267,37.947,319.581,40.633,316.267,40.633z"/>
<path style="fill:#FFA912;" d="M316.267,7.5h-20c3.314,0,6,2.686,6,6v21.133c0,3.314-2.686,6-6,6h20c3.314,0,6-2.686,6-6V13.5
	C322.267,10.187,319.581,7.5,316.267,7.5z"/>
<path style="fill:#7D8F9E;" d="M316.268,471.367h-20c3.314,0,6,2.686,6,6V498.5c0,3.314-2.686,6-6,6h20c3.314,0,6-2.686,6-6v-21.133
	C322.268,474.054,319.582,471.368,316.268,471.367z"/>
<path d="M504.5,97.833c4.143,0,7.5-3.358,7.5-7.5V24.067c0-4.142-3.357-7.5-7.5-7.5l-174.732-0.001V7.501c0-4.142-3.357-7.5-7.5-7.5
	H189.734c-4.143,0-7.5,3.358-7.5,7.5v9.066h-90.05c-4.143,0-7.5,3.358-7.5,7.5s3.357,7.5,7.5,7.5h90.05v9.066
	c0,4.142,3.357,7.5,7.5,7.5h132.533c4.143,0,7.5-3.358,7.5-7.5v-9.067L497,31.567v51.266H15V31.567h47.317
	c4.143,0,7.5-3.358,7.5-7.5s-3.357-7.5-7.5-7.5H7.5c-4.143,0-7.5,3.358-7.5,7.5v66.266c0,4.142,3.357,7.5,7.5,7.5h9.068v100.164
	c0,0.007-0.001,0.013-0.001,0.019s0.001,0.013,0.001,0.019v100.164H7.5c-4.143,0-7.5,3.358-7.5,7.5v198.8c0,4.142,3.357,7.5,7.5,7.5
	h99.39c0.003,0,0.006,0,0.01,0h82.834h132.535H405.1c0.003,0,0.006,0,0.01,0h99.39c4.143,0,7.5-3.358,7.5-7.5V305.698
	c0-4.142-3.357-7.5-7.5-7.5h-9.065V97.833H504.5z M314.768,33.133H197.234V15.001h117.533v18.132H314.768z M322.269,463.867H189.733
	c-4.143,0-7.5,3.358-7.5,7.5v25.634H114.4V445.73h283.2v51.271h-67.831v-25.634C329.769,467.225,326.411,463.867,322.269,463.867z
	 M397.6,412.601v18.129H114.4v-18.129H397.6z M256.001,390.857l6.744,6.744h-13.488L256.001,390.857z M405.1,298.198
	c-4.143,0-7.5,3.358-7.5,7.5v91.903H283.957l-20.456-20.456V292.24l14.37-14.369c2.93-2.929,2.93-7.677,0.001-10.606
	s-7.678-2.93-10.607,0l-16.559,16.558c-0.006,0.005-0.011,0.011-0.017,0.017l-8.275,8.274c-2.93,2.929-2.93,7.677-0.001,10.606
	c1.465,1.465,3.384,2.197,5.304,2.197c0.261,0,0.523-0.016,0.783-0.044v72.272l-20.456,20.456H114.4v-91.9
	c0-4.142-3.357-7.5-7.5-7.5h-9.065V97.833h41.563v18.133h-15.931c-1.989,0-3.896,0.79-5.304,2.197
	c-1.406,1.407-2.196,3.314-2.196,5.304l0.001,23.43c0,1.989,0.79,3.897,2.196,5.303l29.839,29.839l-0.553,0.553
	c-2.929,2.929-2.929,7.678,0,10.607c1.465,1.465,3.385,2.197,5.304,2.197s3.839-0.732,5.304-2.197l5.855-5.855
	c0.001-0.001,0.001-0.001,0.002-0.002l23.43-23.43c0.001-0.001,0.002-0.002,0.003-0.003l5.853-5.854
	c2.929-2.929,2.929-7.678,0-10.606c-2.93-2.93-7.678-2.929-10.607,0l-0.554,0.552l-27.642-27.642V97.833h203.206v22.525
	l-27.643,27.643l-0.553-0.553c-2.93-2.929-7.678-2.929-10.607,0s-2.929,7.678,0,10.606l35.144,35.144
	c1.465,1.464,3.385,2.197,5.304,2.197c1.919,0,3.839-0.732,5.304-2.197c2.929-2.929,2.929-7.678,0-10.607L364,182.038l29.839-29.839
	c1.406-1.406,2.196-3.314,2.196-5.303l0.001-23.43c0-1.989-0.79-3.897-2.196-5.304c-1.407-1.406-3.314-2.197-5.304-2.197h-15.931
	V97.833h41.565v100.164c0,0.007-0.001,0.013-0.001,0.019s0.001,0.013,0.001,0.019v100.162h-9.07V298.198z M76.911,190.517H37.49
	l19.71-32.03L76.911,190.517z M66.007,144.176l16.828-27.345v54.691L66.007,144.176z M76.911,205.517l-19.71,32.03l-19.711-32.03
	H76.911z M82.835,224.512v54.69l-16.827-27.345L82.835,224.512z M57.201,129.865L37.489,97.833h39.423L57.201,129.865z
	 M48.394,144.176l-16.826,27.342v-54.685L48.394,144.176z M48.394,251.858l-16.826,27.343v-54.685L48.394,251.858z M57.201,266.168
	L76.913,298.2H37.489L57.201,266.168z M158.61,171.432l-27.642-27.643l-0.001-12.823h12.824l27.642,27.642L158.61,171.432z
	 M340.567,158.608l27.643-27.643h12.824l-0.001,12.823l-27.642,27.643L340.567,158.608z M429.168,224.515l16.826,27.343
	l-16.826,27.343V224.515z M435.09,205.517h39.421l-19.71,32.03L435.09,205.517z M435.09,190.517l19.71-32.03l19.711,32.03H435.09z
	 M429.168,171.518v-54.685l16.826,27.342L429.168,171.518z M435.089,97.833h39.423L454.8,129.865L435.089,97.833z M454.801,266.168
	l19.71,32.029h-39.42L454.801,266.168z M463.607,251.858l16.828-27.345v54.69L463.607,251.858z M463.607,144.176l16.828-27.345
	v54.691L463.607,144.176z M15,313.2h84.4v91.881c0,0.007-0.001,0.013-0.001,0.019s0.001,0.013,0.001,0.019v33.091
	c0,0.007-0.001,0.013-0.001,0.019s0.001,0.013,0.001,0.019v58.753H15V313.2z M197.233,497.001v-18.134h117.535v18.134H197.233z
	 M497,497.001h-84.4V313.198h9.025c0.012,0,0.024,0.002,0.036,0.002c0.013,0,0.026-0.002,0.039-0.002h66.205
	c0.01,0,0.019,0.001,0.029,0.001s0.019-0.001,0.029-0.001H497V497.001z"/>
<path d="M454.8,323.049c-20.122,0-36.492,16.37-36.492,36.492s16.37,36.493,36.492,36.493s36.492-16.371,36.492-36.493
	S474.922,323.049,454.8,323.049z M454.8,381.034c-11.851,0-21.492-9.642-21.492-21.493s9.642-21.492,21.492-21.492
	c11.851,0,21.492,9.641,21.492,21.492S466.65,381.034,454.8,381.034z"/>
<circle cx="454.8" cy="359.541" r="7.766"/>
<path d="M454.8,414.165c-20.122,0-36.492,16.37-36.492,36.492s16.37,36.492,36.492,36.492s36.492-16.37,36.492-36.492
	S474.922,414.165,454.8,414.165z M454.8,472.149c-11.851,0-21.492-9.641-21.492-21.492s9.642-21.492,21.492-21.492
	c11.851,0,21.492,9.641,21.492,21.492C476.292,462.508,466.65,472.149,454.8,472.149z"/>
<circle cx="454.8" cy="450.661" r="7.766"/>
<path d="M57.199,323.049c-20.122,0-36.492,16.37-36.492,36.492s16.37,36.493,36.492,36.493s36.493-16.371,36.493-36.493
	S77.321,323.049,57.199,323.049z M57.199,381.034c-11.85,0-21.492-9.642-21.492-21.493s9.642-21.492,21.492-21.492
	c11.852,0,21.493,9.641,21.493,21.492S69.051,381.034,57.199,381.034z"/>
<circle cx="57.2" cy="359.541" r="7.766"/>
<path d="M57.199,414.165c-20.122,0-36.492,16.37-36.492,36.492s16.37,36.492,36.492,36.492s36.493-16.37,36.493-36.492
	S77.321,414.165,57.199,414.165z M57.199,472.149c-11.85,0-21.492-9.641-21.492-21.492s9.642-21.492,21.492-21.492
	c11.852,0,21.493,9.641,21.493,21.492C78.692,462.508,69.051,472.149,57.199,472.149z"/>
<circle cx="57.2" cy="450.661" r="7.766"/>
<g>
</g>
<g>
</g>
<g>
</g>
<g>
</g>
<g>
</g>
<g>
</g>
<g>
</g>
<g>
</g>
<g>
</g>
<g>
</g>
<g>
</g>
<g>
</g>
<g>
</g>
<g>
</g>
<g>
</g>
</svg>
