<svg height="512" viewBox="0 0 512 512" width="512" xmlns="http://www.w3.org/2000/svg"><g id="Filled_outline" data-name="Filled outline"><path d="m323.777 296h8.446a83.776 83.776 0 0 0 74.932-46.311 83.769 83.769 0 0 0 8.845-37.466v-100.223h-176v100.223a83.769 83.769 0 0 0 8.845 37.466 83.776 83.776 0 0 0 74.932 46.311z" fill="#743b20"/><path d="m360 280v-64h-64v64h-24v40h112v-40z" fill="#fec9a3"/><path d="m408 280h-32l-48 16-48-16h-35.307a48 48 0 0 0 -46.319 35.408l-37.649 138.492a27.842 27.842 0 0 0 53.9 13.91l26.575-73.116a63.881 63.881 0 0 0 14.112 53.306v48h192.688v-176a40 40 0 0 0 -40-40z" fill="#d6d6d4"/><path d="m400 496v-48a62.085 62.085 0 0 0 0-80v-88h-22.6l-49.4 104-48-104h-24v88c-23 23.5-20.482 56.443-.688 80v48" fill="#354766"/><path d="m400 332.113c-40.642 93.805-96.683 141.866-130.519 163.887h130.519v-48a62.086 62.086 0 0 0 0-80z" fill="#31425e"/><path d="m328 296-40-16v48l40-16 40 16v-48z" fill="#2e3e51"/><path d="m352 368h64v32h-64z" fill="#ffb531"/><path d="m352 384h64v16h-64z" fill="#f98500"/><path d="m208 384h-48v77.075a26.925 26.925 0 1 0 53.77-2.065z" fill="#e0e0de"/><path d="m160 352h48v32h-48z" fill="#ebebe9"/><path d="m112 312h72a24 24 0 0 1 24 24v16a0 0 0 0 1 0 0h-56a40 40 0 0 1 -40-40 0 0 0 0 1 0 0z" fill="#fec9a3"/><path d="m184 312h-72a39.781 39.781 0 0 0 3.377 16h91.153a23.929 23.929 0 0 0 -22.53-16z" fill="#fec093"/><path d="m64 280h192a0 0 0 0 1 0 0 32 32 0 0 1 -32 32h-128a32 32 0 0 1 -32-32 0 0 0 0 1 0 0z" fill="#49648e"/><path d="m223.981 280a32 32 0 0 1 -32 32h32.019a32 32 0 0 0 32-32z" fill="#425b82"/><path d="m332.824 256a43.894 43.894 0 0 0 27.176-9.81v-30.19h-64v30.19a43.894 43.894 0 0 0 27.176 9.81z" fill="#feb784"/><path d="m400 112v56a72.006 72.006 0 0 1 -72 72c-1.73 0-3.44-.06-5.14-.18a72.017 72.017 0 0 1 -66.86-71.82v-56a64 64 0 0 1 64-64h16c1.34 0 2.67.04 3.98.13a63.987 63.987 0 0 1 60.02 63.87z" fill="#fec9a3"/><path d="m400 112v56a72.006 72.006 0 0 1 -72 72c-1.73 0-3.44-.06-5.14-.18a87.9 87.9 0 0 0 37.14-71.82v-64a87.574 87.574 0 0 0 -20.02-55.87 63.987 63.987 0 0 1 60.02 63.87z" fill="#fec093"/><path d="m224 112h8a24 24 0 0 1 24 24 24 24 0 0 1 -24 24h-8a0 0 0 0 1 0 0v-48a0 0 0 0 1 0 0z" fill="#feb784" transform="matrix(-1 0 0 -1 480 272)"/><path d="m416 104v136a40.015 40.015 0 0 1 -40 40v-166.94a16 16 0 0 0 -7.77-13.72l-8.79-5.27-63.44-38.07-40 56h-16v-8a79.947 79.947 0 0 1 80-80h16a80 80 0 0 1 80 80z" fill="#7a432a"/><path d="m368.232 99.339-72.232-43.339-5.714 8-34.286 48a31.09 31.09 0 0 0 25.3-13.02l17.1-23.94 51.992 31.195a49.826 49.826 0 0 1 15.823 15.088l9.785 14.677v-22.941a16 16 0 0 0 -7.768-13.72z" fill="#fec093"/><path d="m240 184-17.14 24-14.88 20.83-7.98 11.17-7.98-11.17-14.88-20.83-17.14-24z" fill="#e0e0de"/><path d="m222.86 208-14.88 20.83h-15.96l-14.88-20.83z" fill="#f35244"/><path d="m222.857 208-22.857 32 40-56h-25.472l-16.167 24z" fill="#d6d6d4"/><path d="m198.361 208-10.298 15.288 11.937 16.712 22.857-32z" fill="#de4132"/><path d="m416 104v136a40.015 40.015 0 0 1 -40 40v-166.94a16 16 0 0 0 -7.77-13.72l-8.79-5.27a88.13 88.13 0 0 0 -49.43-69.45 80.346 80.346 0 0 1 9.99-.62h16a80 80 0 0 1 80 80z" fill="#743b20"/><path d="m160 184-17.14 24-14.88 20.83-7.98 11.17-7.98-11.17-14.88-20.83-17.14-24z" fill="#e0e0de"/><path d="m142.86 208-14.88 20.83h-15.96l-14.88-20.83z" fill="#f35244"/><path d="m142.857 208-22.857 32 40-56h-25.472l-16.167 24z" fill="#d6d6d4"/><path d="m118.361 208-10.298 15.288 11.937 16.712 22.857-32z" fill="#de4132"/><path d="m411.609 272.15a47.811 47.811 0 0 0 12.391-32.15v-136a88 88 0 0 0 -88-88h-16a88 88 0 0 0 -88 88v4.305a31.969 31.969 0 0 0 0 55.39v12.305h-151.774a8.23 8.23 0 0 0 -6.277 2.761 8.008 8.008 0 0 0 -.459 9.889l38.51 53.914v29.436h-48a7.95 7.95 0 0 0 -8 7.822 40.046 40.046 0 0 0 40 40.178h8.679a48.072 48.072 0 0 0 47.321 40v101.075a34.925 34.925 0 0 0 60.549 23.731c3.143-3.394 13.386-27.024 24.354-54.9a70.172 70.172 0 0 0 11.097 20.911v45.183h16v-48a8.035 8.035 0 0 0 -1.889-5.163 54.077 54.077 0 0 1 -10.084-51.5c1.787-6.715 8-17.035 10.7-21.339a8.347 8.347 0 0 0 1.273-4.444v-77.554h10.878l5.122 11.115v28.66a8.262 8.262 0 0 0 2.355 5.9 8.007 8.007 0 0 0 9.223 1.481l4.133-2.066 25.028 54.269a8 8 0 0 0 7.223 4.641h.038a8 8 0 0 0 7.23-4.574l8.77-18.5v31.074a8 8 0 0 0 8 8h54.514a53.822 53.822 0 0 1 -12.6 34.808 8.078 8.078 0 0 0 -1.914 5.192v48h16v-45.183a69.8 69.8 0 0 0 14.418-46.056 7.95 7.95 0 0 0 1.582-4.761v-32a8 8 0 0 0 -8-8h-8v-72a32.036 32.036 0 0 1 32 32v176h16v-176a48.052 48.052 0 0 0 -44.391-47.85zm-147.609-157.587 34.217-47.9 65.9 39.539a8.039 8.039 0 0 1 3.885 6.86v15.638a12 12 0 1 0 0 22.6v66.6a62.372 62.372 0 0 1 -11.578 7.425 64 64 0 0 1 -92.424-57.325zm64 133.437a80.25 80.25 0 0 0 24-3.7v34.754l-17.889 8.946h-12.222l-17.889-8.944v-34.756a80.211 80.211 0 0 0 24 3.7zm-32 67.056v-22.112l20.422 10.211a7.994 7.994 0 0 0 3.578.845 7.994 7.994 0 0 0 -3.578.845zm43.578-11.9 20.422-10.212v22.112l-20.422-10.211a7.994 7.994 0 0 0 -3.578-.845 7.994 7.994 0 0 0 3.578-.845zm-19.578-271.156h16a72.081 72.081 0 0 1 72 72v136a32.056 32.056 0 0 1 -24 30.987v-157.928a24.121 24.121 0 0 0 -11.652-20.58l-72.232-43.339a8 8 0 0 0 -10.626 2.211l-37.606 52.649h-3.884a72.081 72.081 0 0 1 72-72zm-72 88v32a16 16 0 0 1 0-32zm40 117.258v34.742h-10.767a76.468 76.468 0 0 1 -21.208-25.918 75.628 75.628 0 0 1 -8.025-33.842v-44.24a79.479 79.479 0 0 0 40 69.258zm-68.421 192.952-3.579-46.519v-47.691a31.793 31.793 0 0 0 -4.305-16h12.305a39.788 39.788 0 0 0 24-8.022v53.2a70.019 70.019 0 0 0 -11.092 20.88c-5.419 13.85-11.708 29.893-17.329 44.152zm22.154-176.934a93.37 93.37 0 0 0 12.467 18.724h-46.2v-29.436l24-33.6v3.276a91.708 91.708 0 0 0 9.733 41.036zm-17.279-61.276-24.454 34.236-24.454-34.236zm-80 0-24.454 34.236-24.454-34.236zm-16.454 50.564 32-44.8 32 44.8v29.436h-64zm-54.629 45.436h173.258a24.042 24.042 0 0 1 -22.629 16h-128a24.042 24.042 0 0 1 -22.629-16zm47.642 32h62.987a16.019 16.019 0 0 1 16 16v8h-48a32.056 32.056 0 0 1 -30.987-24zm78.987 40v16h-32v-16zm-13.075 120a18.946 18.946 0 0 1 -18.925-18.925v-69.075h32.592l5.2 67.624v.029a19.135 19.135 0 0 1 -18.867 20.347zm141.175-114.881-18.066-39.19 11.855-5.929h12.222l12.424 6.212zm79.9 10.881v16h-48v-16zm-16-16h-40a7.962 7.962 0 0 0 -4.4 1.32l13.247-27.95 3.572 1.785a8.122 8.122 0 0 0 11.581-7.155v-26.442l6.423-13.558h9.577z"/><path d="m292 152a12 12 0 1 0 -12-12 12.013 12.013 0 0 0 12 12z"/><path d="m328 200a24.028 24.028 0 0 0 24-24h-16a8 8 0 0 1 -16 0h-16a24.028 24.028 0 0 0 24 24z"/></g></svg>