<?xml version="1.0" encoding="UTF-8" standalone="no"?>
<!DOCTYPE svg PUBLIC "-//W3C//DTD SVG 1.1//EN" "http://www.w3.org/Graphics/SVG/1.1/DTD/svg11.dtd">
<svg version="1.1" xmlns="http://www.w3.org/2000/svg" xmlns:xlink="http://www.w3.org/1999/xlink" preserveAspectRatio="xMidYMid meet" viewBox="0 0 1191 842" width="1191" height="842"><defs><path d="M0 -2.64L1191 -2.64L1191 278.91L0 278.91L0 -2.64Z" id="aGAgVRVBU"></path><path d="M0 212.24L595 212.24L595 352.24L0 352.24L0 212.24Z" id="k4lL5zRG4M"></path><path d="M64.25 262.41L126.75 262.41L126.75 401.99L64.25 401.99L64.25 262.41Z" id="c1e3AGP4aw"></path><path d="M168.14 262.41L230.64 262.41L230.64 401.99L168.14 401.99L168.14 262.41Z" id="d11YBJ6YZo"></path><path d="M640.92 82.66L751.33 82.66L751.33 222.24L640.92 222.24L640.92 82.66Z" id="aSTDbg5Ma"></path><path d="M792.72 33.07L903.14 33.07L903.14 172.66L792.72 172.66L792.72 33.07Z" id="b1eEWFgoyZ"></path><path d="M937.17 101.82L1047.58 101.82L1047.58 241.41L937.17 241.41L937.17 101.82Z" id="aBfNZ3hOe"></path><path d="M270.22 262.41L332.72 262.41L332.72 401.99L270.22 401.99L270.22 262.41Z" id="aFu6yrwbY"></path><path d="M374.1 262.41L436.6 262.41L436.6 401.99L374.1 401.99L374.1 262.41Z" id="a6iBsR9sM"></path><path d="M0 30.99L595 30.99L595 170.99L0 170.99L0 30.99Z" id="a3seg3HZOk"></path><path d="M0 0L595 0L595 30.96L0 30.96L0 0Z" id="b3aqbEm2mw"></path><path d="M563.92 554.5L1191 554.5L1191 842L563.92 842L563.92 554.5Z" id="a2bCfeVYk2"></path><path d="M937.17 362.24L1076.75 362.24L1076.75 554.5L937.17 554.5L937.17 362.24Z" id="bq1n5PEVQ"></path><path d="M687.88 -1.17L1191 -1.17L1191 101.82L687.88 101.82L687.88 -1.17Z" id="b6Kq7d73c"></path><path d="M1088.01 101.82L1191 101.82L1191 842L1088.01 842L1088.01 101.82Z" id="bogijzRpn"></path><path d="M563.92 739.01L1191 739.01L1191 842L563.92 842L563.92 739.01Z" id="e4ncWrVFNG"></path><path d="M0 739.01L563.92 739.01L563.92 842L0 842L0 739.01Z" id="gxd12iW6Q"></path></defs><g><g><g><use xlink:href="#aGAgVRVBU" opacity="1" fill="#67deb7" fill-opacity="1"></use></g><g><use xlink:href="#k4lL5zRG4M" opacity="1" fill="#506ae7" fill-opacity="1"></use></g><g><use xlink:href="#c1e3AGP4aw" opacity="1" fill="#c35239" fill-opacity="1"></use></g><g><use xlink:href="#d11YBJ6YZo" opacity="1" fill="#c35239" fill-opacity="1"></use></g><g><use xlink:href="#aSTDbg5Ma" opacity="1" fill="#f3ff03" fill-opacity="1"></use></g><g><use xlink:href="#b1eEWFgoyZ" opacity="1" fill="#f3ff03" fill-opacity="1"></use></g><g><use xlink:href="#aBfNZ3hOe" opacity="1" fill="#f3ff03" fill-opacity="1"></use></g><g><use xlink:href="#aFu6yrwbY" opacity="1" fill="#c35239" fill-opacity="1"></use></g><g><use xlink:href="#a6iBsR9sM" opacity="1" fill="#c35239" fill-opacity="1"></use></g><g><use xlink:href="#a3seg3HZOk" opacity="1" fill="#bc25b3" fill-opacity="1"></use></g><g><use xlink:href="#b3aqbEm2mw" opacity="1" fill="#2d3879" fill-opacity="1"></use></g><g><use xlink:href="#a2bCfeVYk2" opacity="1" fill="#662078" fill-opacity="1"></use></g><g><use xlink:href="#bq1n5PEVQ" opacity="1" fill="#c61f1d" fill-opacity="1"></use></g><g><use xlink:href="#b6Kq7d73c" opacity="1" fill="#f54207" fill-opacity="1"></use></g><g><use xlink:href="#bogijzRpn" opacity="1" fill="#f54207" fill-opacity="1"></use></g><g><use xlink:href="#e4ncWrVFNG" opacity="1" fill="#f54207" fill-opacity="1"></use></g><g><use xlink:href="#gxd12iW6Q" opacity="1" fill="#e881ec" fill-opacity="1"></use></g></g></g></svg>