<?xml version="1.0" encoding="UTF-8" standalone="no"?>
<!DOCTYPE svg PUBLIC "-//W3C//DTD SVG 1.1//EN" "http://www.w3.org/Graphics/SVG/1.1/DTD/svg11.dtd">
<svg version="1.1" xmlns="http://www.w3.org/2000/svg" xmlns:xlink="http://www.w3.org/1999/xlink" preserveAspectRatio="xMidYMid meet" viewBox="0 0 62 140" width="62" height="140"><defs><path d="M23.2 62.04L39.44 62.04L39.44 70L23.2 70L23.2 62.04Z" id="i3vYLzS3ra"></path><path d="M42.78 135.94L31.08 123.84L18.58 135.94L42.78 135.94Z" id="a9gRxMBn9"></path><path d="M34.1 119.68L34.1 74.99L40.9 74.99L46.28 80.37L54.84 80.37L54.84 74.67L48.64 74.67L44.93 70.96L44.93 62.7C49.49 62.7 52.02 62.7 52.53 62.7C58.03 62.7 62.5 58.22 62.5 52.73C62.5 47.23 58.03 42.75 52.53 42.75C48.27 42.75 14.23 42.75 9.97 42.75C4.47 42.75 0 47.23 0 52.73C0 58.22 4.47 62.7 9.97 62.7C10.48 62.7 13.01 62.7 17.57 62.7L17.57 74.99L28.4 74.99L28.4 119.68C25.23 123.13 23.47 125.04 23.12 125.43C17.94 131.07 10.58 134.3 2.92 134.3C2.92 134.68 2.92 136.58 2.92 140L59.58 140C59.58 136.58 59.58 134.68 59.58 134.3C51.92 134.3 44.56 131.07 39.38 125.43C38.68 124.66 36.92 122.74 34.1 119.68ZM9.97 48.45C14.23 48.45 48.27 48.45 52.53 48.45C54.88 48.45 56.8 50.37 56.8 52.73C56.8 55.08 54.88 57 52.53 57C48.27 57 14.23 57 9.97 57C7.62 57 5.7 55.08 5.7 52.73C5.7 50.37 7.62 48.45 9.97 48.45ZM23.27 62.7L39.23 62.7L39.23 69.29L23.27 69.29L23.27 62.7ZM27.32 129.28C27.58 129 28.89 127.57 31.25 125C33.61 127.57 34.92 129 35.18 129.28C36.94 131.19 38.9 132.87 41.01 134.3C39.71 134.3 33.2 134.3 21.49 134.3C24.2 132.23 26.15 130.55 27.32 129.28Z" id="a1gWA02bu"></path><mask id="maskck4Avr80T" x="-40" y="2.75" width="142.5" height="177.25" maskUnits="userSpaceOnUse"><rect x="-40" y="2.75" width="142.5" height="177.25" fill="white"></rect><use xlink:href="#a1gWA02bu" opacity="1" fill="black"></use></mask><path d="M52.92 48.41C55.06 48.41 56.8 50.14 56.8 52.28C56.8 53.29 56.8 52.44 56.8 53.45C56.8 55.59 55.06 57.32 52.92 57.32C43.44 57.32 18.88 57.32 9.4 57.32C7.26 57.32 5.52 55.59 5.52 53.45C5.52 52.44 5.52 53.29 5.52 52.28C5.52 50.14 7.26 48.41 9.4 48.41C18.88 48.41 43.44 48.41 52.92 48.41Z" id="b48wWH6md9"></path></defs><g><g><g><use xlink:href="#i3vYLzS3ra" opacity="1" fill="#471010" fill-opacity="1"></use></g><g><use xlink:href="#a9gRxMBn9" opacity="1" fill="#505050" fill-opacity="1"></use><g><use xlink:href="#a9gRxMBn9" opacity="1" fill-opacity="0" stroke="#000000" stroke-width="20" stroke-opacity="0"></use></g></g><g><use xlink:href="#a1gWA02bu" opacity="1" fill="#000000" fill-opacity="1"></use><g mask="url(#maskck4Avr80T)"><use xlink:href="#a1gWA02bu" opacity="1" fill-opacity="0" stroke="#000000" stroke-width="40" stroke-opacity="0"></use></g></g><g><use xlink:href="#b48wWH6md9" opacity="1" fill="#471010" fill-opacity="1"></use></g></g></g></svg>