<?xml version="1.0" encoding="iso-8859-1"?>
<!-- Generator: Adobe Illustrator 19.0.0, SVG Export Plug-In . SVG Version: 6.00 Build 0)  -->
<svg version="1.1" id="Capa_1" xmlns="http://www.w3.org/2000/svg" xmlns:xlink="http://www.w3.org/1999/xlink" x="0px" y="0px"
	 viewBox="0 0 504.025 504.025" style="enable-background:new 0 0 504.025 504.025;" xml:space="preserve">
<g transform="translate(-1 -1)">
	<g transform="translate(1 2)">
		<path style="fill:#A4C2F7;" d="M486.951,259.396c-0.017,46.067-13.527,91.12-38.862,129.595
			c-43.524,65.861-117.212,105.464-196.155,105.422c-4.113,0-8.226-0.084-12.338-0.336h-0.252
			c-42.736-2.252-84.04-16.155-119.439-40.205c-30.686-20.996-56.038-48.877-74.03-81.416c-2.938-5.204-5.54-10.492-7.89-15.78
			c-4.856-10.492-8.87-21.354-12.003-32.483c-3.126-10.601-5.399-21.435-6.799-32.399c-1.521-10.732-2.278-21.559-2.266-32.399
			c-0.026-33.561,7.158-66.737,21.068-97.28c5.028-11.288,11.009-22.127,17.878-32.399C96.888,67.699,164.844,28.755,239.093,24.715
			h0.923c3.861-0.252,7.974-0.336,11.919-0.336c62.335-0.017,122.123,24.738,166.201,68.816S486.968,197.06,486.951,259.396z"/>
		<g>
			<path style="fill:#E3E7F2;" d="M461.771,259.396c-0.017,46.067-13.527,91.12-38.862,129.595
				c-19.788,29.861-46.108,54.832-76.968,73.023c-32.359,19.072-68.836,30.07-106.345,32.063h-0.252
				c-42.736-2.252-84.04-16.155-119.439-40.205c-30.686-20.996-56.038-48.877-74.03-81.416c-2.938-5.204-5.54-10.492-7.89-15.78
				c-4.856-10.492-8.87-21.354-12.003-32.483c-3.126-10.601-5.399-21.435-6.799-32.399c-1.521-10.732-2.278-21.559-2.266-32.399
				c-0.026-33.561,7.158-66.737,21.068-97.28c5.028-11.288,11.009-22.127,17.878-32.399
				C96.888,67.699,164.844,28.755,239.093,24.715h0.168C364.044,31.309,461.825,134.439,461.771,259.396z"/>
			<path style="fill:#E3E7F2;" d="M456.063,477.206c-21.384,15.034-48.053,20.508-73.63,15.113
				c-25.577-5.396-47.763-21.175-61.252-43.566L100.433,82.966L88.179,62.654c-5.265-9.155-16.312-13.249-26.271-9.736
				c-5.739,2.305-10.179,7.01-12.149,12.872c-1.97,5.862-1.272,12.293,1.909,17.597l17.794,31.643l11.583,20.564
				c5.934,9.961,2.799,22.839-7.05,28.957l-17.962,10.911l-11.919-20.9l-25.432-44.569C-0.504,79.261,7.763,38.886,37.482,18.168
				C51.459,9.123,68.342,5.705,84.737,8.6c15.752,2.811,29.916,11.327,39.785,23.921l15.696,22.746l29.377,42.555l29.965,43.31
				l29.881,43.394l29.965,43.31l113.731,164.679c3.188,5.291,8.55,8.905,14.651,9.876c6.101,0.971,12.319-0.8,16.993-4.84
				c7.767-7.245,9.25-19.004,3.525-27.95l-73.862-122.376c-11.312-18.723-13.77-41.489-6.715-62.195l8.561-24.929l102.904,39.953
				l-11.835,12.842c-10.153,10.324-12.019,26.216-4.532,38.61l51.368,85.11l6.715,11.163
				C507.627,390.802,496.814,447.134,456.063,477.206z"/>
		</g>
		<path style="fill:#A4C2F7;" d="M485.692,195.438c-1.182,3.152-3.181,5.932-5.791,8.058v0.084
			c-6.282,5.143-14.853,6.492-22.41,3.525l-18.298-7.05l-102.904-39.953l-20.228-7.806c-2.911-1.094-5.547-2.813-7.722-5.036
			c-6.382-5.795-8.48-14.95-5.259-22.946s11.08-13.14,19.696-12.894c2.873,0,5.721,0.541,8.393,1.595l124.727,48.262l10.995,4.281
			l5.708,2.182C483.836,171.801,489.686,184.175,485.692,195.438z"/>
		<path style="fill:#E3E7F2;" d="M461.183,183.939c-1.183,3.152-3.181,5.932-5.791,8.058v0.084
			c-6.282,5.144-14.853,6.492-22.411,3.525l-18.298-7.05L311.78,148.602l-3.441-1.343c-6.382-5.795-8.48-14.95-5.259-22.946
			s11.08-13.14,19.696-12.894c2.873,0,5.721,0.541,8.393,1.595l124.727,48.262C462.067,167.073,464.152,176.01,461.183,183.939z"/>
		<path style="fill:#A4C2F7;" d="M456.063,477.206c-20.613,14.529-46.192,20.183-71.009,15.696
			c13.465-2.468,26.236-7.822,37.435-15.696c40.751-30.072,51.564-86.404,24.845-129.427l-6.715-11.163l-51.368-85.11
			c-7.486-12.394-5.621-28.286,4.532-38.61l11.835-12.842L332.344,171.6l3.945-11.499l102.904,39.953l-11.835,12.842
			c-10.153,10.324-12.019,26.216-4.532,38.61l51.368,85.11l6.715,11.163C507.627,390.802,496.814,447.134,456.063,477.206z"/>
		<g>
			<path style="fill:#FFFFFF;" d="M42.847,152.344c-1.645,3.242-3.377,6.432-4.861,9.772c-13.909,30.543-21.094,63.719-21.068,97.28
				c-0.012,10.84,0.745,21.666,2.266,32.399c1.4,10.963,3.673,21.797,6.799,32.399c3.133,11.129,7.147,21.991,12.003,32.483
				c2.35,5.288,4.952,10.576,7.89,15.78c17.992,32.539,43.344,60.42,74.03,81.416c35.398,24.049,76.703,37.953,119.439,40.205h0.252
				c4.113,0.252,8.226,0.336,12.338,0.336c4.215,0,8.403-0.113,12.564-0.338c-42.726-2.256-84.021-16.159-119.413-40.202
				c-30.686-20.996-56.038-48.877-74.03-81.416c-2.938-5.204-5.54-10.492-7.89-15.78c-4.856-10.492-8.87-21.354-12.003-32.483
				c-3.126-10.601-5.399-21.435-6.799-32.399c-1.521-10.732-2.278-21.559-2.266-32.399c-0.026-33.561,7.158-66.737,21.068-97.28
				c1.484-3.34,3.216-6.53,4.861-9.772l-24.166-42.351C24.676,79.261,32.943,38.886,62.663,18.168
				c7.034-4.559,14.876-7.728,23.102-9.336C85.42,8.765,85.083,8.662,84.737,8.6c-16.395-2.895-33.278,0.524-47.255,9.569
				C7.763,38.886-0.504,79.261,18.681,109.993L42.847,152.344z"/>
			<path style="fill:#FFFFFF;" d="M240.016,24.715h-0.923c-28.066,1.527-55.624,8.125-81.34,19.473l6.349,9.201
				c30.491-16.799,64.353-26.566,99.107-28.586c-3.749-0.178-7.481-0.424-11.275-0.424C247.99,24.379,243.877,24.463,240.016,24.715
				z"/>
		</g>
	</g>
	<g>
		<path style="fill:#FFFFFF;" d="M24.034,339.611c-11.993-35.889-15.471-74.075-10.161-111.54
			c3.704-26.25,11.734-51.704,23.765-75.326l14.951,7.634c-11.185,21.965-18.651,45.633-22.094,70.04
			c-4.945,34.88-1.708,70.432,9.452,103.845L24.034,339.611z"/>
		<g>
			<path style="fill:#428DFF;" d="M17.252,279.036c0.491,0.211,1.012,0.345,1.544,0.397c0.56,0.055,1.122,0.071,1.684,0.048
				c2.202-0.195,4.256-1.19,5.774-2.797c0.711-0.818,1.261-1.761,1.623-2.782c1.097-3.089,0.301-6.534-2.041-8.828
				c-0.816-0.734-1.76-1.312-2.784-1.706c-1.015-0.422-2.101-0.645-3.199-0.658c-2.229,0.031-4.357,0.93-5.934,2.505
				c-3.223,3.502-3.027,8.946,0.44,12.207l1.329,0.948C16.176,278.662,16.702,278.886,17.252,279.036z"/>
			<path style="fill:#428DFF;" d="M484.298,337.46c13.794-41.798,15.784-86.592,5.75-129.448c1.889-2.273,3.41-4.827,4.509-7.571
				c5.618-15.579-2.387-32.772-17.926-38.5l-2.647-1.025c-27.511-59.927-78.291-106.029-140.59-127.639
				s-130.72-16.855-189.431,13.164l-11.799-17.091C108.526-0.684,65.868-7.703,33.853,13.175
				c-33.364,23.192-42.784,68.416-21.455,103l23.297,40.806c-10.926,22.418-18.289,46.403-21.823,71.09
				c-0.395,2.871-0.788,5.743-1.056,8.629c-0.265,2.245,0.399,4.501,1.837,6.244c1.438,1.744,3.527,2.825,5.781,2.992
				c4.532,0.307,8.516-2.978,9.077-7.486c0.248-2.687,0.616-5.359,0.983-8.032c2.727-19.093,7.915-37.753,15.434-55.514l3.835,6.717
				c1.124,1.969,2.997,3.4,5.192,3.967c2.196,0.567,4.527,0.221,6.464-0.959l17.93-10.914c13.781-8.401,18.244-26.322,10.012-40.205
				l-8.688-15.443c5.871-7.041,12.194-13.692,18.929-19.911l215.419,356.94c4.342,7.115,9.537,13.672,15.469,19.527
				c-57.113,20.605-120.119,17.332-174.79-9.079s-96.398-73.733-115.757-131.28l0.004-0.001
				c-3.425-10.234-6.116-20.699-8.052-31.315c-0.891-4.458-5.116-7.439-9.614-6.782c-2.233,0.34-4.232,1.576-5.534,3.422
				c-1.302,1.846-1.796,4.143-1.368,6.361c2.081,11.411,4.974,22.659,8.655,33.658v0l0.001,0.001v0.001
				c21.313,63.441,67.908,115.247,128.744,143.14s130.497,29.392,192.476,4.14c11.029,7.565,23.432,12.898,36.51,15.698
				c7.042,1.492,14.22,2.246,21.418,2.25c21.037-0.027,41.549-6.573,58.713-18.738c44.483-32.56,56.341-93.909,27.197-140.701
				L484.298,337.46z M431,249.146c-5.552-9.193-4.1-20.99,3.516-28.561l8.031-8.698l12.92,5.006
				c3.637,1.417,7.506,2.148,11.41,2.156c2.758-0.046,5.497-0.468,8.141-1.254c6.78,33.186,5.957,67.476-2.408,100.298L431,249.146z
				 M478.885,194.416v0.004c-1.166,2.991-3.484,5.389-6.434,6.656c-3.471,1.511-7.404,1.569-10.918,0.159l-18.214-7.057
				c-0.12-0.047-0.233-0.097-0.356-0.138l-122.828-47.588c-6.919-2.374-10.635-9.878-8.328-16.82c1.167-2.991,3.485-5.39,6.434-6.66
				c1.759-0.778,3.662-1.179,5.586-1.176c1.826,0.007,3.635,0.351,5.336,1.016l141.402,54.783
				C477.483,179.972,481.196,187.477,478.885,194.416z M253.857,36.703c81.521,0.056,156.68,44.054,196.637,115.111l-115.268-44.656
				c-7.673-3.027-16.239-2.858-23.787,0.471c-7.033,3.067-12.545,8.824-15.303,15.984c-5.613,15.58,2.395,32.77,17.934,38.496
				l12.659,4.905l-5.905,17.247c-7.94,23.039-5.231,48.415,7.393,69.258l73.906,122.459c3.609,5.426,2.838,12.655-1.836,17.197
				c-2.776,2.474-6.524,3.558-10.193,2.947c-3.828-0.638-7.167-2.965-9.09-6.336L272.34,232.39l2.873-1.748
				c2.575-1.553,4.123-4.365,4.057-7.371c-0.066-3.006-1.735-5.748-4.375-7.187c-2.64-1.439-5.849-1.356-8.411,0.218l-3.697,2.251
				l-20.371-29.507l5.625-3.425c2.575-1.553,4.123-4.365,4.057-7.371c-0.066-3.006-1.735-5.748-4.375-7.187
				c-2.64-1.439-5.849-1.356-8.411,0.218l-6.45,3.926L212.49,145.7l8.383-5.103c3.933-2.421,5.171-7.566,2.768-11.511
				c-2.402-3.945-7.541-5.208-11.498-2.825l-9.205,5.603l-20.373-29.509l11.136-6.779c2.577-1.552,4.126-4.364,4.061-7.372
				c-0.065-3.007-1.735-5.75-4.377-7.188c-2.642-1.439-5.852-1.353-8.413,0.224l-11.958,7.279l-19.437-28.152
				C184.725,44.833,219.05,36.733,253.857,36.703z M71.809,102.312L59.861,81.076c-1.929-3.209-2.344-7.105-1.135-10.648
				c1.164-3.533,3.843-6.363,7.307-7.717c6.143-2.012,12.848,0.627,15.971,6.287l8.646,14.326
				C84.004,89.28,77.713,95.62,71.809,102.312z M452.254,472.355c-19.473,13.716-43.775,18.714-67.08,13.796
				c-23.306-4.919-43.515-19.31-55.785-39.726L96.373,60.326c-7.399-12.639-22.764-18.197-36.537-13.217
				c-8.002,3.195-14.209,9.726-16.993,17.88c-2.784,8.154-1.866,17.117,2.512,24.538L63.11,121.08l0.008,0.014l11.742,20.871
				c3.61,5.984,1.716,13.76-4.242,17.414l-10.557,6.426l-33.189-58.127c-16.839-26.85-9.744-62.18,16.156-80.446
				c24.561-16.006,57.256-10.792,75.619,12.061l40.016,57.96l-0.59,0.359c-2.577,1.552-4.126,4.364-4.061,7.372
				c0.065,3.007,1.735,5.75,4.377,7.188c2.642,1.439,5.852,1.353,8.413-0.224l1.412-0.86l20.373,29.509l-3.343,2.035
				c-2.577,1.552-4.126,4.364-4.061,7.372c0.065,3.007,1.735,5.75,4.377,7.188c2.642,1.439,5.852,1.353,8.413-0.224l4.166-2.536
				l20.373,29.508l-6.099,3.713c-3.934,2.422-5.171,7.567-2.769,11.513c2.402,3.946,7.541,5.209,11.499,2.827l6.925-4.215
				l20.371,29.506l-8.853,5.389c-3.934,2.422-5.171,7.567-2.769,11.513c2.402,3.946,7.541,5.209,11.499,2.827l9.678-5.891
				l108.921,157.764c4.471,7.405,11.983,12.46,20.527,13.811c8.544,1.352,17.249-1.136,23.788-6.799
				c10.847-9.904,13.064-26.145,5.27-38.594l-73.91-122.459c-10.051-16.594-12.207-36.797-5.885-55.139l5.692-16.623l83.329,32.285
				l-3.341,3.618c-12.887,13.032-15.262,33.158-5.762,48.832l58.09,96.254C499.325,393.303,489.533,444.875,452.254,472.355z"/>
			<path style="fill:#428DFF;" d="M452.885,386.047c-2.211,0.271-4.223,1.41-5.593,3.166c-1.37,1.756-1.985,3.985-1.711,6.195
				c2.371,16.23-4.258,32.468-17.311,42.402c-0.836,0.582-1.68,1.139-2.549,1.672c-15.756,9.57-35.805,8.308-50.238-3.16
				c-2.34-1.885-5.51-2.375-8.31-1.285c-2.8,1.09-4.805,3.594-5.255,6.565c-0.45,2.971,0.722,5.956,3.073,7.827
				c7.388,5.921,16.073,10.009,25.344,11.93c15.121,3.223,30.903,0.529,44.098-7.529c1.156-0.701,2.295-1.455,3.451-2.258
				c18.266-13.405,27.634-35.803,24.352-58.221C461.644,388.768,457.476,385.513,452.885,386.047z"/>
		</g>
	</g>
</g>
<g>
</g>
<g>
</g>
<g>
</g>
<g>
</g>
<g>
</g>
<g>
</g>
<g>
</g>
<g>
</g>
<g>
</g>
<g>
</g>
<g>
</g>
<g>
</g>
<g>
</g>
<g>
</g>
<g>
</g>
</svg>
