<?xml version="1.0" encoding="UTF-8" standalone="no"?>
<!DOCTYPE svg PUBLIC "-//W3C//DTD SVG 1.1//EN" "http://www.w3.org/Graphics/SVG/1.1/DTD/svg11.dtd">
<svg version="1.1" xmlns="http://www.w3.org/2000/svg" xmlns:xlink="http://www.w3.org/1999/xlink" preserveAspectRatio="xMidYMid meet" viewBox="0 0 240 302.4" width="240" height="302.4"><defs><path d="M440 -87.8C440 -87.8 440 -87.8 440 -87.8C440 200.2 440 360.2 440 392.2C440 392.2 440 392.2 440 392.2C56 392.2 -157.33 392.2 -200 392.2C-200 392.2 -200 392.2 -200 392.2C-200 104.2 -200 -55.8 -200 -87.8C-200 -87.8 -200 -87.8 -200 -87.8C184 -87.8 397.33 -87.8 440 -87.8Z" id="a13Cni9y7a"></path><path d="M120 149C118.23 149 116.8 150.43 116.8 152.2C116.8 153.97 118.23 155.4 120 155.4C121.77 155.4 123.2 153.97 123.2 152.2C123.2 150.43 121.77 149 120 149Z" id="d3my1pwTh"></path><path d="M127.72 145.72C124.14 141.46 117.79 140.9 113.52 144.48C109.26 148.06 108.7 154.41 112.28 158.68C115.86 162.94 122.21 163.5 126.48 159.92C130.74 156.34 131.3 149.99 127.72 145.72Z" id="eYgU9PpjZ"></path><path d="M139.85 155.7C141.79 144.74 134.47 134.28 123.5 132.35C112.54 130.41 102.08 137.73 100.15 148.7C98.21 159.66 105.53 170.12 116.5 172.05C127.46 173.99 137.92 166.67 139.85 155.7Z" id="a1EOhDvvcs"></path><path d="M135.12 178.39C149.58 170.04 154.54 151.54 146.19 137.08C137.84 122.62 119.34 117.66 104.88 126.01C90.42 134.36 85.46 152.86 93.81 167.32C102.16 181.78 120.66 186.74 135.12 178.39Z" id="a44rmG4jMz"></path><path d="M106.21 190.09C127.13 197.7 150.27 186.92 157.89 165.99C165.5 145.07 154.72 121.93 133.79 114.31C112.87 106.7 89.73 117.48 82.11 138.41C74.5 159.33 85.28 182.47 106.21 190.09Z" id="n1AK4FNPD"></path><path d="M120 51.4C64.33 51.4 19.2 96.53 19.2 152.2C19.2 207.87 64.33 253 120 253C175.67 253 220.8 207.87 220.8 152.2C220.8 96.53 175.67 51.4 120 51.4Z" id="bdp20SmKg"></path><path d="M240.96 152.2C240.96 85.4 186.8 31.24 120 31.24C53.2 31.24 -0.96 85.4 -0.96 152.2C-0.96 219 53.2 273.16 120 273.16C186.8 273.16 240.96 219 240.96 152.2Z" id="cLrSetJ0g"></path><path d="M242.21 81.64C203.24 14.14 116.94 -8.98 49.44 29.99C-18.06 68.96 -41.18 155.26 -2.21 222.76C36.76 290.26 123.06 313.38 190.56 274.41C258.06 235.44 281.18 149.14 242.21 81.64Z" id="cVpsgfJHu"></path><path d="M259.67 232.84C304.21 155.7 277.78 57.06 200.64 12.53C123.5 -32.01 24.86 -5.58 -19.67 71.56C-64.21 148.7 -37.78 247.34 39.36 291.87C116.5 336.41 215.14 309.98 259.67 232.84Z" id="b8U28TUK5i"></path><path d="M210.72 -4.93C123.94 -55.03 12.97 -25.3 -37.13 61.48C-87.23 148.26 -57.5 259.23 29.28 309.33C116.06 359.43 227.03 329.7 277.13 242.92C327.23 156.14 297.5 45.17 210.72 -4.93Z" id="c1yNvYmfVt"></path><path d="M157.92 48.01C100.38 27.06 36.75 56.73 15.81 114.28C-5.14 171.82 24.53 235.45 82.08 256.39C139.62 277.34 203.25 247.67 224.19 190.12C245.14 132.58 215.47 68.95 157.92 48.01Z" id="ddiNAx5Dk"></path><path d="M35.77 51.82C-19.67 98.34 -26.9 180.99 19.62 236.43C66.14 291.87 148.79 299.1 204.23 252.58C259.67 206.06 266.9 123.41 220.38 67.97C173.86 12.53 91.21 5.3 35.77 51.82Z" id="aL4eD80HY"></path><path d="M250.94 76.6C209.19 4.28 116.72 -20.5 44.4 21.26C-27.92 63.01 -52.7 155.48 -10.94 227.8C30.81 300.12 123.28 324.9 195.6 283.14C267.92 241.39 292.7 148.92 250.94 76.6Z" id="a4aP10p5V1"></path><path d="M-48.76 122.44C-65.19 215.65 -2.96 304.52 90.24 320.96C183.45 337.39 272.32 275.16 288.76 181.96C305.19 88.75 242.96 -0.12 149.76 -16.56C56.55 -32.99 -32.32 29.24 -48.76 122.44Z" id="baL5atVL7"></path><path d="M308.61 185.46C326.98 81.29 257.42 -18.04 153.26 -36.41C49.09 -54.78 -50.24 14.78 -68.61 118.94C-86.98 223.11 -17.42 322.44 86.74 340.81C190.91 359.18 290.24 289.62 308.61 185.46Z" id="f2r21JSrDB"></path><path d="M294.59 51.4C238.92 -45.02 115.62 -78.06 19.2 -22.39C-77.22 33.28 -110.26 156.58 -54.59 253C1.08 349.42 124.38 382.46 220.8 326.79C317.22 271.12 350.26 147.82 294.59 51.4Z" id="e3BtUZdYSZ"></path><path d="M303.32 258.04C361.77 156.8 327.08 27.33 225.84 -31.12C124.6 -89.57 -4.87 -54.88 -63.32 46.36C-121.77 147.6 -87.08 277.07 14.16 335.52C115.4 393.97 244.87 359.28 303.32 258.04Z" id="b1JgcaxCEs"></path><path d="M120 384.04C248.04 384.04 351.84 280.24 351.84 152.2C351.84 24.16 248.04 -79.64 120 -79.64C-8.04 -79.64 -111.84 24.16 -111.84 152.2C-111.84 280.24 -8.04 384.04 120 384.04Z" id="aynnxcn1n"></path><path d="M-89.51 273.16C-22.7 388.87 125.25 428.51 240.96 361.71C356.67 294.9 396.31 146.95 329.51 31.24C262.7 -84.47 114.75 -124.11 -0.96 -57.31C-116.67 9.5 -156.31 157.45 -89.51 273.16Z" id="c20pnwfpcU"></path><path d="M-98.24 26.2C-167.83 146.73 -126.53 300.85 -6 370.44C114.53 440.03 268.65 398.73 338.24 278.2C407.83 157.67 366.53 3.55 246 -66.04C125.47 -135.63 -28.65 -94.33 -98.24 26.2Z" id="bCOzhGgUb"></path><path d="M44.15 360.59C159.24 402.48 286.5 343.13 328.39 228.05C370.28 112.96 310.93 -14.3 195.85 -56.19C80.76 -98.08 -46.5 -38.73 -88.39 76.35C-130.28 191.44 -70.93 318.7 44.15 360.59Z" id="a2WGg6g2Wh"></path><path d="M288.46 352.96C399.34 259.93 413.8 94.62 320.76 -16.26C227.73 -127.14 62.42 -141.6 -48.46 -48.56C-159.34 44.47 -173.8 209.78 -80.76 320.66C12.27 431.54 177.58 446 288.46 352.96Z" id="c1vKF0GcK2"></path><path d="M-141.89 303.4C-58.38 448.04 126.56 497.59 271.2 414.09C415.84 330.58 465.39 145.64 381.89 1C298.38 -143.64 113.44 -193.19 -31.2 -109.69C-175.84 -26.18 -225.39 158.76 -141.89 303.4Z" id="cewM5sHoz"></path><path d="M457.51 211.71C490.38 25.31 365.92 -152.45 179.51 -185.31C-6.89 -218.18 -184.65 -93.72 -217.51 92.69C-250.38 279.09 -125.92 456.85 60.49 489.71C246.89 522.58 424.65 398.12 457.51 211.71Z" id="b2xWJ1SwM2"></path><path d="M-257.22 85.69C-293.96 294.02 -154.85 492.69 53.49 529.42C261.82 566.16 460.49 427.05 497.22 218.71C533.96 10.38 394.85 -188.29 186.51 -225.02C-21.82 -261.76 -220.49 -122.65 -257.22 85.69Z" id="b96oPXrek"></path><path d="M120 -119.96C-30.31 -119.96 -152.16 1.89 -152.16 152.2C-152.16 302.51 -30.31 424.36 120 424.36C270.31 424.36 392.16 302.51 392.16 152.2C392.16 1.89 270.31 -119.96 120 -119.96Z" id="bUqpFtGsM"></path><path d="M319.57 -47.37C209.35 -157.6 30.65 -157.6 -79.57 -47.37C-189.8 62.85 -189.8 241.55 -79.57 351.77C30.65 462 209.35 462 319.57 351.77C429.8 241.55 429.8 62.85 319.57 -47.37Z" id="bZoiXoNxi"></path><path d="M412.32 152.2C412.32 -9.24 281.44 -140.12 120 -140.12C-41.44 -140.12 -172.32 -9.24 -172.32 152.2C-172.32 313.64 -41.44 444.52 120 444.52C281.44 444.52 412.32 313.64 412.32 152.2Z" id="cbB2YegZtX"></path><path d="M340.96 373.16C462.99 251.13 462.99 53.27 340.96 -68.76C218.93 -190.79 21.07 -190.79 -100.96 -68.76C-222.99 53.27 -222.99 251.13 -100.96 373.16C21.07 495.19 218.93 495.19 340.96 373.16Z" id="aCZenLBiQ"></path><path d="M120 474.76C298.14 474.76 442.56 330.34 442.56 152.2C442.56 -25.94 298.14 -170.36 120 -170.36C-58.14 -170.36 -202.56 -25.94 -202.56 152.2C-202.56 330.34 -58.14 474.76 120 474.76Z" id="e2SfTP8G8r"></path><path d="M-115.21 387.41C14.69 517.32 225.31 517.32 355.21 387.41C485.12 257.51 485.12 46.89 355.21 -83.01C225.31 -212.92 14.69 -212.92 -115.21 -83.01C-245.12 46.89 -245.12 257.51 -115.21 387.41Z" id="e2tTByZkfz"></path><path d="M-232.8 152.2C-232.8 347.05 -74.85 505 120 505C314.85 505 472.8 347.05 472.8 152.2C472.8 -42.65 314.85 -200.6 120 -200.6C-74.85 -200.6 -232.8 -42.65 -232.8 152.2Z" id="c1UzCmVNp2"></path><path d="M-136.59 -104.39C-278.31 37.32 -278.31 267.08 -136.59 408.79C5.12 550.51 234.88 550.51 376.59 408.79C518.31 267.08 518.31 37.32 376.59 -104.39C234.88 -246.11 5.12 -246.11 -136.59 -104.39Z" id="b1GIwgVdjm"></path><path d="M120 -220.76C-85.98 -220.76 -252.96 -53.78 -252.96 152.2C-252.96 358.18 -85.98 525.16 120 525.16C325.98 525.16 492.96 358.18 492.96 152.2C492.96 -53.78 325.98 -220.76 120 -220.76Z" id="aqJ70SRJL"></path><path d="M499.72 50.45C443.53 -159.26 227.97 -283.72 18.25 -227.52C-191.46 -171.33 -315.92 44.23 -259.72 253.95C-203.53 463.66 12.03 588.12 221.75 531.92C431.46 475.73 555.92 260.17 499.72 50.45Z" id="d2NuD0dv"></path></defs><g><g><g><use xlink:href="#a13Cni9y7a" opacity="1" fill="#000000" fill-opacity="1"></use><g><use xlink:href="#a13Cni9y7a" opacity="1" fill-opacity="0" stroke="#000000" stroke-width="1" stroke-opacity="0"></use></g></g><g><use xlink:href="#d3my1pwTh" opacity="1" fill="#dd6600" fill-opacity="1"></use><g><use xlink:href="#d3my1pwTh" opacity="1" fill-opacity="0" stroke="#000000" stroke-width="1" stroke-opacity="0"></use></g></g><g><use xlink:href="#eYgU9PpjZ" opacity="1" fill="#000000" fill-opacity="0"></use><g><use xlink:href="#eYgU9PpjZ" opacity="1" fill-opacity="0" stroke="#dd6600" stroke-width="5" stroke-opacity="1"></use></g></g><g><use xlink:href="#a1EOhDvvcs" opacity="1" fill="#000000" fill-opacity="0"></use><g><use xlink:href="#a1EOhDvvcs" opacity="1" fill-opacity="0" stroke="#dd6600" stroke-width="5" stroke-opacity="1"></use></g></g><g><use xlink:href="#a44rmG4jMz" opacity="1" fill="#000000" fill-opacity="0"></use><g><use xlink:href="#a44rmG4jMz" opacity="1" fill-opacity="0" stroke="#dd6600" stroke-width="5" stroke-opacity="1"></use></g></g><g><use xlink:href="#n1AK4FNPD" opacity="1" fill="#000000" fill-opacity="0"></use><g><use xlink:href="#n1AK4FNPD" opacity="1" fill-opacity="0" stroke="#dd6600" stroke-width="5" stroke-opacity="1"></use></g></g><g><use xlink:href="#bdp20SmKg" opacity="1" fill="#000000" fill-opacity="0"></use><g><use xlink:href="#bdp20SmKg" opacity="1" fill-opacity="0" stroke="#dd6600" stroke-width="5" stroke-opacity="1"></use></g></g><g><use xlink:href="#cLrSetJ0g" opacity="1" fill="#000000" fill-opacity="0"></use><g><use xlink:href="#cLrSetJ0g" opacity="1" fill-opacity="0" stroke="#dd6600" stroke-width="5" stroke-opacity="1"></use></g></g><g><use xlink:href="#cVpsgfJHu" opacity="1" fill="#000000" fill-opacity="0"></use><g><use xlink:href="#cVpsgfJHu" opacity="1" fill-opacity="0" stroke="#dd6600" stroke-width="5" stroke-opacity="1"></use></g></g><g><use xlink:href="#b8U28TUK5i" opacity="1" fill="#000000" fill-opacity="0"></use><g><use xlink:href="#b8U28TUK5i" opacity="1" fill-opacity="0" stroke="#dd6600" stroke-width="5" stroke-opacity="1"></use></g></g><g><use xlink:href="#c1yNvYmfVt" opacity="1" fill="#000000" fill-opacity="0"></use><g><use xlink:href="#c1yNvYmfVt" opacity="1" fill-opacity="0" stroke="#dd6600" stroke-width="5" stroke-opacity="1"></use></g></g><g><use xlink:href="#ddiNAx5Dk" opacity="1" fill="#000000" fill-opacity="0"></use><g><use xlink:href="#ddiNAx5Dk" opacity="1" fill-opacity="0" stroke="#dd6600" stroke-width="5" stroke-opacity="1"></use></g></g><g><use xlink:href="#aL4eD80HY" opacity="1" fill="#000000" fill-opacity="0"></use><g><use xlink:href="#aL4eD80HY" opacity="1" fill-opacity="0" stroke="#dd6600" stroke-width="5" stroke-opacity="1"></use></g></g><g><use xlink:href="#a4aP10p5V1" opacity="1" fill="#000000" fill-opacity="0"></use><g><use xlink:href="#a4aP10p5V1" opacity="1" fill-opacity="0" stroke="#dd6600" stroke-width="5" stroke-opacity="1"></use></g></g><g><use xlink:href="#baL5atVL7" opacity="1" fill="#000000" fill-opacity="0"></use><g><use xlink:href="#baL5atVL7" opacity="1" fill-opacity="0" stroke="#dd6600" stroke-width="5" stroke-opacity="1"></use></g></g><g><use xlink:href="#f2r21JSrDB" opacity="1" fill="#000000" fill-opacity="0"></use><g><use xlink:href="#f2r21JSrDB" opacity="1" fill-opacity="0" stroke="#dd6600" stroke-width="5" stroke-opacity="1"></use></g></g><g><use xlink:href="#e3BtUZdYSZ" opacity="1" fill="#000000" fill-opacity="0"></use><g><use xlink:href="#e3BtUZdYSZ" opacity="1" fill-opacity="0" stroke="#dd6600" stroke-width="5" stroke-opacity="1"></use></g></g><g><use xlink:href="#b1JgcaxCEs" opacity="1" fill="#000000" fill-opacity="0"></use><g><use xlink:href="#b1JgcaxCEs" opacity="1" fill-opacity="0" stroke="#dd6600" stroke-width="5" stroke-opacity="1"></use></g></g><g><use xlink:href="#aynnxcn1n" opacity="1" fill="#000000" fill-opacity="0"></use><g><use xlink:href="#aynnxcn1n" opacity="1" fill-opacity="0" stroke="#dd6600" stroke-width="5" stroke-opacity="1"></use></g></g><g><use xlink:href="#c20pnwfpcU" opacity="1" fill="#000000" fill-opacity="0"></use><g><use xlink:href="#c20pnwfpcU" opacity="1" fill-opacity="0" stroke="#dd6600" stroke-width="5" stroke-opacity="1"></use></g></g><g><use xlink:href="#bCOzhGgUb" opacity="1" fill="#000000" fill-opacity="0"></use><g><use xlink:href="#bCOzhGgUb" opacity="1" fill-opacity="0" stroke="#dd6600" stroke-width="5" stroke-opacity="1"></use></g></g><g><use xlink:href="#a2WGg6g2Wh" opacity="1" fill="#000000" fill-opacity="0"></use><g><use xlink:href="#a2WGg6g2Wh" opacity="1" fill-opacity="0" stroke="#dd6600" stroke-width="5" stroke-opacity="1"></use></g></g><g><use xlink:href="#c1vKF0GcK2" opacity="1" fill="#000000" fill-opacity="0"></use><g><use xlink:href="#c1vKF0GcK2" opacity="1" fill-opacity="0" stroke="#dd6600" stroke-width="5" stroke-opacity="1"></use></g></g><g><use xlink:href="#cewM5sHoz" opacity="1" fill="#000000" fill-opacity="0"></use><g><use xlink:href="#cewM5sHoz" opacity="1" fill-opacity="0" stroke="#dd6600" stroke-width="5" stroke-opacity="1"></use></g></g><g><use xlink:href="#b2xWJ1SwM2" opacity="1" fill="#000000" fill-opacity="0"></use><g><use xlink:href="#b2xWJ1SwM2" opacity="1" fill-opacity="0" stroke="#dd6600" stroke-width="5" stroke-opacity="1"></use></g></g><g><use xlink:href="#b96oPXrek" opacity="1" fill="#000000" fill-opacity="0"></use><g><use xlink:href="#b96oPXrek" opacity="1" fill-opacity="0" stroke="#dd6600" stroke-width="5" stroke-opacity="1"></use></g></g><g><use xlink:href="#bUqpFtGsM" opacity="1" fill="#000000" fill-opacity="0"></use><g><use xlink:href="#bUqpFtGsM" opacity="1" fill-opacity="0" stroke="#dd6600" stroke-width="5" stroke-opacity="1"></use></g></g><g><use xlink:href="#bZoiXoNxi" opacity="1" fill="#000000" fill-opacity="0"></use><g><use xlink:href="#bZoiXoNxi" opacity="1" fill-opacity="0" stroke="#dd6600" stroke-width="5" stroke-opacity="1"></use></g></g><g><use xlink:href="#cbB2YegZtX" opacity="1" fill="#000000" fill-opacity="0"></use><g><use xlink:href="#cbB2YegZtX" opacity="1" fill-opacity="0" stroke="#dd6600" stroke-width="5" stroke-opacity="1"></use></g></g><g><use xlink:href="#aCZenLBiQ" opacity="1" fill="#000000" fill-opacity="0"></use><g><use xlink:href="#aCZenLBiQ" opacity="1" fill-opacity="0" stroke="#dd6600" stroke-width="5" stroke-opacity="1"></use></g></g><g><use xlink:href="#e2SfTP8G8r" opacity="1" fill="#000000" fill-opacity="0"></use><g><use xlink:href="#e2SfTP8G8r" opacity="1" fill-opacity="0" stroke="#dd6600" stroke-width="5" stroke-opacity="1"></use></g></g><g><use xlink:href="#e2tTByZkfz" opacity="1" fill="#000000" fill-opacity="0"></use><g><use xlink:href="#e2tTByZkfz" opacity="1" fill-opacity="0" stroke="#dd6600" stroke-width="5" stroke-opacity="1"></use></g></g><g><use xlink:href="#c1UzCmVNp2" opacity="1" fill="#000000" fill-opacity="0"></use><g><use xlink:href="#c1UzCmVNp2" opacity="1" fill-opacity="0" stroke="#dd6600" stroke-width="5" stroke-opacity="1"></use></g></g><g><use xlink:href="#b1GIwgVdjm" opacity="1" fill="#000000" fill-opacity="0"></use><g><use xlink:href="#b1GIwgVdjm" opacity="1" fill-opacity="0" stroke="#dd6600" stroke-width="5" stroke-opacity="1"></use></g></g><g><use xlink:href="#aqJ70SRJL" opacity="1" fill="#000000" fill-opacity="0"></use><g><use xlink:href="#aqJ70SRJL" opacity="1" fill-opacity="0" stroke="#dd6600" stroke-width="5" stroke-opacity="1"></use></g></g><g><use xlink:href="#d2NuD0dv" opacity="1" fill="#000000" fill-opacity="0"></use><g><use xlink:href="#d2NuD0dv" opacity="1" fill-opacity="0" stroke="#dd6600" stroke-width="5" stroke-opacity="1"></use></g></g></g></g></svg>