<svg id="Layer_1" height="512" viewBox="0 0 512 512" width="512" xmlns="http://www.w3.org/2000/svg" data-name="Layer 1"><path d="m345.31 373.28 14.14-14.14-98.08-98.09-14.15 14.14-70.84-74.64-.3.28c-29.37 35.07-32.35 84.44.8 117.59.03.03 8.97 3.63 12.57 7.24a26.75 26.75 0 0 1 7.75 21.35l-.04.04a7.85 7.85 0 1 0 15.66 1.13c.79-13.62 21.95-13.37 49.63 19.77 24.91 29.83 21.47 50.34 8.02 50.08a7.854 7.854 0 0 0 -3.24 15.37l.05-.03a26.784 26.784 0 0 1 21.72 27.41s76.65 86.59 158.93 5.55z" fill="#fd9003"/><path d="m309 440.78a26.784 26.784 0 0 0 -21.72-27.41l-.05.03a7.854 7.854 0 0 1 3.24-15.37c13.45.26 16.89-20.25-8.02-50.08-27.68-33.14-48.84-33.39-49.63-19.77a7.85 7.85 0 1 1 -15.66-1.13l.04-.04a26.75 26.75 0 0 0 -7.75-21.35c-3.6-3.61-12.54-7.21-12.57-7.24-26.053-26.053-29.779-62.121-15.929-93.4l-4.571-4.474-.3.28c-29.37 35.07-32.35 84.44.8 117.59.03.03 8.97 3.63 12.57 7.24a26.75 26.75 0 0 1 7.75 21.35l-.04.04a7.85 7.85 0 1 0 15.66 1.13c.79-13.62 21.95-13.37 49.63 19.77 24.91 29.83 21.47 50.34 8.02 50.08a7.854 7.854 0 0 0 -3.24 15.37l.05-.03a26.784 26.784 0 0 1 21.72 27.414s76.65 86.59 158.93 5.55l-2.045-2c-73.421 48.136-136.885-23.55-136.885-23.55z" fill="#ec6437"/><path d="m373.59 345-28.28 28.28 102.62 93.05q4.5-4.425 9-9.52c-.06.06-.13.11-.19.17l.28-.27c-.03.03-.06.07-.09.1q5.22-4.6 9.71-9.2z" fill="#4a5160"/><path d="m87.5 68.48-41.67-56.87-33.91 33.9 56.87 41.68 178.43 188 14.15-14.14 14.14-14.14z" fill="#4a5160"/><path d="m460.81 288.97a26.809 26.809 0 0 1 -27.4-21.73l.02-.04a7.848 7.848 0 1 0 -15.36 3.23c.26 13.46-20.26 16.9-50.08-8.02-33.14-27.68-33.39-48.84-19.77-49.63a7.85 7.85 0 0 0 -1.13-15.66l-.04.04a26.763 26.763 0 0 1 -21.35-7.74c-3.61-3.61-7.22-12.54-7.25-12.57-33.15-33.15-82.52-30.18-117.58-.8l-.01.01 74.65 70.85-14.14 14.14 98.08 98.09 14.14-14.14 93.05 102.61c80.57-82.17-5.83-158.64-5.83-158.64z" fill="#fea92a"/><g fill="#284268"><path d="m464.791 284.474a6 6 0 0 0 -4.228-1.5 20.808 20.808 0 0 1 -21.157-16.336 5.826 5.826 0 0 0 -.1-.679 13.853 13.853 0 0 0 -27.241 5 3.2 3.2 0 0 1 -1.966 3.131c-4.127 1.978-17.434 1.123-38.265-16.278-21.991-18.369-27.508-32.5-25.851-37.518.172-.521.46-1.394 2.666-1.522a13.852 13.852 0 1 0 -1.989-27.632 5.7 5.7 0 0 0 -.663.087 20.742 20.742 0 0 1 -16.054-6.047c-1.511-1.512-3.823-5.632-5.888-10.5a6.07 6.07 0 0 0 -1.357-2.076c-17.06-17.06-38.655-25.918-62.4-25.6-20.677.269-41.464 7.741-59.091 21.121l-109.182-103.625-18.491-25.234 14-14 1.5 1.5a6 6 0 0 0 8.486-8.485l-11.477-11.488a6 6 0 0 0 -8.486 8.485l1.5 1.5-12.7 12.7-15.693-21.415a6 6 0 0 0 -9.081-.7l-33.9 33.9a6 6 0 0 0 .7 9.082l21.41 15.693-13.053 13.052-1.5-1.5a6 6 0 1 0 -8.484 8.486l11.483 11.483a6 6 0 1 0 8.485-8.486l-1.5-1.5 14.356-14.353 25.229 18.491 103.591 109.141c-13.533 17.695-21.089 38.611-21.36 59.412-.309 23.759 8.545 45.336 25.568 62.359a6.117 6.117 0 0 0 2.112 1.394c4.863 2.065 8.982 4.376 10.5 5.889a20.75 20.75 0 0 1 6.049 16.033 5.816 5.816 0 0 0 -.089.684 13.852 13.852 0 1 0 27.638 1.906c.123-2.122 1-2.41 1.516-2.583 5.019-1.661 19.15 3.86 37.519 25.851 17.4 20.83 18.257 34.138 16.278 38.263a3.2 3.2 0 0 1 -3.132 1.968 13.852 13.852 0 0 0 -5 27.24 5.73 5.73 0 0 0 .661.1 20.8 20.8 0 0 1 16.353 21.161 6.041 6.041 0 0 0 1.5 4.246c1.522 1.725 37.938 42.225 88.747 42.225h.1c31.306 0 60.837-15.479 87.783-45.878 30.4-26.945 45.828-56.486 45.86-87.79.049-50.857-40.486-87.332-42.212-88.858zm-391.649-201.414a5.9 5.9 0 0 0 -.8-.709l-51.228-37.544 24.007-24.007 37.543 51.223a5.964 5.964 0 0 0 .709.805l183.534 174.193-19.571 19.572zm300.294 411.94h-.173c-39.945 0-71.189-29.378-78.263-36.594a32.821 32.821 0 0 0 -26.587-30.923c-.08-.015-.16-.031-.239-.043a1.857 1.857 0 0 1 -1.137-2.106 1.852 1.852 0 0 1 2.194-1.432 5.963 5.963 0 0 0 1.122.128 15.175 15.175 0 0 0 14.59-8.781c5.671-11.827-1.016-30.946-17.889-51.145-18.951-22.688-37.822-33.734-50.492-29.552-5.721 1.89-9.36 6.855-9.727 13.2a1.853 1.853 0 0 1 -3.691.051c.01-.083.02-.167.028-.251a32.729 32.729 0 0 0 -9.475-26.129c-3.2-3.2-8.856-6.082-13.363-8.05a73.108 73.108 0 0 1 -21.3-52.95c.23-17.63 6.5-35.421 17.747-50.733l66.09 69.538a5.825 5.825 0 0 0 4.275 1.772h.078a5.91 5.91 0 0 0 4.242-1.662l9.9-9.851 37.918 37.942-8.884 8.9a6 6 0 0 0 8.486 8.5l8.883-8.883 43.2 43.2-9.9 9.9a6 6 0 0 0 .212 8.688l97.819 88.704c-20.794 18.902-42.817 28.562-65.664 28.562zm74.251-36.99-93.679-84.946 19.371-19.371 84.954 93.688zm19.035-19.241-88.686-97.8a6 6 0 0 0 -4.3-1.968 5.935 5.935 0 0 0 -4.388 1.755l-9.9 9.9-43.2-43.2 8.463-8.464a6 6 0 1 0 -8.486-8.485l-8.462 8.463-37.914-37.92 9.9-9.9a6 6 0 0 0 -.111-8.595l-69.591-66.049c15.238-11.1 32.906-17.28 50.411-17.508 20.06-.283 38.331 7.087 52.951 21.3 1.969 4.508 4.853 10.167 8.049 13.363a32.744 32.744 0 0 0 26.129 9.474c.083-.008.165-.017.248-.028a1.853 1.853 0 0 1 1.22 3.057 1.771 1.771 0 0 1 -1.183.629c-6.428.373-11.392 4.011-13.283 9.733-4.184 12.665 6.864 31.54 29.552 50.492 20.2 16.873 39.32 23.559 51.146 17.888a15.2 15.2 0 0 0 8.78-14.591 6.035 6.035 0 0 0 -.127-1.121 1.85 1.85 0 0 1 1.426-2.194 1.855 1.855 0 0 1 2.108 1.135c.011.08.025.16.041.24a32.813 32.813 0 0 0 30.915 26.588c7.233 7.065 36.611 38.241 36.57 78.346-.023 22.774-9.527 44.727-28.278 65.46z"/><path d="m403.272 299.25a6 6 0 0 0 -.556 8.466 2.419 2.419 0 0 1 -.224 3.416c-1.33 1.162-3.981-.8-4.278-1.032-3.949-3.025-9.537-6.939-14.941-10.724-5.48-3.838-11.146-7.808-14.992-10.77-6.506-5.008-14.158-5.22-19.5-.537a14.437 14.437 0 0 0 -1.336 20.348 6 6 0 0 0 9.024-7.91 2.423 2.423 0 0 1 .223-3.415c1.335-1.17 3.971.8 4.267 1.022 4.061 3.127 9.841 7.176 15.43 11.091 5.3 3.713 10.781 7.552 14.528 10.421a17.516 17.516 0 0 0 10.575 3.891 13.333 13.333 0 0 0 8.91-3.362 14.436 14.436 0 0 0 1.337-20.349 6 6 0 0 0 -8.467-.556z"/><path d="m309.164 376.417c-3.913-5.587-7.96-11.364-11.086-15.423-.227-.3-2.192-2.93-1.021-4.265a2.419 2.419 0 0 1 3.415-.225 6 6 0 0 0 7.91-9.023 14.42 14.42 0 0 0 -20.348 1.336c-4.683 5.341-4.472 13 .537 19.5 2.96 3.844 6.928 9.508 10.764 14.985 3.787 5.407 7.7 11 10.729 14.948.229.3 2.2 2.95 1.034 4.278a2.426 2.426 0 0 1 -3.417.224 6 6 0 1 0 -7.91 9.024 14.437 14.437 0 0 0 20.349-1.337c4.667-5.323 4.46-12.972-.529-19.486-2.871-3.753-6.712-9.233-10.427-14.536z"/></g></svg>