<svg height="512" viewBox="0 0 64 64" width="512" xmlns="http://www.w3.org/2000/svg"><path d="m58 35h-2a3.992 3.992 0 0 1 -3 3.87 3.657 3.657 0 0 1 -1 .13 4 4 0 0 1 -4-4v-4a13.836 13.836 0 0 0 -1.66-6.6c-.14-.26-.29-.52-.44-.77a14.06 14.06 0 0 0 -11.68-6.62.01.01 0 0 0 .01-.01h5.77a17.993 17.993 0 0 1 18 18z" fill="#3d9ae2"/><path d="m29.78 17.01a14.06 14.06 0 0 0 -11.68 6.62c-.15.25-.3.51-.44.77a13.836 13.836 0 0 0 -1.66 6.6v4a4 4 0 0 1 -4 4 3.657 3.657 0 0 1 -1-.13 3.992 3.992 0 0 1 -3-3.87h-2a18.015 18.015 0 0 1 18-18h5.77a.01.01 0 0 0 .01.01z" fill="#ff6243"/><path d="m53 38.87v20.13a2.006 2.006 0 0 1 -2 2h-38a2.006 2.006 0 0 1 -2-2v-20.13a3.657 3.657 0 0 0 1 .13 4 4 0 0 0 4-4 4 4 0 0 0 8 0 4 4 0 0 0 8 0 4 4 0 0 0 8 0 4 4 0 0 0 8 0 4 4 0 0 0 4 4 3.657 3.657 0 0 0 1-.13z" fill="#00ccb3"/><path d="m27 47v14h-10v-14a2.006 2.006 0 0 1 2-2h6a2.006 2.006 0 0 1 2 2z" fill="#96c8ef"/><rect fill="#96c8ef" height="8" rx="1" width="14" x="33" y="45"/><path d="m40 25v10a4 4 0 0 1 -8 0v-18a8.076 8.076 0 0 1 1.98.25 8 8 0 0 1 5.96 6.75 8.262 8.262 0 0 1 .06 1z" fill="#3d9ae2"/><path d="m32 17a7.992 7.992 0 0 0 -7.94 7 8.262 8.262 0 0 0 -.06 1v10a4 4 0 0 1 -8 0v-4a13.836 13.836 0 0 1 1.66-6.6c.14-.26.29-.52.44-.77a14.06 14.06 0 0 1 11.68-6.62 1.62 1.62 0 0 1 .22-.01z" fill="#3d9ae2"/><path d="m48 31v4a4 4 0 0 1 -8 0v-10a8.262 8.262 0 0 0 -.06-1 8 8 0 0 0 -5.96-6.75 8.076 8.076 0 0 0 -1.98-.25h2a1.62 1.62 0 0 1 .22.01 14.06 14.06 0 0 1 11.68 6.62c.15.25.3.51.44.77a13.836 13.836 0 0 1 1.66 6.6z" fill="#ff6243"/><path d="m32 17v18a4 4 0 0 1 -8 0v-10a8.262 8.262 0 0 1 .06-1 8.009 8.009 0 0 1 7.94-7z" fill="#ff6243"/><path d="m53 38.87v2a3.657 3.657 0 0 1 -1 .13 4 4 0 0 1 -4-4 4 4 0 0 1 -8 0 4 4 0 0 1 -8 0 4 4 0 0 1 -8 0 4 4 0 0 1 -8 0 4 4 0 0 1 -4 4 3.657 3.657 0 0 1 -1-.13v-2a3.657 3.657 0 0 0 1 .13 4 4 0 0 0 4-4 4 4 0 0 0 8 0 4 4 0 0 0 8 0 4 4 0 0 0 8 0 4 4 0 0 0 8 0 4 4 0 0 0 4 4 3.657 3.657 0 0 0 1-.13z" fill="#00b39d"/><g fill="#78b9eb"><path d="m27 48v4l-9 9h-1v-3z"/><path d="m27 54v3.5l-3.5 3.5h-3.5z"/><path d="m47 46-7 7h-4l8-8h2a1 1 0 0 1 1 1z"/><path d="m47 48v3.5l-1.5 1.5h-3.5z"/></g><path d="m32 13h5.71a6.988 6.988 0 0 1 -3.12 4c-.01.01-.02.02-.03.02-.15.09-.31.18-.47.26a6.772 6.772 0 0 1 -2.09.64 5.546 5.546 0 0 1 -1 .08 7.154 7.154 0 0 1 -2.18-.34c-.25-.09-.49-.18-.73-.29a2.542 2.542 0 0 0 -.46-.17h-.01a3.991 3.991 0 0 0 -3.31.54 8.008 8.008 0 0 1 -12.26-7.67 8 8 0 0 1 12.35-5.75 3.971 3.971 0 0 0 3.81.26 6.994 6.994 0 0 1 9.51 4.42h-5.72z" fill="#c49a6c"/><circle cx="25" cy="11" fill="#a97c50" r="3"/><path d="m58 9v4l-8 1v-1-4-1z" fill="#c49a6c"/><path d="m50 9v4h-12.29-5.71v-4h5.72z" fill="#a97c50"/><path d="m25 15a4 4 0 1 0 -4-4 4 4 0 0 0 4 4zm0-6a2 2 0 1 1 -2 2 2 2 0 0 1 2-2z"/><path d="m17 9h2v4h-2z"/><path d="m46 44h-12a2 2 0 0 0 -2 2v6a2 2 0 0 0 2 2h12a2 2 0 0 0 2-2v-6a2 2 0 0 0 -2-2zm-12 8v-6h12v6z"/><path d="m53.816 60a2.966 2.966 0 0 0 .184-1v-19.423a4.981 4.981 0 0 0 2.9-3.577h1.1a1 1 0 0 0 1-1 18.993 18.993 0 0 0 -19-19h-2.761a8.005 8.005 0 0 0 1.177-2h10.584a1 1 0 0 0 1 1 .861.861 0 0 0 .124-.008l8-1a1 1 0 0 0 .876-.992v-4a1 1 0 0 0 -.876-.992l-8-1a1 1 0 0 0 -1.124.992h-10.586a7.974 7.974 0 0 0 -10.607-4.335 2.993 2.993 0 0 1 -2.856-.18 8.994 8.994 0 0 0 -10.111 14.876 18.962 18.962 0 0 0 -9.84 16.639 1 1 0 0 0 1 1h1.1a4.977 4.977 0 0 0 2.9 3.581v19.419a2.966 2.966 0 0 0 .184 1h-6.184v2h56v-2zm3.155-26h-.971a1 1 0 0 0 -1 1 2.994 2.994 0 0 1 -2.271 2.907 2.634 2.634 0 0 1 -.729.093 3 3 0 0 1 -3-3v-4a15.086 15.086 0 0 0 -7.4-12.922 16.986 16.986 0 0 1 15.371 15.922zm-32.543-14.746c.344-.163.689-.3 1.035-.433a8.968 8.968 0 0 0 -2.463 6.179v10a3 3 0 0 1 -6 0v-4a13.074 13.074 0 0 1 7.428-11.746zm.572 5.746a6.986 6.986 0 0 1 2.042-4.948 7.107 7.107 0 0 1 1.9-1.339 8.164 8.164 0 0 0 2.058.287v16a3 3 0 0 1 -6 0zm8-6.279a7.718 7.718 0 0 0 1.107-.376 6.979 6.979 0 0 1 4.893 6.655v10a3 3 0 0 1 -6 0zm5.543.106c.347.129.691.266 1.027.426a13.075 13.075 0 0 1 7.43 11.747v4a3 3 0 0 1 -6 0v-10a9 9 0 0 0 -2.457-6.173zm18.457-6.71-6 .75v-3.734l6 .75zm-8-.117h-16v-2h16zm-35.957-1.817a7 7 0 0 1 10.807-5.028 4.981 4.981 0 0 0 4.76.342 6.094 6.094 0 0 1 3.631-.377 6 6 0 0 1 3.959 2.88h-4.2a1 1 0 0 0 -1 1v4a1 1 0 0 0 1 1h4.173a5.905 5.905 0 0 1 -2.091 2.139c-.02.011-.038.023-.057.035-.121.073-.251.146-.377.209a5.866 5.866 0 0 1 -1.827.553 6.153 6.153 0 0 1 -2.661-.216c-.224-.081-.439-.161-.645-.255a3.529 3.529 0 0 0 -.642-.235l-.027-.006a4.972 4.972 0 0 0 -4.078.676 7.031 7.031 0 0 1 -6.394.583 6.954 6.954 0 0 1 -4.331-7.3zm-4.043 24.817a1 1 0 0 0 -1-1h-.971a16.968 16.968 0 0 1 10.021-14.511 8.829 8.829 0 0 0 2.785.5 15.07 15.07 0 0 0 -4.835 11.011v4a3 3 0 0 1 -3 3 2.7 2.7 0 0 1 -.753-.1 2.987 2.987 0 0 1 -2.247-2.9zm17 25h-8v-13a1 1 0 0 1 1-1h6a1 1 0 0 1 1 1zm2 0v-13a3 3 0 0 0 -3-3h-6a3 3 0 0 0 -3 3v13h-3a1 1 0 0 1 -1-1v-19a4.982 4.982 0 0 0 4-2.031 4.954 4.954 0 0 0 8 0 4.954 4.954 0 0 0 8 0 4.954 4.954 0 0 0 8 0 4.954 4.954 0 0 0 8 0 4.982 4.982 0 0 0 4 2.031v19a1 1 0 0 1 -1 1z"/><path d="m23 51h2v4h-2z"/></svg>