<?xml version="1.0" encoding="UTF-8" standalone="no"?>
<svg
   xmlns:dc="http://purl.org/dc/elements/1.1/"
   xmlns:cc="http://creativecommons.org/ns#"
   xmlns:rdf="http://www.w3.org/1999/02/22-rdf-syntax-ns#"
   xmlns:svg="http://www.w3.org/2000/svg"
   xmlns="http://www.w3.org/2000/svg"
   xmlns:sodipodi="http://sodipodi.sourceforge.net/DTD/sodipodi-0.dtd"
   xmlns:inkscape="http://www.inkscape.org/namespaces/inkscape"
   version="1.1"
   id="Layer_1"
   x="0px"
   y="0px"
   viewBox="-43.54 108.109 635.83934 1920.0001"
   enable-background="new -43.54 108.109 2007.081 743.871"
   xml:space="preserve"
   sodipodi:docname="guitar-neck.svg"
   width="635.83936"
   height="1920"
   inkscape:version="1.0rc1 (09960d6f05, 2020-04-09)"><metadata
   id="metadata100"><rdf:RDF><cc:Work
       rdf:about=""><dc:format>image/svg+xml</dc:format><dc:type
         rdf:resource="http://purl.org/dc/dcmitype/StillImage" /><dc:title /></cc:Work></rdf:RDF></metadata><defs
   id="defs98" /><sodipodi:namedview
   inkscape:document-rotation="0"
   pagecolor="#ffffff"
   bordercolor="#666666"
   borderopacity="1"
   objecttolerance="10"
   gridtolerance="10"
   guidetolerance="10"
   inkscape:pageopacity="0"
   inkscape:pageshadow="2"
   inkscape:window-width="1920"
   inkscape:window-height="1016"
   id="namedview96"
   showgrid="false"
   inkscape:zoom="0.99646303"
   inkscape:cx="211.64953"
   inkscape:cy="959.10947"
   inkscape:window-x="0"
   inkscape:window-y="0"
   inkscape:window-maximized="1"
   inkscape:current-layer="Layer_1"
   fit-margin-top="0"
   fit-margin-left="0"
   fit-margin-right="0"
   fit-margin-bottom="0" />
<path
   d="m 268.59521,2028.109 c -4.08,-0.25 -8.62,0.23 -12,-2.52 2.87,-2.97 5.82,-5.85 8.74,-8.76 0.62,-0.04 1.85,-0.11 2.47,-0.14 0,-1.35 0.02,-2.7 0.05,-4.05 -1.18,-0.51 -2.34,-1.04 -3.5,-1.57 6.43,-0.26 13.21,-1.38 19.43,0.67 -0.84,0.14 -2.51,0.44 -3.35,0.59 0,1.42 0.01,2.85 0.03,4.27 0.62,0.09 1.87,0.27 2.5,0.36 2.91,2.96 5.98,5.77 8.7,8.92 -4.2,2.21 -9.02,2.06 -13.63,2.23 z"
   id="path91"
   inkscape:connector-curvature="0" />
<path
   style="fill:#e9c6af"
   d="m 363.52539,343.34961 c -2.25255,3.77706 -83.84443,-4.3052 -83.98047,0.66016 -0.42,27.32 -0.25937,54.65093 -0.85937,81.96093 -0.67,30.68001 -0.39937,61.36908 -1.10938,92.03907 -0.52,22.01 -0.38156,44.00952 -0.60156,66.01953 -0.91,29.97 -0.67914,59.9614 -1.11914,89.9414 -0.69,26.01 -0.71961,52.01907 -0.84961,78.03907 -0.69,27.67 -0.93024,55.34929 -0.99024,83.02929 -0.71,29.67 -0.93125,59.34149 -1.03124,89.02149 -8.86915,384.16995 0,0 -8.86915,384.16995 l 112.61329,0.4355 c -5.16971,-193.4503 -3.22602,-364.94942 -7.70313,-537.64647 -0.66,-23.68 -0.21094,-47.37859 -0.96094,-71.05859 -0.64,-22.99 -0.2589,-46 -0.8789,-69 -0.8,-30.96 -0.41992,-61.94039 -1.41993,-92.90039 -0.29,-24.02 -0.1014,-48.05078 -0.9414,-72.05078 -0.36,-25.01 -0.14977,-50.0293 -1.00977,-75.0293 -0.16872,-15.87027 -0.35469,-31.75065 -0.28906,-47.63086 z"
   transform="translate(-43.54,108.109)"
   id="path194"
   inkscape:connector-curvature="0"
   sodipodi:nodetypes="cccccccccccccccccc" /><path
   d="m 363.52539,342.99023 c -5.2e-4,0.1198 5e-4,0.23959 0,0.35938 0.0656,-0.11003 0.073,-0.2286 0,-0.35938 z"
   transform="translate(-43.54,108.109)"
   id="path192"
   inkscape:connector-curvature="0"
   sodipodi:nodetypes="ccc" /><path
   d="m 363.52539,342.99023 c -242.35026,-228.66015 -121.17513,-114.33008 0,0 z"
   transform="translate(-43.54,108.109)"
   id="path93"
   inkscape:connector-curvature="0"
   sodipodi:nodetypes="cc" />
</svg>
