<?xml version="1.0" encoding="UTF-8" standalone="no"?>
<svg
   xmlns:dc="http://purl.org/dc/elements/1.1/"
   xmlns:cc="http://creativecommons.org/ns#"
   xmlns:rdf="http://www.w3.org/1999/02/22-rdf-syntax-ns#"
   xmlns:svg="http://www.w3.org/2000/svg"
   xmlns="http://www.w3.org/2000/svg"
   xmlns:sodipodi="http://sodipodi.sourceforge.net/DTD/sodipodi-0.dtd"
   xmlns:inkscape="http://www.inkscape.org/namespaces/inkscape"
   version="1.1"
   id="Layer_1"
   x="0px"
   y="0px"
   viewBox="-43.54 108.109 635.83934 1920.0001"
   enable-background="new -43.54 108.109 2007.081 743.871"
   xml:space="preserve"
   sodipodi:docname="guitar-body.svg"
   width="635.83936"
   height="1920"
   inkscape:version="1.0rc1 (09960d6f05, 2020-04-09)"><metadata
   id="metadata100"><rdf:RDF><cc:Work
       rdf:about=""><dc:format>image/svg+xml</dc:format><dc:type
         rdf:resource="http://purl.org/dc/dcmitype/StillImage" /><dc:title /></cc:Work></rdf:RDF></metadata><defs
   id="defs98" /><sodipodi:namedview
   inkscape:document-rotation="0"
   pagecolor="#ffffff"
   bordercolor="#666666"
   borderopacity="1"
   objecttolerance="10"
   gridtolerance="10"
   guidetolerance="10"
   inkscape:pageopacity="0"
   inkscape:pageshadow="2"
   inkscape:window-width="1920"
   inkscape:window-height="1016"
   id="namedview96"
   showgrid="false"
   inkscape:zoom="0.69785493"
   inkscape:cx="668.36087"
   inkscape:cy="1563.1914"
   inkscape:window-x="0"
   inkscape:window-y="0"
   inkscape:window-maximized="1"
   inkscape:current-layer="Layer_1"
   fit-margin-top="0"
   fit-margin-left="0"
   fit-margin-right="0"
   fit-margin-bottom="0" />
<path
   d="m 268.59521,2028.109 c -4.08,-0.25 -8.62,0.23 -12,-2.52 2.87,-2.97 5.82,-5.85 8.74,-8.76 0.62,-0.04 1.85,-0.11 2.47,-0.14 0,-1.35 0.02,-2.7 0.05,-4.05 -1.18,-0.51 -2.34,-1.04 -3.5,-1.57 6.43,-0.26 13.21,-1.38 19.43,0.67 -0.84,0.14 -2.51,0.44 -3.35,0.59 0,1.42 0.01,2.85 0.03,4.27 0.62,0.09 1.87,0.27 2.5,0.36 2.91,2.96 5.98,5.77 8.7,8.92 -4.2,2.21 -9.02,2.06 -13.63,2.23 z"
   id="path91"
   inkscape:connector-curvature="0" />
<path
   style="fill:#c83737"
   d="m 181.4452,1236.949 c -18.73,-9.85 -38.3,-18.14 -58.55,-24.29 1.07,-0.06 3.22,-0.2 4.29,-0.27 -0.31,-2.26 -2.27,-3.53 -3.9,-4.83 l -1.19,0.04 c 0.22,-1.45 0.43,-2.9 0.66,-4.36 0.65,0.06 1.97,0.18 2.62,0.24 3.44,-2.24 6.88,-4.48 10.29,-6.77 -1.32,-1.51 -2.89,-2.84 -4.91,-3.25 -7.72,-2.07 -15.57,-3.67 -23.49,-4.73 -2.09,-0.43 -4.12,0.19 -6.01,1.01 2.95,3.78 4.74,8.71 9.03,11.25 -0.21,1.26 -0.41,2.49 -0.61,3.72 -1.17,0.24 -2.33,0.45 -3.49,0.7 -0.59,0.01 -1.75,0.05 -2.33,0.07 -0.09,0.55 -0.25,1.65 -0.34,2.2 1.08,0.65 2.17,1.26 3.25,1.91 -12.169996,-0.96 -24.589996,-1.15 -36.459996,2.14 -19.9,5.22 -37.75,18.33 -48.19,36.12 -7.87,13.33 -11.44,28.8 -12.4599995,44.14 -1.5,25.07 3.1599995,50.06 9.7799995,74.14 5.02,17.3 10.96,34.35 18.12,50.87 9,19.59 15.44,40.5 17.48,62.01 2.5,23.49 -0.51,47.42 -7.94,69.8 -5.2,16.25 -13.24,31.36 -20.27,46.85 -14.94,31.27 -30.4899995,62.3 -43.21,94.57 -14.56,37.32 -26.25,76.51 -27.09,116.84 -0.82,31.62 6.08,63.66 21.5,91.4 14.7600005,26.97 36.52,49.57 60.98,67.95 10.84,7.9 23.18,13.5 35.77,18.02 22.49,7.97 46.039996,12.45 69.619996,15.72 33.78,4.58 67.87,6.36 101.93001,7.01 6.47,0.04 12.95,0.39 19.42,0 -1.83,0.7 -3.93,1.32 -3.82,3.75 8.11,-0.59 16.23,-0.49 24.34,-0.07 0.05,-2.31 -1.87,-3.02 -3.62,-3.75 19.64,0.61 39.31998,-0.07 58.96998,-0.64 41.63,-1.78 83.7,-4.97 123.8,-16.98 18.61,-5.77 37.01,-13.62 52.08,-26.22 22.15,-18.75 41.4,-41.29 54.65,-67.22 10.33,-20.19 16.75,-42.34 19.06,-64.89 4,-39.18 -3.4,-78.58 -15.15,-115.87 -12.83,-40.28 -30.5,-78.84 -49.39,-116.6 -6.01,-11.27 -9.71,-23.55 -14.15,-35.48 -7,-20.31 -12.91,-41.39 -12.92,-63.05 -0.34,-24.93 6.62,-49.27 15.39,-72.39 6.94,-17.2 14.14,-34.33 19.65,-52.06 8.65,-28.3 14.83,-58.03 11.92,-87.75 -1.83,-20.05 -9.02,-40.26 -23.33,-54.83 -6.29,-6.8 -15.72,-10.83 -25.01,-9.57 -10.43,1.45 -20.39,7.58 -25.63,16.84 -7.3,11.65 -10.92,25 -15.14,37.95 -5.46,16.18 -13.14,31.73 -23.75,45.16 -4.01,4.96 -7.97,10.09 -13.2,13.83 -12.5,9.83 -27.81,17.74 -44.13,16.85 -13.78,-0.58 -26.41,-8.81 -33.93,-20.14 -6.27,-9.49 -10.56,-20.55 -11.29,-31.95 -203.95999,-89.7 0,0 -149.69999,-65.14 z"
   id="path93"
   inkscape:connector-curvature="0"
   sodipodi:nodetypes="cccccccccccccccccccccccccccccccccccccccccccccccccccccccccc" />
</svg>
