<svg height="512pt" viewBox="-111 0 512 512.00262" width="512pt" xmlns="http://www.w3.org/2000/svg"><path d="m282.726562 504.5h-275.222656l23.84375-154.164062.445313-2.882813c1.203125-7.78125 7.898437-13.507813 15.765625-13.507813h63.082031v-61.246093h68.953125v61.246093h63.082031c7.867188 0 14.5625 5.726563 15.765625 13.507813l.445313 2.882813zm0 0" fill="#ffc999"/><path d="m258.882812 350.335938-.445312-2.882813c-1.203125-7.78125-7.898438-13.507813-15.765625-13.507813h-21.363281c7.867187 0 14.5625 5.726563 15.765625 13.507813l.449219 2.882813 23.84375 154.164062h21.359374zm0 0" fill="#e89c5d"/><path d="m110.640625 323.949219c13.433594 6.554687 28.523437 10.242187 44.472656 10.242187 8.441407 0 16.636719-1.039062 24.476563-2.980468v-58.511719h-68.949219zm0 0" fill="#e89c5d"/><path d="m236.265625 62.199219v-.746094c0-14.253906-11.558594-25.8125-25.8125-25.8125h-189.179687v162.578125h247.683593v-108.015625c0-13.480469-10.925781-24.40625-24.40625-24.40625h-4.691406c-1.984375 0-3.59375-1.613281-3.59375-3.597656zm0 0" fill="#4a4a68"/><g fill="#ffc999"><path d="m260.355469 180.851562h-33.867188v54.5h33.867188c9.59375 0 17.371093-7.777343 17.371093-17.371093v-19.761719c0-9.59375-7.777343-17.367188-17.371093-17.367188zm0 0"/><path d="m29.875 180.851562h33.867188v54.5h-33.867188c-9.59375 0-17.371094-7.777343-17.371094-17.371093v-19.761719c0-9.59375 7.777344-17.367188 17.371094-17.367188zm0 0"/><path d="m43.597656 133.386719v74.285156c0 56.070313 45.449219 101.519531 101.519532 101.519531 56.066406 0 101.515624-45.449218 101.515624-101.519531v-74.285156c0-11.164063-9.050781-20.21875-20.21875-20.21875h-162.597656c-11.167968 0-20.21875 9.054687-20.21875 20.21875zm0 0"/></g><path d="m226.414062 113.167969h-25.152343c11.167969 0 20.21875 9.054687 20.21875 20.21875v74.285156c0 51.808594-38.808594 94.550781-88.941407 100.742187 4.121094.511719 8.316407.777344 12.578126.777344 56.066406 0 101.515624-45.453125 101.515624-101.519531v-74.285156c0-11.164063-9.050781-20.21875-20.21875-20.21875zm0 0" fill="#e89c5d"/><path d="m43.597656 133.386719c0-11.164063 9.050782-20.21875 20.21875-20.21875h39.433594l-12.304688 25.523437c-2.128906 4.410156-.964843 9.703125 2.8125 12.816406l32.792969 27.039063c4.367188 3.601563 5.148438 9.992187 1.773438 14.539063l-34.800781 46.882812c-3.167969 4.269531-9.949219 1.753906-9.570313-3.546875l1.21875-17.023437c.238281-3.363282-1.128906-6.640626-3.691406-8.835938l-37.882813-32.425781zm0 0" fill="#e8626c"/><path d="m18.160156 12.949219 14.957032 11.957031c1.945312 1.554688 4.710937 1.554688 6.65625 0l20.28125-16.21875c1.945312-1.554688 4.710937-1.554688 6.65625 0l20.289062 16.21875c1.945312 1.554688 4.707031 1.554688 6.65625 0l20.289062-16.21875c1.945313-1.554688 4.710938-1.554688 6.65625 0l20.292969 16.21875c1.945313 1.554688 4.710938 1.554688 6.65625 0l14.964844-11.960938c3.488281-2.789062 8.65625-.300781 8.65625 4.164063v41.363281c0 24.234375 15.707031 45.675782 38.8125 52.984375l5.40625 1.710938h-151.355469c-30.117187 0-54.535156-24.414063-54.535156-54.53125v-41.523438c.003906-4.46875 5.171875-6.953125 8.660156-4.164062zm0 0" fill="#5b5b7c"/><path d="m260.726562 345.796875-1.839843 4.539063-41.40625 102.074218 25.003906 22.675782v29.414062h-62.890625v-170.554688h73.148438c6.113281 0 10.28125 6.183594 7.984374 11.851563zm0 0" fill="#7393d8"/><path d="m179.589844 318.820312 40.957031 23.53125c5.011719 2.878907 5.695313 9.835938 1.335937 13.636719l-18.449218 16.082031c-1.496094 1.304688-2.140625 3.335938-1.671875 5.265626l5.535156 22.730468c1.273437 5.238282.550781 10.765625-2.027344 15.503906l-25.679687 47.117188zm0 0" fill="#40c6c2"/><path d="m110.636719 333.945312v170.554688h-62.890625v-29.414062l25.003906-22.675782-41.40625-102.074218-1.839844-4.539063c-2.292968-5.664063 1.871094-11.851563 7.984375-11.851563zm0 0" fill="#7393d8"/><path d="m110.640625 318.820312-40.957031 23.53125c-5.011719 2.878907-5.691406 9.835938-1.335938 13.636719l18.449219 16.082031c1.496094 1.304688 2.144531 3.335938 1.671875 5.265626l-5.535156 22.730468c-1.273438 5.238282-.550782 10.765625 2.03125 15.503906l25.675781 47.117188zm0 0" fill="#40c6c2"/><path d="m159.164062 407.433594-9.351562-22.382813c-1.742188-4.171875-7.652344-4.171875-9.394531 0l-9.351563 22.382813c-.792968 1.90625-.359375 4.105468 1.101563 5.566406l9.347656 9.347656c1.988281 1.988282 5.210937 1.988282 7.199219 0l9.351562-9.347656c1.460938-1.464844 1.894532-3.660156 1.097656-5.566406zm0 0" fill="#e8626c"/><path d="m290.140625 503.355469-8.796875-56.910157c-.632812-4.089843-4.460938-6.894531-8.558594-6.265624-4.09375.632812-6.898437 4.464843-6.265625 8.558593l7.460938 48.261719h-24v-21.707031c.003906-.070313.003906-.136719.003906-.207031v-24.414063c0-4.144531-3.355469-7.5-7.5-7.5-4.140625 0-7.5 3.355469-7.5 7.5v7.488281l-8.582031-7.78125 29.222656-72.039062 6.253906 40.402344c.574219 3.703124 3.765625 6.355468 7.402344 6.355468.378906 0 .765625-.03125 1.15625-.089844 4.09375-.632812 6.898438-4.464843 6.265625-8.558593l-10.09375-65.1875 1.074219-2.65625c2.011718-4.976563 1.417968-10.605469-1.582032-15.054688-3-4.445312-7.996093-7.101562-13.359374-7.101562h-44.820313l-20.828125-11.96875v-6.195313c28.636719-11.992187 51.109375-35.871094 61.214844-65.433594h12.050781c13.710937 0 24.859375-11.15625 24.859375-24.867187v-19.761719c0-7.574218-3.402344-14.367187-8.757812-18.933594v-89.09375c0-17.585937-14.316407-31.898437-31.910157-31.898437h-.9375c-1.59375-16.894531-15.859375-30.15625-33.160156-30.15625h-31.777344v-11.03125c0-4.976563-2.789062-9.40625-7.269531-11.5625-4.488281-2.15625-9.6875-1.566406-13.570312 1.539063l-13.609376 10.878906-18.941406-15.136719c-4.71875-3.769531-11.304687-3.769531-16.019531 0l-18.9375 15.136719-18.9375-15.136719c-4.714844-3.769531-11.304687-3.769531-16.019531.003906l-18.925782 15.132813-13.601562-10.875c-3.886719-3.105469-9.085938-3.695313-13.570312-1.539063-4.484376 2.15625-7.269532 6.585938-7.269532 11.5625v24.753907c0 4.144531 3.355469 7.5 7.5 7.5 4.140625 0 7.5-3.355469 7.5-7.5v-20.242188l11.285156 9.023438v27.988281c0 4.144531 3.359376 7.5 7.5 7.5 4.144532 0 7.5-3.355469 7.5-7.5v-27.042969c.402344-.253906.789063-.53125 1.167969-.832031l18.925781-15.132813 18.933594 15.132813c.0625.050781.128906.101562.191406.152343v21.289063c0 4.140625 3.355469 7.5 7.5 7.5 4.144532 0 7.5-3.359375 7.5-7.5v-20.828125c.28125-.191406.558594-.394531.828126-.613281l18.9375-15.132813 18.941406 15.132813c4.714844 3.773437 11.300781 3.773437 16.019531 0l11.441406-9.140625v36.847656c0 18.539062 7.964844 35.515625 21.160157 47.199219h-.785157c-.070312 0-.136719-.003907-.207031-.003907-17.023438 0-31.40625-21.535156-31.40625-47.027343 0-4.140625-3.359375-7.5-7.5-7.5-4.144531 0-7.5 3.359375-7.5 7.5 0 16.117187 4.542969 31.355469 12.789062 42.914062 1.035157 1.449219 2.113282 2.824219 3.230469 4.117188h-24.332031c-.070312 0-.140625-.003907-.207031-.003907-11.625 0-22.617188-10.164062-28.003907-25.894531-1.34375-3.917969-5.605468-6.003906-9.523437-4.667969-3.921875 1.34375-6.007813 5.605469-4.667969 9.527344 2.8125 8.214844 6.90625 15.34375 11.878906 21.039063h-15.566406c-.066406 0-.136718-.003907-.207031-.003907-13.1875 0-25.476563-7.8125-32.859375-20.902343-2.035156-3.605469-6.609375-4.878907-10.21875-2.847657-3.605469 2.039063-4.882812 6.609376-2.847656 10.21875 1.6875 2.984376 3.566406 5.769532 5.621094 8.335938-5.820313-2.992188-10.964844-7.171875-15.089844-12.265625-.179688-.261719-.378906-.511719-.589844-.746094-3.804688-4.90625-6.679688-10.621093-8.320312-16.914062-1.046876-4.007813-5.136719-6.410157-9.152344-5.363281-4.007813 1.042968-6.40625 5.140624-5.363282 9.148437 1.988282 7.617187 5.34375 14.59375 9.765626 20.695313v84.265624c-5.355469 4.5625-8.761719 11.359376-8.761719 18.933594v19.757813c0 13.714843 11.152343 24.871093 24.859375 24.871093h12.011718c3.503907 10.285157 8.566407 20.042969 15.105469 29.007813 2.441407 3.347656 7.132813 4.078125 10.480469 1.636719 3.347656-2.4375 4.078125-7.132813 1.640625-10.476563-6.507813-8.917969-11.316406-18.746093-14.324219-29.136719-.078125-.390624-.183594-.769531-.320312-1.136718-2.226563-8.082032-3.367188-16.492188-3.367188-25.074219v-13.242187l25.507813 21.832031c.75.640625 1.15625 1.617187 1.085937 2.601562l-1.214844 17.023438c-.410156 5.738281 2.9375 10.933593 8.328126 12.929687 1.480468.550782 3.003906.816406 4.503906.816406 3.957031 0 7.753906-1.847656 10.238281-5.195312l34.800781-46.882812c5.757813-7.757813 4.429688-18.648438-3.023437-24.792969l-32.792969-27.039063c-1.117188-.917968-1.457031-2.46875-.828125-3.773437l10.257813-21.277344h107.273437.160156.164063 10.855468c7.011719 0 12.71875 5.703125 12.71875 12.71875v47.308594.15625.15625 26.664062c0 51.839844-42.175781 94.015625-94.015624 94.015625-21.371094 0-40.789063-7.007812-56.570313-18.914062-3.304687-2.496094-8.007813-1.835938-10.503906 1.46875-2.496094 3.304687-1.835938 8.007812 1.46875 10.503906 7.375 5.5625 15.296875 10.109375 23.625 13.589844v6.140625l-20.828125 11.96875h-44.820313c-5.363281 0-10.359375 2.65625-13.359375 7.101562-3 4.449219-3.59375 10.078125-1.578125 15.0625l1.070313 2.648438-23.5312502 152.09375c-.3359378 2.164062.2929682 4.367187 1.7187502 6.027343 1.421875 1.664063 3.503906 2.621094 5.691406 2.621094h275.230469c2.1875 0 4.269531-.957031 5.695312-2.621094 1.421875-1.660156 2.050781-3.863281 1.714844-6.027343zm-19.921875-285.375c0 5.445312-4.421875 9.871093-9.859375 9.871093h-8.097656c1.226562-6.539062 1.871093-13.285156 1.871093-20.179687v-19.320313h6.230469c5.4375 0 9.859375 4.429688 9.859375 9.871094v19.757813zm-241.449219-108.300781c4.039063 2.789062 8.414063 5.101562 13.035157 6.875-3.578126 4.671874-5.707032 10.507812-5.707032 16.832031v39.964843h-6.226562c-.367188 0-.734375.011719-1.101563.023438zm1.101563 118.171874c-5.4375 0-9.859375-4.425781-9.859375-9.871093v-19.757813c0-5.441406 4.421875-9.871094 9.859375-9.871094h6.226562v19.320313c0 6.839844.625 13.585937 1.855469 20.179687zm59.117187-70.554687 32.792969 27.035156c1.285156 1.0625 1.515625 2.941407.519531 4.28125l-30.332031 40.867188.683594-9.546875c.40625-5.710938-1.945313-11.34375-6.296875-15.066406l-35.257813-30.179688v-41.300781c0-7.011719 5.707032-12.71875 12.71875-12.71875h27.492188l-7.121094 14.765625c-3.636719 7.542968-1.664062 16.535156 4.800781 21.863281zm137.425781-51.628906h-9.863281l-4.304687-1.359375c-20.078125-6.355469-33.570313-24.773438-33.570313-45.835938v-15.332031h31.777344c10.097656 0 18.308594 8.214844 18.308594 18.316406v.742188c0 6.121093 4.980469 11.097656 11.101562 11.097656h4.6875c9.324219 0 16.910157 7.582031 16.910157 16.898437v83.183594c-.363282-.015625-.730469-.023437-1.101563-.023437h-6.226563v-39.96875c0-15.285157-12.433593-27.71875-27.71875-27.71875zm-9.601562 243.1875c.101562.054687.40625.234375.453125.699219.046875.46875-.222656.703124-.308594.777343l-18.453125 16.082031c-3.625 3.160157-5.167968 8.023438-4.03125 12.691407l5.535156 22.734375c.835938 3.433594.367188 7.03125-1.324218 10.136718l-11.59375 21.273438v-66.953125c.003906-.148437.003906-.300781 0-.449219v-31.667968c.003906-.078126.003906-.15625.003906-.234376v-2.164062zm-98.675781 114.0625c0-.078125.003906-.15625.003906-.230469v-80.71875c4.109375 2.441406 8.515625 4.316406 13.109375 5.574219l-7.101562 17c-1.976563 4.730469-.910157 10.128906 2.714843 13.757812l9.351563 9.347657c2.375 2.378906 5.539062 3.6875 8.902344 3.6875 3.363281 0 6.523437-1.308594 8.902343-3.6875l9.351563-9.347657c3.625-3.625 4.691406-9.027343 2.714844-13.757812l-7.101563-16.996094c4.589844-1.261719 9-3.136719 13.105469-5.578125v80.71875c0 .078125.003906.152344.003906.230469v34.085937h-53.957031zm26.980469-69.660157 6.503906 15.578126-6.503906 6.503906-6.507813-6.503906zm26.976562-79.945312v5.265625c0 .082031-.003906.160156-.003906.242187v44.296876c-7.21875 7.210937-16.90625 11.296874-26.972656 11.296874-10.070313 0-19.757813-4.085937-26.976563-11.296874v-44.296876c0-.082031-.003906-.164062-.003906-.242187v-5.230469c8.71875 2.210938 17.757812 3.339844 26.976562 3.339844 9.3125.003906 18.351563-1.171875 26.980469-3.375zm-68.957031 119.933594-11.589844-21.265625c-1.691406-3.105469-2.160156-6.707031-1.324219-10.140625l5.535156-22.730469c1.136719-4.667969-.40625-9.53125-4.03125-12.691406l-18.453124-16.085938c-.085938-.074219-.351563-.308593-.308594-.773437.046875-.46875.355468-.644532.453125-.703125l29.71875-17.074219zm-68.527344-54.902344 29.21875 72.035156-8.582031 7.78125v-7.492187c0-4.140625-3.355469-7.5-7.5-7.5-4.140625 0-7.5 3.359375-7.5 7.5v24.417969c0 .066406 0 .136718.003906.207031v21.707031h-24zm20.640625 118.65625v-18.59375l22.535156-20.4375c2.332032-2.113281 3.097656-5.457031 1.914063-8.375l-41.335938-101.902344c-1.832031-4.800781-2.335937-4.957031-1.800781-5.753906.21875-.328125.53125-.492188.925781-.492188h22.753907c-1.203126 2-1.972657 4.265626-2.203126 6.648438-.5 5.105469 1.511719 10.171875 5.378907 13.542969l17.449219 15.210937-5.21875 21.441406c-1.722657 7.066407-.753907 14.476563 2.730468 20.863282l24.757813 45.4375v32.410156zm131.84375 0v-32.410156l24.761719-45.433594c3.480469-6.386719 4.449219-13.796875 2.726562-20.867188l-5.21875-21.4375 17.449219-15.210937c3.867188-3.375 5.878906-8.4375 5.378906-13.546875-.230468-2.382812-1-4.648438-2.199218-6.644531 23.414062.164062 23.050781-.4375 23.675781.488281.355469.527344 3.417969-6.285156-43.136719 107.65625-1.179688 2.917969-.417969 6.261719 1.914062 8.375l22.535157 20.4375v18.597656h-47.886719zm0 0"/><path d="m97.136719 198.398438c4.144531 0 7.5-3.355469 7.5-7.5v-3.105469c0-4.140625-3.355469-7.5-7.5-7.5-4.140625 0-7.5 3.359375-7.5 7.5v3.105469c0 4.144531 3.359375 7.5 7.5 7.5zm0 0"/><path d="m200.59375 190.898438v-3.105469c0-4.140625-3.355469-7.5-7.5-7.5-4.140625 0-7.5 3.359375-7.5 7.5v3.105469c0 4.144531 3.359375 7.5 7.5 7.5 4.144531 0 7.5-3.355469 7.5-7.5zm0 0"/><path d="m145.117188 258.3125c9.226562 0 17.894531-3.988281 24.417968-11.226562 2.769532-3.078126 2.523438-7.820313-.554687-10.589844-3.074219-2.773438-7.820313-2.527344-10.589844.550781-3.640625 4.039063-8.355469 6.265625-13.273437 6.265625-4.921876 0-9.636719-2.226562-13.273438-6.265625-2.773438-3.078125-7.515625-3.324219-10.59375-.550781-3.078125 2.769531-3.324219 7.515625-.550781 10.589844 6.519531 7.238281 15.191406 11.226562 24.417969 11.226562zm0 0"/></svg>