<?xml version="1.0" encoding="UTF-8" standalone="no"?>
<!DOCTYPE svg PUBLIC "-//W3C//DTD SVG 1.1//EN" "http://www.w3.org/Graphics/SVG/1.1/DTD/svg11.dtd">
<svg version="1.1" xmlns="http://www.w3.org/2000/svg" xmlns:xlink="http://www.w3.org/1999/xlink" preserveAspectRatio="xMidYMid meet" viewBox="0 0 681 681" width="681" height="681"><defs><path d="M524.46 672.01L157.85 672.01L189.61 466.66C189.97 464.35 190.17 463.07 190.21 462.82C191.81 452.45 200.73 444.82 211.21 444.82C216.81 444.82 241.26 443.15 284.57 439.82L295.23 363.24L387.08 363.24L399.07 444.82C441.49 444.82 465.51 444.82 471.11 444.82C481.59 444.82 490.5 452.45 492.11 462.82C492.15 463.07 492.34 464.35 492.7 466.66L524.46 672.01Z" id="b1cBDum0uc"></path><path d="M488.28 465.64C488.02 463.44 487.88 462.22 487.85 461.98C486.67 452.1 480.11 444.82 472.4 444.82C470.31 444.82 453.56 444.82 451.47 444.82C459.17 444.82 465.74 452.1 466.91 461.98C466.94 462.22 467.09 463.44 467.35 465.64L490.72 661.42L511.64 661.42L488.28 465.64Z" id="a6rDQeBe1"></path><path d="M517 89.92C517 61.09 415.9 23.71 387.07 23.71C370.62 23.71 276.53 22.07 190.64 91.43C160.07 116.11 135.81 145.65 117.87 180.04C87.97 237.36 75.56 302.2 82.19 366.51C82.19 366.51 82.19 366.51 82.19 366.51C165.26 381.83 246.86 386.95 327.02 381.88C407.17 376.81 485.87 361.54 563.11 336.08C576.45 225.3 583.11 162.62 583.11 148.06C583.11 120.8 561.02 98.7 533.75 98.7C532.8 98.7 525.21 98.7 524.27 98.7C520.25 98.7 517 95.44 517 91.43C517 91.12 517 90.07 517 89.92Z" id="dd2UBlHI"></path><linearGradient id="gradientahiRiIshb" gradientUnits="userSpaceOnUse" x1="318.45" y1="254.88" x2="318.45" y2="457.15"><stop style="stop-color: #483c4a;stop-opacity: 1" offset="0%"></stop><stop style="stop-color: #b72f36;stop-opacity: 1" offset="100%"></stop></linearGradient><path d="M449.54 240.9L449.54 313.49C476.61 313.49 491.65 313.49 494.66 313.49C507.44 313.49 517.8 303.13 517.8 290.36C517.8 287.72 517.8 266.66 517.8 264.03C517.8 251.25 507.44 240.9 494.66 240.9C488.64 240.9 473.6 240.9 449.54 240.9Z" id="c6yetldE9F"></path><path d="M232.76 240.9L232.76 313.49C205.7 313.49 190.66 313.49 187.65 313.49C174.87 313.49 164.51 303.13 164.51 290.36C164.51 287.72 164.51 266.66 164.51 264.03C164.51 251.25 174.87 240.9 187.65 240.9C193.67 240.9 208.7 240.9 232.76 240.9Z" id="acCzDcXMr"></path><path d="M295.23 431.51C305.7 436.62 316.92 440.42 328.69 442.69C337.04 444.31 345.65 445.15 354.47 445.15C365.72 445.15 376.63 443.77 387.07 441.18C387.07 435.99 387.07 410.01 387.07 363.24L295.23 363.24C295.23 399.65 295.23 422.41 295.23 431.51Z" id="b5iHEZZpGG"></path><path d="M244.76 448.82L341.15 486.16L437.54 448.82L437.54 672.01L244.76 672.01L244.76 448.82Z" id="e168bKkgJ"></path><path d="M405.06 588.16C405.06 622.57 376.43 650.5 341.15 650.5C305.88 650.5 277.25 622.57 277.25 588.16C277.25 553.76 305.88 525.83 341.15 525.83C376.43 525.83 405.06 553.76 405.06 588.16Z" id="cayZ0zXgN"></path><path d="M283.23 439.82L283.23 525.83L295.23 672.33L211.46 672.33L211.46 633.15L205.93 600.32C197.68 501.58 193.47 452.01 193.3 451.6C190.25 444.06 217.95 439.82 226.1 439.82C239.09 439.82 258.13 439.82 283.23 439.82Z" id="b4E3lFwRhp"></path><path d="M491.15 499.99L470.85 632.83L470.85 672.01L387.07 672.01L395.07 531.83L399.07 445.15C449.54 444.93 478.01 444.82 484.51 444.82C489.94 444.82 493.48 450.09 495.15 460.61L491.15 499.99Z" id="e1AZef97G"></path><path d="M205.93 280.6C205.93 355.28 266.47 415.82 341.15 415.82C415.84 415.82 476.38 355.28 476.38 280.6C476.38 270.7 476.38 191.54 476.38 181.65C476.38 166.78 477.43 141.52 447.25 119.52C427.13 104.85 391.77 113.91 341.15 146.7C290.07 116.58 254.7 107.52 235.05 119.52C205.57 137.52 205.93 160.78 205.93 175.65C205.93 195.44 205.93 270.7 205.93 280.6Z" id="j2C699XCOs"></path><path d="M373.68 329.12C377.37 325.02 377.04 318.71 372.94 315.02C368.85 311.32 362.53 311.65 358.84 315.75C353.99 321.13 347.71 324.1 341.16 324.1C334.6 324.1 328.32 321.13 323.48 315.75C319.78 311.65 313.46 311.32 309.36 315.02C305.26 318.71 304.94 325.03 308.63 329.12C317.31 338.77 328.87 344.08 341.16 344.08C353.45 344.08 364.99 338.77 373.68 329.12Z" id="a3BYWofQX"></path><path d="M417.16 122.83C428.63 122.83 442.19 171.25 442.19 184.92C442.19 194.01 442.19 266.76 442.19 275.85C442.19 339.27 402.34 391.6 350.86 399.18C355.09 399.8 359.4 400.13 363.78 400.13C421.35 400.13 468.02 344.49 468.02 275.85C468.02 266.76 468.02 171.34 468.02 162.25C468.02 148.58 444.06 122.83 432.59 122.83C427.43 122.83 419.75 122.83 417.16 122.83Z" id="deubBxm6V"></path><path d="M287.24 254.28C287.24 253.87 287.24 250.56 287.24 250.14C287.24 244.63 282.77 240.15 277.24 240.15C271.73 240.15 267.25 244.63 267.25 250.14C267.25 250.56 267.25 253.87 267.25 254.28C267.25 259.8 271.73 264.27 277.24 264.27C282.77 264.27 287.24 259.8 287.24 254.28Z" id="a5gTMxVlE"></path><path d="M415.05 250.14C415.05 244.63 410.58 240.15 405.06 240.15C399.55 240.15 395.07 244.63 395.07 250.14C395.07 250.56 395.07 253.87 395.07 254.28C395.07 259.8 399.55 264.27 405.06 264.27C410.58 264.27 415.05 259.8 415.05 254.28C415.05 253.45 415.05 250.56 415.05 250.14Z" id="b2SX8X3qtY"></path></defs><g><g><g><use xlink:href="#b1cBDum0uc" opacity="1" fill="#ffc999" fill-opacity="1"></use><g><use xlink:href="#b1cBDum0uc" opacity="1" fill-opacity="0" stroke="#000000" stroke-width="20" stroke-opacity="1"></use></g></g><g><use xlink:href="#a6rDQeBe1" opacity="1" fill="#e89c5d" fill-opacity="1"></use><g><use xlink:href="#a6rDQeBe1" opacity="1" fill-opacity="0" stroke="#000000" stroke-width="1" stroke-opacity="0"></use></g></g><g><g><filter id="shadow5670026" x="71.45" y="14.71" width="521.66" height="379.06" filterUnits="userSpaceOnUse" primitiveUnits="userSpaceOnUse"><feFlood></feFlood><feComposite in2="SourceAlpha" operator="in"></feComposite><feGaussianBlur stdDeviation="1"></feGaussianBlur><feOffset dx="1" dy="1" result="afterOffset"></feOffset><feFlood flood-color="#000000" flood-opacity="0.5"></feFlood><feComposite in2="afterOffset" operator="in"></feComposite><feMorphology operator="dilate" radius="1"></feMorphology><feComposite in2="SourceAlpha" operator="out"></feComposite></filter><path d="M517 89.92C517 61.09 415.9 23.71 387.07 23.71C370.62 23.71 276.53 22.07 190.64 91.43C160.07 116.11 135.81 145.65 117.87 180.04C87.97 237.36 75.56 302.2 82.19 366.51C82.19 366.51 82.19 366.51 82.19 366.51C165.26 381.83 246.86 386.95 327.02 381.88C407.17 376.81 485.87 361.54 563.11 336.08C576.45 225.3 583.11 162.62 583.11 148.06C583.11 120.8 561.02 98.7 533.75 98.7C532.8 98.7 525.21 98.7 524.27 98.7C520.25 98.7 517 95.44 517 91.43C517 91.12 517 90.07 517 89.92Z" id="aIQHYw1Ys" fill="white" fill-opacity="1" filter="url(#shadow5670026)"></path></g><use xlink:href="#dd2UBlHI" opacity="1" fill="url(#gradientahiRiIshb)"></use><g><use xlink:href="#dd2UBlHI" opacity="1" fill-opacity="0" stroke="#000000" stroke-width="20" stroke-opacity="1"></use></g></g><g><use xlink:href="#c6yetldE9F" opacity="1" fill="#ffc999" fill-opacity="1"></use><g><use xlink:href="#c6yetldE9F" opacity="1" fill-opacity="0" stroke="#000000" stroke-width="1" stroke-opacity="0"></use></g></g><g><use xlink:href="#acCzDcXMr" opacity="1" fill="#ffc999" fill-opacity="1"></use><g><use xlink:href="#acCzDcXMr" opacity="1" fill-opacity="0" stroke="#000000" stroke-width="1" stroke-opacity="0"></use></g></g><g><use xlink:href="#b5iHEZZpGG" opacity="1" fill="#e89c5d" fill-opacity="1"></use><g><use xlink:href="#b5iHEZZpGG" opacity="1" fill-opacity="0" stroke="#000000" stroke-width="1" stroke-opacity="0"></use></g></g><g><use xlink:href="#e168bKkgJ" opacity="1" fill="#e8fbf8" fill-opacity="1"></use><g><use xlink:href="#e168bKkgJ" opacity="1" fill-opacity="0" stroke="#000000" stroke-width="20" stroke-opacity="0.94"></use></g></g><g><use xlink:href="#cayZ0zXgN" opacity="1" fill="#964f35" fill-opacity="0.75"></use></g><g><use xlink:href="#b4E3lFwRhp" opacity="1" fill="#7393d8" fill-opacity="1"></use><g><use xlink:href="#b4E3lFwRhp" opacity="1" fill-opacity="0" stroke="#000000" stroke-width="20" stroke-opacity="1"></use></g></g><g><use xlink:href="#e1AZef97G" opacity="1" fill="#7393d8" fill-opacity="1"></use><g><use xlink:href="#e1AZef97G" opacity="1" fill-opacity="0" stroke="#000000" stroke-width="20" stroke-opacity="1"></use></g></g><g><use xlink:href="#j2C699XCOs" opacity="1" fill="#ffc999" fill-opacity="1"></use><g><use xlink:href="#j2C699XCOs" opacity="1" fill-opacity="0" stroke="#000000" stroke-width="20" stroke-opacity="1"></use></g></g><g><use xlink:href="#a3BYWofQX" opacity="1" fill="#000000" fill-opacity="1"></use><g><use xlink:href="#a3BYWofQX" opacity="1" fill-opacity="0" stroke="#000000" stroke-width="1" stroke-opacity="0"></use></g></g><g><use xlink:href="#deubBxm6V" opacity="1" fill="#e89c5d" fill-opacity="1"></use><g><use xlink:href="#deubBxm6V" opacity="1" fill-opacity="0" stroke="#000000" stroke-width="1" stroke-opacity="0"></use></g></g><g><use xlink:href="#a5gTMxVlE" opacity="1" fill="#000000" fill-opacity="1"></use><g><use xlink:href="#a5gTMxVlE" opacity="1" fill-opacity="0" stroke="#000000" stroke-width="1" stroke-opacity="0"></use></g></g><g><use xlink:href="#b2SX8X3qtY" opacity="1" fill="#000000" fill-opacity="1"></use><g><use xlink:href="#b2SX8X3qtY" opacity="1" fill-opacity="0" stroke="#000000" stroke-width="1" stroke-opacity="0"></use></g></g></g></g></svg>