<svg id="Capa_1" enable-background="new 0 0 512 512" height="512" viewBox="0 0 512 512" width="512" xmlns="http://www.w3.org/2000/svg"><g><g><g><path d="m151 482v15c0 8.399-6.599 15-15 15s-15-6.601-15-15v-15l15-30z" fill="#5c6699"/></g><g><path d="m391 482v15c0 8.399-6.599 15-15 15s-15-6.601-15-15v-15l15-30z" fill="#404a80"/></g></g><g><g><g><g><path d="m346 0h-180c-24.901 0-45 20.099-45 45v437h270v-437c0-24.901-20.098-45-45-45z" fill="#5c6699"/></g></g></g></g><path d="m346 0h-90v482h135v-437c0-24.901-20.098-45-45-45z" fill="#404a80"/><g><g><g><g><path d="m256 420c-41.367 0-75-33.647-75-75s33.633-75 75-75 75 33.647 75 75-33.633 75-75 75z" fill="#edf5ff"/></g></g></g></g><g><path d="m256 240c-41.367 0-75-33.647-75-75s33.633-75 75-75 75 33.647 75 75-33.633 75-75 75z" fill="#edf5ff"/></g><g id="Speaker_2_"><g><path d="m417.605 256.758c-5.859-5.859-5.859-15.352 0-21.211 1.641-1.641 4.395-5.2 4.395-10.547s-2.754-8.906-4.395-10.547c-5.859-5.859-5.859-15.352 0-21.211s15.352-5.859 21.211 0c4.922 4.922 13.184 15.601 13.184 31.758s-8.262 26.836-13.184 31.758c-5.859 5.859-15.351 5.859-21.211 0z" fill="#69f"/></g><g><path d="m459.998 299.194c-5.859-5.859-5.859-15.352 0-21.211 14.18-14.15 22.002-32.973 22.002-52.983s-7.822-38.833-22.002-52.983c-5.859-5.859-5.859-15.352 0-21.211 5.859-5.889 15.352-5.859 21.211-.029 19.863 19.833 30.791 46.186 30.791 74.223s-10.928 54.39-30.791 74.224c-5.863 5.834-15.355 5.855-21.211-.03z" fill="#69f"/></g><g><path d="m73.213 256.758c-4.922-4.937-13.213-15.615-13.213-31.758s8.291-26.821 13.213-31.758c5.859-5.859 15.352-5.859 21.211 0s5.859 15.352 0 21.211c-2.022 2.022-4.424 5.493-4.424 10.547s2.402 8.525 4.424 10.547c5.859 5.859 5.859 15.352 0 21.211s-15.352 5.859-21.211 0z" fill="#80bfff"/></g><g><path d="m30.791 299.209c-19.863-19.849-30.791-46.216-30.791-74.209s10.928-54.36 30.791-74.209c5.859-5.859 15.352-5.859 21.211 0s5.859 15.352 0 21.211c-14.18 14.194-22.002 33.018-22.002 52.998s7.822 38.804 22.002 52.998c5.859 5.859 5.859 15.352 0 21.211s-15.351 5.86-21.211 0z" fill="#80bfff"/></g><g><circle cx="316" cy="75" fill="#b5dbff" r="15"/></g><g><circle cx="196" cy="75" fill="#d5e8fe" r="15"/></g></g><g><path d="m331 345c0-41.353-33.633-75-75-75v150c41.367 0 75-33.647 75-75z" fill="#d5e8fe"/><circle cx="256" cy="345" fill="#5c6699" r="45"/><path d="m301 345c0-24.813-20.187-45-45-45v90c24.813 0 45-20.187 45-45z" fill="#404a80"/><path d="m331 165c0-41.353-33.633-75-75-75v150c41.367 0 75-33.647 75-75z" fill="#d5e8fe"/><circle cx="256" cy="165" fill="#5c6699" r="45"/><path d="m301 165c0-24.813-20.187-45-45-45v90c24.813 0 45-20.187 45-45z" fill="#404a80"/></g><g><g><g><circle cx="256" cy="345" fill="#edf5ff" r="15"/></g></g></g><g><g><g><circle cx="256" cy="165" fill="#edf5ff" r="15"/></g></g></g><g fill="#d5e8fe"><path d="m271 345c0-8.286-6.716-15-15-15v30c8.284 0 15-6.716 15-15z"/><path d="m271 165c0-8.286-6.716-15-15-15v30c8.284 0 15-6.716 15-15z"/></g></g></svg>