<?xml version="1.0" encoding="iso-8859-1"?>
<!-- Generator: Adobe Illustrator 19.0.0, SVG Export Plug-In . SVG Version: 6.00 Build 0)  -->
<svg version="1.1" id="Capa_1" xmlns="http://www.w3.org/2000/svg" xmlns:xlink="http://www.w3.org/1999/xlink" x="0px" y="0px"
	 viewBox="0 0 488.494 488.494" style="enable-background:new 0 0 488.494 488.494;" xml:space="preserve">
<path style="fill:#E2A63B;" d="M488.494,318.721v55.38c0,18.808-50.155,34.482-111.804,34.482s-110.759-15.151-110.759-33.959
	v-6.269l-1.045-43.886h0.522c8.359,16.196,54.335,28.735,109.714,28.735s112.327-15.673,112.327-34.482H488.494z"/>
<path style="fill:#F4B844;" d="M373.555,112.876v54.857h-1.045c0,19.331-51.722,34.482-112.849,34.482
	c-23.51,0.522-47.543-2.09-70.531-7.837l-1.045,1.045c-11.494-9.404-24.555-16.718-38.661-21.42v-1.045l-1.567-57.992
	c3.657,17.763,52.245,31.869,111.282,31.869s113.371-15.151,113.371-33.959H373.555z"/>
<path style="fill:#FEDB41;" d="M373.555,114.443L373.555,114.443c0,18.808-51.722,33.959-113.371,33.959
	s-108.147-14.106-111.804-31.869c0-0.522-0.522-1.567-0.522-2.09c0-18.808,50.155-34.482,112.327-34.482
	C322.355,78.917,373.555,94.59,373.555,114.443z"/>
<path style="fill:#F4B844;" d="M265.408,324.468L265.408,324.468l-0.522-11.494l-1.045-47.02
	c3.657,17.763,52.245,31.869,111.282,31.869s111.282-15.151,112.849-33.437h0.522v54.335h-1.045
	c0,18.808-50.678,34.482-112.327,34.482S273.767,340.663,265.408,324.468z"/>
<path style="fill:#E2A63B;" d="M190.698,359.994c14.106-13.061,25.078-29.78,30.824-48.065h2.612
	c11.494,1.045,22.988,1.567,35.527,1.567h5.224v11.494l1.045,43.886h-5.747c-22.988,0.522-45.453-2.09-67.918-7.314L190.698,359.994
	z"/>
<path style="fill:#F4B844;" d="M265.408,261.774v2.612l1.045,48.588h-5.225c-13.061,0-25.078-0.522-36.571-1.567h-2.612
	c3.657-10.971,5.224-22.465,5.224-33.959c0-7.837-1.045-15.151-2.612-22.465h2.612c10.971,1.045,21.943,1.567,33.959,1.567
	l4.702,2.612C265.408,260.729,265.408,261.251,265.408,261.774z"/>
<path style="fill:#E2A63B;" d="M189.131,194.378c22.988,5.747,47.02,8.359,70.531,7.837c61.126,0,112.849-15.151,112.849-34.482
	h1.045v61.649c-56.947,0-103.445,13.584-109.192,30.824l-4.702-2.612c-11.494,0-22.465-0.522-32.914-1.567h-2.612
	c-4.702-24.033-17.241-45.453-36.049-61.127L189.131,194.378z"/>
<g>
	<path style="fill:#FEDB41;" d="M226.747,256.027L226.747,256.027c-5.224-24.555-18.808-46.498-37.616-63.216
		c-11.494-10.449-25.6-18.286-40.229-22.465c-10.449-3.657-22.465-5.224-33.437-5.224C52.249,164.598,0.526,215.276,0.004,277.97
		c-0.522,63.216,50.155,114.939,112.849,115.461c29.257,0,56.947-10.449,78.367-30.302c14.629-13.584,26.122-31.347,31.869-50.678
		c3.657-10.971,5.224-22.465,5.224-33.959C228.837,271.178,226.747,263.341,226.747,256.027z"/>
	<path style="fill:#FEDB41;" d="M487.971,263.341v1.045c-1.567,18.286-52.245,33.437-112.849,33.437s-107.625-14.106-111.282-31.869
		v-2.612c0-1.045,0-2.09,0.522-3.135c5.747-17.241,52.245-30.824,109.192-30.824h1.567
		C436.771,229.382,487.971,245.055,487.971,263.341z"/>
</g>
<path style="fill:#E2A63B;" d="M170.845,333.872c-1.567-5.747-7.314-8.882-12.539-7.314c0,0,0,0-0.522,0l-6.792,2.09
	c-6.792,2.09-14.106,1.567-20.375-1.567c-7.837-4.18-16.196-5.747-25.078-5.224c2.09-5.224,3.657-10.449,4.18-16.196l0,0
	c0-3.135,0.522-6.269,0.522-8.882h20.898c5.747,0,10.449-4.702,10.449-10.449c0-5.747-4.702-10.449-10.449-10.449h-22.465
	c-0.522-4.18-1.567-8.359-2.612-13.061c-1.045-5.224-1.567-9.926-2.09-15.151c0-2.09,0.522-4.702,1.567-6.792
	c1.045-2.09,2.09-4.702,3.657-6.269c2.09-1.567,4.18-3.135,6.269-4.18c2.612-1.045,5.224-1.567,7.837-1.567
	c14.106,0,17.241,7.837,18.808,13.584c0.522,5.224,5.224,8.882,10.449,8.359c0.522,0,1.045,0,1.567-0.522
	c5.747-1.045,9.404-6.269,8.359-12.016v-0.522c-4.18-19.331-18.286-30.302-39.184-30.302c-5.224,0-10.971,1.045-15.673,3.135
	c-5.224,2.09-9.404,5.224-13.584,8.882c-3.135,3.657-5.747,8.359-7.837,13.061c-2.09,4.702-3.135,9.404-3.135,14.629
	c0,6.792,1.045,13.584,3.135,20.375l1.567,7.837H68.445c-5.747,0-10.449,4.702-10.449,10.449s4.702,10.449,10.449,10.449h20.898
	c0,2.09-0.522,4.18-0.522,6.792l0,0c-0.522,6.269-2.612,12.539-6.792,17.763l-4.702,7.314c-2.612,3.135-3.135,7.837-1.045,11.494
	c2.09,3.657,6.269,5.224,10.449,4.702l18.808-2.09c5.224-0.522,10.971,0.522,15.673,2.612c6.792,3.657,14.106,5.747,21.943,5.747
	c4.702,0,9.404-0.522,14.106-2.09l6.269-1.567C169.277,344.843,172.412,339.096,170.845,333.872z"/>
<g>
</g>
<g>
</g>
<g>
</g>
<g>
</g>
<g>
</g>
<g>
</g>
<g>
</g>
<g>
</g>
<g>
</g>
<g>
</g>
<g>
</g>
<g>
</g>
<g>
</g>
<g>
</g>
<g>
</g>
</svg>
