<?xml version="1.0" encoding="UTF-8" standalone="no"?>
<!DOCTYPE svg PUBLIC "-//W3C//DTD SVG 1.1//EN" "http://www.w3.org/Graphics/SVG/1.1/DTD/svg11.dtd">
<svg version="1.1" xmlns="http://www.w3.org/2000/svg" xmlns:xlink="http://www.w3.org/1999/xlink" preserveAspectRatio="xMidYMid meet" viewBox="0 0 681 681" width="681" height="681"><defs><path d="M524.46 672.01L157.85 672.01L189.61 466.66C189.97 464.35 190.17 463.07 190.21 462.82C191.81 452.45 200.73 444.82 211.21 444.82C216.81 444.82 241.26 443.15 284.57 439.82L295.23 363.24L387.08 363.24L399.07 444.82C441.49 444.82 465.51 444.82 471.11 444.82C481.59 444.82 490.5 452.45 492.11 462.82C492.15 463.07 492.34 464.35 492.7 466.66L524.46 672.01Z" id="b517u5ad7Z"></path><path d="M488.28 465.64C488.02 463.44 487.88 462.22 487.85 461.98C486.67 452.1 480.11 444.82 472.4 444.82C470.31 444.82 453.56 444.82 451.47 444.82C459.17 444.82 465.74 452.1 466.91 461.98C466.94 462.22 467.09 463.44 467.35 465.64L490.72 661.42L511.64 661.42L488.28 465.64Z" id="b1yOvn74sn"></path><path d="M449.54 240.9L449.54 313.49C476.61 313.49 491.65 313.49 494.66 313.49C507.44 313.49 517.8 303.13 517.8 290.36C517.8 287.72 517.8 266.66 517.8 264.03C517.8 251.25 507.44 240.9 494.66 240.9C488.64 240.9 473.6 240.9 449.54 240.9Z" id="b2Mj81uhGi"></path><path d="M232.76 240.9L232.76 313.49C205.7 313.49 190.66 313.49 187.65 313.49C174.87 313.49 164.51 303.13 164.51 290.36C164.51 287.72 164.51 266.66 164.51 264.03C164.51 251.25 174.87 240.9 187.65 240.9C193.67 240.9 208.7 240.9 232.76 240.9Z" id="a11Zg1F9IM"></path><path d="M295.23 431.51C305.7 436.62 316.92 440.42 328.69 442.69C337.04 444.31 345.65 445.15 354.47 445.15C365.72 445.15 376.63 443.77 387.07 441.18C387.07 435.99 387.07 410.01 387.07 363.24L295.23 363.24C295.23 399.65 295.23 422.41 295.23 431.51Z" id="a14uYRbluZ"></path><path d="M236.29 588.16L175.14 546.54C171.59 546.68 170.25 533.49 171.14 506.96C172.48 467.16 188.07 452.66 198.17 445.15C204.89 440.15 222.94 437.37 252.29 436.82C280.42 469.71 309.89 486.16 340.68 486.16C371.48 486.16 398.28 471.15 421.07 441.15C454.51 439.07 474.51 440.41 481.08 445.15C490.94 452.27 506.66 474.24 508.5 506.96C510.34 539.67 511.44 536.15 508.5 546.54C505.18 558.27 484.04 572.14 445.07 588.16L445.07 672.01C332.12 672.01 261.52 672.01 233.28 672.01C233.11 672.01 232.97 671.86 232.97 671.68C233.41 660.55 234.52 632.71 236.29 588.16Z" id="e1fVWay63p"></path><path d="M429.41 448.52C415.09 466.59 397.37 480.25 376.25 489.51C355.13 498.78 331.73 498.78 306.06 489.51C273.59 537.95 253.3 568.22 245.18 580.33C244.6 581.19 244.29 582.2 244.29 583.24C244.29 593.66 244.29 619.72 244.29 661.42L465.64 448.52L429.41 448.52Z" id="b4rTz2sa6k"></path><path d="M212.9 333.54C222.31 370.58 268.73 417 343.42 417C418.1 417 477.7 381.17 485.93 333.54C494.17 285.91 485.93 259.39 485.93 249.49C485.93 234.62 490.56 148.79 447.3 118.36C404.04 87.93 281.37 91.11 238.56 127.78C195.74 164.44 208.19 238.52 208.19 253.39C208.19 273.18 203.49 296.5 212.9 333.54Z" id="a2YJpxE8Zn"></path><path d="M373.68 329.12C377.37 325.02 377.04 318.71 372.94 315.02C368.85 311.32 362.53 311.65 358.84 315.75C353.99 321.13 347.71 324.1 341.16 324.1C334.6 324.1 328.32 321.13 323.48 315.75C319.78 311.65 313.46 311.32 309.36 315.02C305.26 318.71 304.94 325.03 308.63 329.12C317.31 338.77 328.87 344.08 341.16 344.08C353.45 344.08 364.99 338.77 373.68 329.12Z" id="edWBvlBLb"></path><path d="M457.59 145.68C446.62 125.39 432.04 122.84 430.03 122.84C441.5 122.84 451.6 212.99 451.6 224.49C451.6 232.15 451.6 293.41 451.6 301.06C451.6 354.47 411.75 398.52 360.27 404.9C364.5 405.43 368.81 405.71 373.19 405.71C430.76 405.71 475.07 355.28 476.24 326.9C477.42 298.52 476.78 293.51 476.24 286.14C474.83 266.72 473.9 259.27 473.9 253.72C473.9 242.22 475.43 206.33 465.64 172.48C463.49 165.04 460.68 151.4 457.59 145.68Z" id="c4Rbv9XZZT"></path><path d="M287.24 254.28C287.24 253.87 287.24 250.56 287.24 250.14C287.24 244.63 282.77 240.15 277.24 240.15C271.73 240.15 267.25 244.63 267.25 250.14C267.25 250.56 267.25 253.87 267.25 254.28C267.25 259.8 271.73 264.27 277.24 264.27C282.77 264.27 287.24 259.8 287.24 254.28Z" id="apG8METrw"></path><path d="M415.05 250.14C415.05 244.63 410.58 240.15 405.06 240.15C399.55 240.15 395.07 244.63 395.07 250.14C395.07 250.56 395.07 253.87 395.07 254.28C395.07 259.8 399.55 264.27 405.06 264.27C410.58 264.27 415.05 259.8 415.05 254.28C415.05 253.45 415.05 250.56 415.05 250.14Z" id="aoYSbrzRn"></path><path d="M471.8 85.19C524.58 116.26 529.8 157.76 529.8 161.71C529.8 185.15 461.61 148.55 432.94 164.5C401.24 182.13 348.32 164.5 298.06 164.5C278.91 164.5 247 215.84 229.77 212.88C195.66 207.02 218.01 204.08 197 189.5C175.56 174.62 175.82 127.97 185.23 108.03C190.78 96.27 203.52 87.68 237.24 73.93C260.66 64.37 227.08 28.03 318.69 37.44C410.29 46.85 419.02 54.12 471.8 85.19Z" id="b4lKhX5tCG"></path><linearGradient id="gradientbvzgcJKPr" gradientUnits="userSpaceOnUse" x1="252.11" y1="75.9" x2="270.6" y2="174.18"><stop style="stop-color: #ffffff;stop-opacity: 1" offset="0%"></stop><stop style="stop-color: #010000;stop-opacity: 1" offset="100%"></stop></linearGradient></defs><g><g><g><use xlink:href="#b517u5ad7Z" opacity="1" fill="#ffc999" fill-opacity="1"></use><g><use xlink:href="#b517u5ad7Z" opacity="1" fill-opacity="0" stroke="#000000" stroke-width="20" stroke-opacity="1"></use></g></g><g><use xlink:href="#b1yOvn74sn" opacity="1" fill="#e89c5d" fill-opacity="1"></use><g><use xlink:href="#b1yOvn74sn" opacity="1" fill-opacity="0" stroke="#000000" stroke-width="1" stroke-opacity="0"></use></g></g><g><use xlink:href="#b2Mj81uhGi" opacity="1" fill="#ffc999" fill-opacity="1"></use><g><use xlink:href="#b2Mj81uhGi" opacity="1" fill-opacity="0" stroke="#000000" stroke-width="1" stroke-opacity="0"></use></g></g><g><use xlink:href="#a11Zg1F9IM" opacity="1" fill="#ffc999" fill-opacity="1"></use><g><use xlink:href="#a11Zg1F9IM" opacity="1" fill-opacity="0" stroke="#000000" stroke-width="1" stroke-opacity="0"></use></g></g><g><use xlink:href="#a14uYRbluZ" opacity="1" fill="#e89c5d" fill-opacity="1"></use><g><use xlink:href="#a14uYRbluZ" opacity="1" fill-opacity="0" stroke="#000000" stroke-width="1" stroke-opacity="0"></use></g></g><g><use xlink:href="#e1fVWay63p" opacity="1" fill="#280c38" fill-opacity="1"></use><g><use xlink:href="#e1fVWay63p" opacity="1" fill-opacity="0" stroke="#000000" stroke-width="20" stroke-opacity="0.94"></use></g></g><g><use xlink:href="#b4rTz2sa6k" opacity="1" fill="#6a6b98" fill-opacity="0.58"></use></g><g><use xlink:href="#a2YJpxE8Zn" opacity="1" fill="#ffc999" fill-opacity="1"></use><g><use xlink:href="#a2YJpxE8Zn" opacity="1" fill-opacity="0" stroke="#000000" stroke-width="20" stroke-opacity="1"></use></g></g><g><use xlink:href="#edWBvlBLb" opacity="1" fill="#000000" fill-opacity="1"></use><g><use xlink:href="#edWBvlBLb" opacity="1" fill-opacity="0" stroke="#000000" stroke-width="1" stroke-opacity="0"></use></g></g><g><use xlink:href="#c4Rbv9XZZT" opacity="1" fill="#e89c5d" fill-opacity="1"></use><g><use xlink:href="#c4Rbv9XZZT" opacity="1" fill-opacity="0" stroke="#000000" stroke-width="1" stroke-opacity="0"></use></g></g><g><use xlink:href="#apG8METrw" opacity="1" fill="#000000" fill-opacity="1"></use><g><use xlink:href="#apG8METrw" opacity="1" fill-opacity="0" stroke="#000000" stroke-width="1" stroke-opacity="0"></use></g></g><g><use xlink:href="#aoYSbrzRn" opacity="1" fill="#000000" fill-opacity="1"></use><g><use xlink:href="#aoYSbrzRn" opacity="1" fill-opacity="0" stroke="#000000" stroke-width="1" stroke-opacity="0"></use></g></g><g><use xlink:href="#b4lKhX5tCG" opacity="1" fill="url(#gradientbvzgcJKPr)"></use><g><use xlink:href="#b4lKhX5tCG" opacity="1" fill-opacity="0" stroke="#03210b" stroke-width="20" stroke-opacity="1"></use></g></g></g></g></svg>