<svg id="Layer_1" enable-background="new 0 0 128 128" height="512" viewBox="0 0 128 128" width="512" xmlns="http://www.w3.org/2000/svg"><path d="m107.003 47.242c-1.369-1.358-3.591-1.352-4.952.02-.658.664-1.02 1.544-1.016 2.479s.371 1.813 1.035 2.472c2.255 2.238 3.584 5.583 3.645 9.176s-1.155 6.981-3.335 9.295c-.629.668-.967 1.542-.951 2.459.016.952.407 1.836 1.101 2.489.654.617 1.502.953 2.397.953.035 0 .071 0 .107-.001.935-.028 1.803-.418 2.443-1.099 3.42-3.629 5.329-8.81 5.239-14.214-.091-5.402-2.173-10.516-5.713-14.029z" fill="#e6e7e8"/><path d="m114.716 41.599c-.656-.666-1.533-1.037-2.468-1.043-.973-.023-1.818.351-2.482 1.007-.667.656-1.038 1.533-1.045 2.468s.351 1.817 1.008 2.483c3.619 3.674 5.751 9.083 5.847 14.84.098 5.757-1.851 11.235-5.345 15.028-.611.663-.939 1.526-.926 2.43v.002c.018.955.429 1.872 1.129 2.516.652.6 1.488.926 2.369.926.049 0 .098-.001.147-.003.934-.039 1.798-.438 2.431-1.126 4.7-5.103 7.323-12.353 7.196-19.89-.126-7.538-2.991-14.696-7.861-19.638z" fill="#e6e7e8"/><path d="m97.302 55.579v-3.051c0-.807-.412-1.539-1.102-1.958-.689-.42-1.528-.448-2.245-.076l-7.115 3.691c-.023.012-.041.031-.063.045-.322-.092-.655-.157-1.006-.157h-.688c-4.174 0-7.57 3.396-7.57 7.57s3.396 7.57 7.57 7.57h.688c.351 0 .684-.065 1.006-.157.022.014.04.032.063.045l7.115 3.691c.335.174.696.26 1.057.26.411 0 .821-.112 1.188-.335.689-.419 1.102-1.151 1.102-1.958v-3.051c2.305-.186 4.075-2.778 4.075-6.065 0-3.286-1.77-5.878-4.075-6.064z" fill="#e6e7e8"/><path d="m90.4 82.113c0-4.234-2.541-7.992-6.475-9.574-.308-.123-.656-.087-.933.099-.275.186-.44.497-.44.829v5.85c0 1.364-1.11 2.475-2.475 2.475s-2.475-1.11-2.475-2.475v-5.85c0-.332-.165-.643-.44-.829-.276-.186-.626-.223-.933-.099-2.027.816-3.68 2.212-4.81 3.95-4.055-3.124-8.925-5.234-14.233-5.956 6.116-2.941 10.774-8.442 12.585-15.104.172.141.384.237.624.237 5.995 0 10.872-4.877 10.872-10.873 0-4.49-2.736-8.352-6.628-10.008-1.28-14.698-13.646-26.269-28.67-26.269-14.932 0-27.242 11.43-28.649 25.999-.337.133-.587.429-.632.797-.04.323.082.636.311.851-2.599 1.988-4.285 5.112-4.285 8.629 0 5.995 4.877 10.873 10.872 10.873.24 0 .451-.096.624-.237 1.804 6.635 6.43 12.118 12.509 15.067-1.155.145-2.305.35-3.436.628-.151.037-.279.114-.392.207-5.341 1.472-10.088 4.382-13.802 8.288-.05.041-.091.089-.133.14-5.05 5.38-8.153 12.609-8.153 20.553v1.952h-.386c-.552 0-1 .448-1 1v7.713c0 .552.448 1 1 1h.386v8.507c0 1.654 1.346 3 3 3h66.373c1.654 0 3-1.346 3-3v-5.671c1.341-.967 2.224-2.533 2.224-4.309v-2.519c1.044-.291 1.949-.918 2.56-1.827.68-1.011.924-2.225.689-3.42l-1.267-6.461c-.246-1.253-.989-2.282-1.982-2.931v-2.393c3.1-1.864 5-5.197 5-8.839z" fill="#e6e7e8"/><path d="m71.756 106.504v-4.379c-1.078-.96-1.867-2.262-2.167-3.788-.483-2.461.423-4.867 2.167-6.426v-5.542c-2.971-1.559-5-4.668-5-8.256 0-1.482.348-2.881.964-4.124-5.041-4.206-11.526-6.739-18.605-6.739h-.954c-1.661.389-3.391.601-5.17.601s-3.509-.212-5.17-.601h-.954c-16.05 0-29.062 13.011-29.062 29.062v20.173c0 1.105.895 2 2 2h66.373c1.105 0 2-.895 2-2v-6.224c-.624.349-1.333.566-2.099.566-2.388-.001-4.323-1.936-4.323-4.323z" fill="#fff"/><path d="m69.59 98.337c-.483-2.461.423-4.867 2.167-6.426v-5.542c-2.971-1.559-5-4.668-5-8.256 0-.748.113-1.466.28-2.163-4.781-3.749-10.763-6.038-17.277-6.18l-4.347 7.821.916.897c-1.794 2.669-3.318 4.643-3.318 4.643s-1.524-1.974-3.318-4.643l.916-.897-4.348-7.822c-15.77.324-28.457 13.2-28.457 29.047v.448h16.974v19.22h36.426v-19.22h8.644c-.104-.3-.196-.607-.258-.927z" fill="#6dc9f7"/><path d="m51.781 66.078c-2.702 1.141-5.672 1.773-8.79 1.773-3.051 0-5.959-.608-8.614-1.703l-.06.126 6.291 11.318-.916.897c1.794 2.669 3.318 4.643 3.318 4.643s1.524-1.974 3.318-4.643l-.916-.897 6.35-11.423c.008-.032.012-.061.019-.091z" fill="#fff"/><path d="m29.999 70.578 2.812 14.64 7.797-7.627-4.352-7.821c-2.151.044-4.244.32-6.257.808z" fill="#0089ef"/><path d="m49.757 69.77-4.346 7.821 7.797 7.627 2.811-14.632c-2.013-.491-4.108-.769-6.262-.816z" fill="#0089ef"/><path d="m71.756 102.125c-.852-.759-1.518-1.732-1.909-2.861h-8.644v7.713h10.6c-.017-.157-.048-.311-.048-.473v-4.379z" fill="#0089ef"/><path d="m6.418 99.264h18.359v7.713h-18.359z" fill="#0089ef"/><path d="m63.451 35.241c-4.391 0-7.996-3.355-8.398-7.641v.369s-3.555 4.888-11.023 7.257c-8.31 2.637-17.567.746-23.649-1.19v11.205c0 12.486 10.122 22.608 22.608 22.608s22.608-10.122 22.608-22.608v-10z" fill="#fff"/><path d="m46.348 9.681c-1.421-.263-2.883-.407-4.379-.407-9.556 0-17.825 5.608-21.694 13.705-.15.812-.231 1.639-.231 2.474v3.79c2.308-.955 4.78-2.232 6.674-3.87 3.853-3.33 8.602-8.145 14.417-9.167 7.876-1.383 13.54 2.743 13.54 2.743v-3.409c.001 0-2.534-3.984-8.327-5.859z" fill="#6dc9f7"/><path d="m55.286 13.314h-.273v13.489c0 4.66 3.778 8.438 8.438 8.438h2.148v-6.271c-1.191-6.508-5.007-12.109-10.313-15.656z" fill="#6dc9f7"/><path d="m69.715 31.805c-.781-14.627-12.927-26.289-27.746-26.289-14.645 0-26.67 11.392-27.704 25.779.753-.188 2.178-.574 3.895-1.172 1.562-11.75 11.639-20.849 23.809-20.849 12.449 0 22.716 9.517 23.911 21.658 1.366.032 2.661.341 3.835.873z" fill="#fa759e"/><path d="m15.482 32.24c-2.959 1.705-4.955 4.892-4.955 8.552 0 5.452 4.42 9.872 9.872 9.872v-16.621c-2.056-.654-3.745-1.311-4.917-1.803z" fill="#fa759e"/><path d="m65.645 30.92v19.745c5.452 0 9.872-4.42 9.872-9.872 0-5.453-4.42-9.873-9.872-9.873z" fill="#fa759e"/><path d="m41.513 16.227c-5.815 1.021-10.564 5.836-14.417 9.167-4.824 4.169-13.417 6.042-13.417 6.042s16.498 8.187 30.351 3.792c7.468-2.37 11.023-7.257 11.023-7.257v-9c.001-.001-5.664-4.127-13.54-2.744z" fill="#6dc9f7"/><path d="m98.429 69.126c-.011-.629.215-1.263.68-1.757 2.356-2.501 3.671-6.145 3.606-9.996s-1.501-7.449-3.94-9.869c-.981-.973-.987-2.557-.014-3.537.973-.981 2.557-.987 3.537-.013 3.357 3.331 5.331 8.192 5.418 13.336s-1.724 10.069-4.966 13.511c-.947 1.006-2.53 1.053-3.536.106-.511-.484-.774-1.13-.785-1.781z" fill="#6dc9f7"/><path d="m106.305 74.796c-.01-.62.208-1.244.661-1.736 3.666-3.98 5.71-9.711 5.609-15.722-.101-6.012-2.337-11.67-6.135-15.525-.97-.984-.958-2.568.026-3.537.984-.97 2.568-.958 3.537.026 4.69 4.76 7.451 11.668 7.573 18.952.123 7.284-2.404 14.28-6.931 19.196-.936 1.016-2.518 1.081-3.534.145-.524-.483-.795-1.138-.806-1.799z" fill="#0089ef"/><path d="m93.04 52.561c-.254 0-.5.052-.737.134v9.898c.238.082.483.134.737.134 1.843 0 3.338-2.276 3.338-5.083-.001-2.808-1.495-5.083-3.338-5.083z" fill="#fa759e"/><path d="m83.301 51.557c-.436-.303-.963-.484-1.531-.484h-.688c-3.614 0-6.57 2.957-6.57 6.57 0 3.614 2.957 6.57 6.57 6.57h.688c.568 0 1.095-.181 1.531-.484z" fill="#fa759e"/><path d="m90.416 47.382-7.115 3.691v13.141l7.115 3.691c.86.446 1.886-.178 1.886-1.146v-18.231c0-.968-1.026-1.592-1.886-1.146z" fill="#ffd7e5"/><path d="m71.756 86.369v5.542c.887-.793 1.986-1.37 3.238-1.615l3.231-.634c.766-.15 1.518-.034 2.176.271v-3.565c2.971-1.559 5-4.668 5-8.256 0-3.919-2.422-7.268-5.848-8.646v5.849c0 1.919-1.556 3.475-3.475 3.475s-3.475-1.556-3.475-3.475v-5.849c-3.426 1.378-5.848 4.727-5.848 8.646.001 3.589 2.03 6.698 5.001 8.257z" fill="#fa759e"/><path d="m77.63 103.741c-2.187.429-4.329-.24-5.874-1.616v4.379c0 2.387 1.935 4.322 4.322 4.322s4.322-1.935 4.322-4.322v-3.306z" fill="#fa759e"/><path d="m83.668 98.931-1.267-6.461c-.378-1.929-2.248-3.185-4.177-2.807l-3.231.634c-3.713.728-6.132 4.328-5.404 8.041s4.328 6.132 8.041 5.404l3.231-.634c1.929-.379 3.186-2.249 2.807-4.177z" fill="#fff"/><g fill="#3a2c60"><path d="m57.833 96.836c.552 0 1-.448 1-1s-.448-1-1-1h-6.917c-.552 0-1 .448-1 1s.448 1 1 1z"/><path d="m45.991 86.224c.72 0 1.304-.584 1.304-1.304s-.584-1.304-1.304-1.304-1.304.584-1.304 1.304.584 1.304 1.304 1.304z"/><path d="m45.991 92.099c.72 0 1.304-.584 1.304-1.304s-.584-1.304-1.304-1.304-1.304.584-1.304 1.304.584 1.304 1.304 1.304z"/><path d="m40.616 117.484h-6.313c-.552 0-1 .448-1 1s.448 1 1 1h6.313c.552 0 1-.448 1-1s-.448-1-1-1z"/><path d="m35.277 42.078c0-1.249-1.012-2.261-2.261-2.261s-2.261 1.012-2.261 2.261 1.012 2.261 2.261 2.261 2.261-1.013 2.261-2.261z"/><path d="m52.965 39.817c-1.249 0-2.261 1.012-2.261 2.261s1.012 2.261 2.261 2.261 2.261-1.012 2.261-2.261-1.012-2.261-2.261-2.261z"/><path d="m42.991 53.141c1.969 0 3.571-1.602 3.571-3.571v-1.507c0-.552-.448-1-1-1s-1 .448-1 1v1.507c0 .866-.705 1.571-1.571 1.571s-1.571-.705-1.571-1.571v-1.507c0-.552-.448-1-1-1s-1 .448-1 1v1.507c-.001 1.969 1.601 3.571 3.571 3.571z"/><path d="m51.245 37.699 4.427.771c.058.01.116.015.173.015.477 0 .899-.342.984-.828.095-.544-.27-1.062-.813-1.157l-4.427-.771c-.547-.089-1.062.271-1.157.813-.096.544.269 1.062.813 1.157z"/><path d="m42.991 59.049c3.711 0 5.723-2.6 5.807-2.711.333-.44.247-1.067-.193-1.401-.442-.334-1.069-.247-1.401.193-.014.02-1.484 1.918-4.212 1.918-2.748 0-4.138-1.819-4.202-1.905-.323-.443-.947-.542-1.392-.221-.448.323-.549.948-.226 1.396.079.114 2.012 2.731 5.819 2.731z"/><path d="m103.003 43.242c-1.369-1.359-3.591-1.351-4.952.02-1.359 1.37-1.351 3.591.02 4.951 2.255 2.238 3.584 5.583 3.645 9.176s-1.155 6.981-3.335 9.294c-.629.668-.967 1.542-.951 2.459.016.952.407 1.836 1.101 2.489.654.617 1.502.953 2.397.953.035 0 .071 0 .107-.001.935-.028 1.803-.418 2.443-1.1 3.42-3.629 5.329-8.81 5.239-14.213-.092-5.401-2.174-10.515-5.714-14.028zm-.981 26.871c-.275.292-.647.459-1.049.471-.37.014-.781-.132-1.073-.408-.298-.28-.465-.659-.472-1.067-.007-.394.138-.768.407-1.055 2.534-2.689 3.947-6.588 3.879-10.699-.07-4.111-1.614-7.961-4.236-10.563-.587-.583-.591-1.535-.008-2.123.293-.295.68-.443 1.066-.443.382 0 .765.145 1.058.435 3.173 3.149 5.04 7.757 5.122 12.643.083 4.887-1.628 9.556-4.694 12.809z"/><path d="m110.716 37.599c-.656-.666-1.533-1.037-2.468-1.043-.973.003-1.818.351-2.482 1.007-.667.656-1.038 1.533-1.045 2.468s.351 1.817 1.008 2.483c3.619 3.674 5.751 9.083 5.847 14.84.098 5.757-1.851 11.235-5.345 15.028-.611.663-.939 1.526-.926 2.43v.002c.018.968.418 1.861 1.129 2.516.652.6 1.488.926 2.369.926.049 0 .098-.001.147-.003.934-.039 1.798-.438 2.431-1.126 4.7-5.103 7.323-12.353 7.196-19.89-.126-7.538-2.991-14.695-7.861-19.638zm-.806 38.173c-.271.295-.642.466-1.042.482-.404.019-.784-.124-1.079-.396-.305-.28-.477-.663-.484-1.078-.006-.389.135-.759.396-1.043 3.839-4.167 5.979-10.151 5.874-16.417-.104-6.266-2.446-12.174-6.423-16.21-.281-.285-.435-.664-.432-1.064s.162-.777.448-1.059c.285-.282.664-.445 1.064-.432.4.003.776.162 1.059.447 4.512 4.58 7.168 11.238 7.285 18.268.12 7.029-2.31 13.773-6.666 18.502z"/><path d="m93.302 51.579v-3.051c0-.807-.412-1.539-1.102-1.958-.689-.419-1.528-.448-2.245-.075l-7.115 3.691c-.021.011-.036.028-.056.04-.322-.094-.66-.152-1.013-.152h-.688c-4.174 0-7.57 3.396-7.57 7.57s3.396 7.57 7.57 7.57h.688c.353 0 .691-.058 1.013-.152.02.012.035.029.056.04l7.115 3.691c.335.174.696.26 1.057.26.411 0 .821-.112 1.188-.335.689-.419 1.102-1.151 1.102-1.958v-3.051c2.305-.186 4.075-2.778 4.075-6.065s-1.77-5.88-4.075-6.065zm-12.22 11.635c-3.071 0-5.57-2.499-5.57-5.57s2.499-5.57 5.57-5.57h.688c.186 0 .363.036.53.092v10.956c-.167.056-.344.092-.53.092zm10.22 3.545c0 .143-.088.217-.14.249s-.159.077-.285.009l-6.576-3.412v-11.924l6.576-3.412c.125-.067.233-.022.285.009s.14.106.14.249v4.167 9.898zm2-5.063v-8.104c1.029.238 2.075 1.835 2.075 4.052s-1.046 3.814-2.075 4.052z"/><path d="m86.4 78.113c0-4.234-2.541-7.992-6.475-9.574-.308-.124-.656-.087-.933.099-.275.186-.44.497-.44.829v5.85c0 1.365-1.11 2.475-2.475 2.475s-2.475-1.11-2.475-2.475v-5.85c0-.332-.165-.643-.44-.829-.276-.187-.626-.223-.933-.099-2.026.815-3.679 2.21-4.809 3.947-4.053-3.122-8.919-5.236-14.223-5.959 6.038-2.908 10.651-8.313 12.506-14.865 5.968-.032 10.813-4.894 10.813-10.87 0-4.185-2.38-7.818-5.854-9.635-1.101-14.873-13.542-26.641-28.693-26.641-14.932 0-27.242 11.43-28.649 25.999-.337.133-.587.429-.632.797-.051.41.159.803.52.999-.004.118-.006.237-.009.356-2.247 1.993-3.672 4.893-3.672 8.125 0 5.954 4.811 10.799 10.749 10.866 1.848 6.53 6.435 11.921 12.443 14.837-1.155.146-2.305.35-3.435.628-.151.037-.279.114-.392.207-5.341 1.472-10.089 4.382-13.803 8.289-.05.041-.09.088-.132.138-5.05 5.38-8.153 12.609-8.153 20.553v1.952h-.386c-.552 0-1 .448-1 1v7.713c0 .552.448 1 1 1h.386v8.507c0 1.654 1.346 3 3 3h20.51c.552 0 1-.448 1-1s-.448-1-1-1h-4.534v-27.4c0-5.892-3.238-11.228-8.354-13.981 3.162-3.043 7.031-5.354 11.337-6.655l3.066 15.96c.069.362.332.656.683.766.098.03.199.045.299.045.257 0 .51-.1.699-.285l6.026-5.896c1.127 1.633 2.048 2.869 2.453 3.405v8.924c0 .552.448 1 1 1s1-.448 1-1v-8.873c.381-.503 1.327-1.766 2.492-3.455l6.026 5.896c.189.186.442.285.699.285.1 0 .201-.015.299-.045.351-.11.614-.404.683-.766l3.063-15.945c3.391 1.032 6.513 2.686 9.229 4.834-.46 1.161-.711 2.417-.723 3.721-3.469 2.966-5.558 7.337-5.558 12.066v27.4h-15.583c-.552 0-1 .448-1 1s.448 1 1 1h31.561c1.654 0 3-1.346 3-3v-5.671c1.341-.967 2.224-2.533 2.224-4.309v-2.519c1.044-.291 1.949-.918 2.56-1.827.68-1.011.924-2.226.689-3.42l-1.267-6.461c-.246-1.253-.989-2.282-1.982-2.932v-2.392c3.099-1.864 4.999-5.197 4.999-8.839zm-69.69-46.457c3.016-.918 7.794-2.7 11.04-5.506.493-.426 1-.875 1.522-1.339 3.57-3.167 7.616-6.757 12.413-7.599 1.349-.237 2.627-.294 3.823-.241 4.697.308 7.981 2.385 8.504 2.736v7.096c0 .27.018.536.041.8v.02c-.809.981-4.188 4.703-10.325 6.651-10.127 3.214-21.905-.587-27.018-2.618zm25.259-21.382c1.436 0 2.84.139 4.204.391 4.552 1.501 6.9 4.353 7.503 5.185v1.172c-1.672-.825-4.323-1.819-7.629-2.033-.025-.002-.05-.004-.076-.006-.14-.008-.278-.019-.42-.024-1.421-.083-2.956-.024-4.589.263-5.355.94-9.813 4.895-13.395 8.073-.515.458-1.016.901-1.502 1.322-1.277 1.104-2.961 2.142-5.021 3.097v-2.261c0-.708.062-1.409.179-2.098 3.721-7.726 11.613-13.081 20.746-13.081zm14.085 17.302v-2.335h1.107c1.491 0 2.928.439 4.158 1.27.171.116.366.171.559.171.321 0 .636-.154.83-.44.309-.458.189-1.079-.269-1.388-1.561-1.055-3.386-1.612-5.277-1.612h-1.107v-3.273c.649.072 1.383.277 1.812.439.116.043.235.064.353.064.404 0 .785-.247.936-.646.195-.516-.064-1.093-.581-1.289-.164-.063-1.35-.493-2.56-.577v-2.888c4.392 3.391 7.527 8.327 8.586 13.989v5.181h-1.148c-3.842-.001-7.011-2.927-7.399-6.666zm18.464 13.217c0 4.554-3.449 8.318-7.872 8.816v-17.632c4.422.498 7.872 4.261 7.872 8.816zm-32.549-34.277c13.766 0 25.13 10.441 26.612 23.818-.586-.165-1.187-.291-1.808-.355-1.631-12.234-12.13-21.705-24.804-21.705-12.463 0-22.819 9.16-24.711 21.099-.693.231-1.318.421-1.861.578 1.654-13.194 12.937-23.435 26.572-23.435zm-22.57 43.093c-4.423-.498-7.872-4.262-7.872-8.816 0-3.11 1.614-5.843 4.043-7.426 1.006.414 2.301.908 3.818 1.414l-.006 10.462c0 .22.011.437.017.655zm2-3.713v-10.484c2.309.68 4.972 1.31 7.828 1.705-.068.168-.108.348-.075.54.085.486.507.828.984.828.057 0 .115-.005.173-.015l4.427-.771c.148-.026.279-.087.394-.168 3.053-.011 6.181-.393 9.203-1.351 5.207-1.653 8.571-4.46 10.252-6.17.126.346.269.683.433 1.009.023.046.044.095.068.141.089.17.187.334.285.498.047.078.093.157.142.233.096.149.197.294.302.438.062.085.124.169.189.252.104.133.21.264.32.391.075.087.153.17.231.254.11.119.221.237.337.349.09.087.184.168.277.252.114.102.226.207.345.303.14.114.287.218.433.324.158.114.318.222.483.326.148.094.296.188.449.273.106.059.216.111.324.166.148.075.297.149.449.217.112.049.226.094.341.14.157.062.315.121.476.174.115.038.229.075.346.108.169.049.341.093.514.133.112.026.224.053.338.075.193.037.389.065.586.09.098.013.194.029.293.039.297.028.598.046.903.046h1.147v9.001c0 9.007-5.541 16.741-13.391 19.981-.582.24-1.172.459-1.771.645-.046.014-.093.027-.139.041-4.034 1.224-8.4 1.243-12.456.045-.033-.01-.066-.018-.098-.028-.626-.188-1.243-.41-1.851-.656-7.719-3.133-13.229-10.604-13.491-19.374zm-13.981 60.081v-1.857h8.285c.552 0 1-.448 1-1s-.448-1-1-1h-8.285v-1.856h16.359v5.713zm2.386 11.507c-.551 0-1-.449-1-1v-8.507h14.976v9.507zm13.976-27.4v8.18h-14.976v-1.952c0-7.181 2.714-13.738 7.167-18.707 4.764 2.318 7.809 7.137 7.809 12.479zm9.663-6.882-2.74-14.262c1.184-.266 2.395-.459 3.63-.57l5.03 9.04zm11.588-4.584c-.793 1.159-1.51 2.151-2.021 2.845-.511-.694-1.228-1.687-2.021-2.845l.319-.312c.322-.315.394-.807.175-1.201l-.306-.55-4.612-8.297c.101-.001.201-.008.302-.008.152 0 .292-.039.421-.1.162.04.326.076.489.113.105.024.21.051.315.073.494.105.994.193 1.499.266.072.01.145.018.217.028.455.062.914.109 1.376.145.084.006.168.014.252.019.514.034 1.032.057 1.554.057.53 0 1.054-.024 1.576-.058.106-.007.212-.016.318-.024.431-.034.859-.08 1.284-.137.097-.013.195-.023.292-.037.475-.07.946-.155 1.412-.253.17-.036.339-.078.508-.118.105-.025.211-.047.315-.073.129.06.269.1.421.1.114 0 .226.006.339.008l-4.917 8.848c-.109.197-.146.418-.115.63s.129.414.29.571zm7.546 4.584-5.921-5.792 5.004-9.001c1.228.128 2.447.335 3.64.62zm13.473-2.692c.636 2.668 2.304 4.998 4.706 6.443v4.519c-.352.354-.674.744-.959 1.167-1.12 1.666-1.545 3.653-1.227 5.625h-6.368v-8.18c-.001-3.648 1.431-7.043 3.848-9.574zm3.241 23.61h1.465v1.857h-8.552v-5.713h6.966c.304.673.7 1.297 1.18 1.856h-1.059c-.553 0-1 .448-1 1s.447 1 1 1zm7.886 12.364c0 .551-.448 1-1 1h-13.976v-9.507h8.788c.644 2.215 2.669 3.849 5.089 3.849.377 0 .744-.042 1.099-.117zm-1.099-6.658c-1.832 0-3.322-1.49-3.322-3.322v-2.384h.209c1.046.496 2.179.751 3.331.751.508 0 1.019-.049 1.527-.149l1.577-.309v2.091c0 1.831-1.49 3.322-3.322 3.322zm6.609-10.702c.132.67-.006 1.352-.387 1.919s-.96.952-1.631 1.083l-3.23.634c-1.533.302-3.092-.014-4.39-.886-1.297-.872-2.177-2.196-2.478-3.73s.014-3.092.885-4.389c.872-1.297 2.197-2.177 3.73-2.478l3.23-.634c.165-.033.33-.048.493-.048 1.198 0 2.271.848 2.51 2.066zm-4.655-10.443-3.23.634c-.722.142-1.407.384-2.046.708v-3.654c0-.372-.206-.713-.535-.886-2.754-1.445-4.465-4.269-4.465-7.37 0-2.891 1.471-5.506 3.848-7.015v4.218c0 2.467 2.007 4.475 4.475 4.475s4.475-2.007 4.475-4.475v-4.218c2.377 1.508 3.848 4.124 3.848 7.015 0 3.102-1.711 5.925-4.465 7.37-.329.173-.535.514-.535.886v2.275c-.449-.049-.906-.054-1.37.037z"/></g></svg>